<?xml version="1.0" encoding="utf-8"?>
<!-- Generator: Adobe Illustrator 26.1.0, SVG Export Plug-In . SVG Version: 6.00 Build 0)  -->
<svg version="1.1" id="Capa_1" xmlns="http://www.w3.org/2000/svg" xmlns:xlink="http://www.w3.org/1999/xlink" x="0px" y="0px"
	 viewBox="0 0 59 59" style="enable-background:new 0 0 59 59;" xml:space="preserve">
<style type="text/css">
	.st0{fill:#00E5C9;}
	.st1{fill:#FF4031;}
	.st2{fill:#FFCA3A;}
	.st3{fill:#FFFFFF;}
	.st4{fill:#F9EDDC;}
	.st5{fill:#001363;}
</style>
<g>
	<g>
		<g>
			<path class="st0" d="M54.4,56.7c1.3,0,2.4-1.1,2.4-2.4V4.6c0-1.3-1.1-2.4-2.4-2.4H41c-1.3,0-2.4,1.1-2.4,2.4v49.7
				c0,1.3,1.1,2.4,2.4,2.4H54.4z"/>
		</g>
		<g>
			<path class="st1" d="M18.2,56.7c1.3,0,2.4-1.1,2.4-2.4V4.6c0-1.3-1.1-2.4-2.4-2.4H4.8c-1.3,0-2.4,1.1-2.4,2.4v49.7
				c0,1.3,1.1,2.4,2.4,2.4H18.2z"/>
		</g>
		<g>
			<path class="st2" d="M36.3,56.7c1.3,0,2.4-1.1,2.4-2.4V4.6c0-1.3-1.1-2.4-2.4-2.4H22.9c-1.3,0-2.4,1.1-2.4,2.4v49.7
				c0,1.3,1.1,2.4,2.4,2.4H36.3z"/>
		</g>
		<g>
			<path class="st3" d="M15.7,44.1c0-2.3-1.9-4.2-4.2-4.2c-2.3,0-4.2,1.9-4.2,4.2s1.9,4.2,4.2,4.2C13.8,48.3,15.7,46.4,15.7,44.1z"
				/>
		</g>
		<g>
			<path class="st3" d="M33.8,44.1c0-2.3-1.9-4.2-4.2-4.2c-2.3,0-4.2,1.9-4.2,4.2s1.9,4.2,4.2,4.2C31.9,48.3,33.8,46.4,33.8,44.1z"
				/>
		</g>
		<g>
			<path class="st3" d="M52,44.1c0-2.3-1.9-4.2-4.2-4.2c-2.3,0-4.2,1.9-4.2,4.2s1.9,4.2,4.2,4.2C50.1,48.3,52,46.4,52,44.1z"/>
		</g>
		<g>
			<g>
				<path class="st4" d="M15.9,29.5c0.6,0,1.1-0.5,1.1-1.1V24V10c0-0.6-0.5-1.1-1.1-1.1H7C6.4,8.9,6,9.4,6,10V24v4.4
					C6,29,6.4,29.5,7,29.5H15.9z M8.1,11h6.7v12H8.1V11z M8.1,25.1h6.7v2.3H8.1V25.1z"/>
			</g>
			<g>
				<path class="st4" d="M34,29.5c0.6,0,1.1-0.5,1.1-1.1V24V10c0-0.6-0.5-1.1-1.1-1.1h-8.9c-0.6,0-1.1,0.5-1.1,1.1V24v4.4
					c0,0.6,0.5,1.1,1.1,1.1H34z M26.2,11H33v12h-6.7V11z M26.2,25.1H33v2.3h-6.7V25.1z"/>
			</g>
			<g>
				<path class="st4" d="M52.2,29.5c0.6,0,1.1-0.5,1.1-1.1V24V10c0-0.6-0.5-1.1-1.1-1.1h-8.9c-0.6,0-1.1,0.5-1.1,1.1V24v4.4
					c0,0.6,0.5,1.1,1.1,1.1H52.2z M44.4,11h6.7v12h-6.7V11z M44.4,25.1h6.7v2.3h-6.7V25.1z"/>
			</g>
		</g>
	</g>
	<g>
		<path class="st5" d="M3.4,22.7V22C3.4,21.4,3,21,2.4,21c-0.6,0-1.1,0.5-1.1,1.1v0.6c0,0.6,0.5,1.1,1.1,1.1
			C3,23.7,3.4,23.2,3.4,22.7z"/>
		<path class="st5" d="M15.9,29.5c0.6,0,1.1-0.5,1.1-1.1V24V10c0-0.6-0.5-1.1-1.1-1.1H7C6.4,8.9,6,9.4,6,10V24v4.4
			C6,29,6.4,29.5,7,29.5H15.9z M8.1,11h6.7v12H8.1V11z M8.1,25.1h6.7v2.3H8.1V25.1z"/>
		<path class="st5" d="M16.7,44.1c0-2.9-2.4-5.3-5.3-5.3c-2.9,0-5.3,2.4-5.3,5.3c0,2.9,2.4,5.3,5.3,5.3C14.4,49.4,16.7,47,16.7,44.1
			z M8.3,44.1c0-1.8,1.4-3.2,3.2-3.2s3.2,1.4,3.2,3.2c0,1.8-1.4,3.2-3.2,3.2S8.3,45.8,8.3,44.1z"/>
		<path class="st5" d="M34.9,44.1c0-2.9-2.4-5.3-5.3-5.3c-2.9,0-5.3,2.4-5.3,5.3c0,2.9,2.4,5.3,5.3,5.3C32.5,49.4,34.9,47,34.9,44.1
			z M26.4,44.1c0-1.8,1.4-3.2,3.2-3.2c1.8,0,3.2,1.4,3.2,3.2c0,1.8-1.4,3.2-3.2,3.2C27.8,47.3,26.4,45.8,26.4,44.1z"/>
		<path class="st5" d="M53,44.1c0-2.9-2.4-5.3-5.3-5.3c-2.9,0-5.3,2.4-5.3,5.3c0,2.9,2.4,5.3,5.3,5.3C50.7,49.4,53,47,53,44.1z
			 M44.6,44.1c0-1.8,1.4-3.2,3.2-3.2c1.8,0,3.2,1.4,3.2,3.2c0,1.8-1.4,3.2-3.2,3.2C46,47.3,44.6,45.8,44.6,44.1z"/>
		<path class="st5" d="M34,29.5c0.6,0,1.1-0.5,1.1-1.1V24V10c0-0.6-0.5-1.1-1.1-1.1h-8.9c-0.6,0-1.1,0.5-1.1,1.1V24v4.4
			c0,0.6,0.5,1.1,1.1,1.1H34z M26.2,11H33v12h-6.7V11z M26.2,25.1H33v2.3h-6.7V25.1z"/>
		<path class="st5" d="M2.4,28.1c-0.6,0-1.1,0.5-1.1,1.1v25.2c0,1.9,1.5,3.4,3.4,3.4h13.4c0.9,0,1.8-0.4,2.4-1c0.6,0.6,1.5,1,2.4,1
			h13.4c0.9,0,1.8-0.4,2.4-1c0.6,0.6,1.5,1,2.4,1h13.4c1.9,0,3.4-1.5,3.4-3.4V4.6c0-1.9-1.5-3.4-3.4-3.4H41c-0.9,0-1.8,0.4-2.4,1
			c-0.6-0.6-1.5-1-2.4-1H22.9c-0.9,0-1.8,0.4-2.4,1c-0.6-0.6-1.5-1-2.4-1H4.8c-1.9,0-3.4,1.5-3.4,3.4v11c0,0.6,0.5,1.1,1.1,1.1
			c0.6,0,1.1-0.5,1.1-1.1v-11c0-0.7,0.6-1.3,1.3-1.3h13.4c0.7,0,1.3,0.6,1.3,1.3v49.7c0,0.7-0.6,1.3-1.3,1.3H4.8
			c-0.7,0-1.3-0.6-1.3-1.3V29.1C3.4,28.5,3,28.1,2.4,28.1z M39.7,4.6c0-0.7,0.6-1.3,1.3-1.3h13.4c0.7,0,1.3,0.6,1.3,1.3v49.7
			c0,0.7-0.6,1.3-1.3,1.3H41c-0.7,0-1.3-0.6-1.3-1.3V4.6z M21.6,4.6c0-0.7,0.6-1.3,1.3-1.3h13.4c0.7,0,1.3,0.6,1.3,1.3v49.7
			c0,0.7-0.6,1.3-1.3,1.3H22.9c-0.7,0-1.3-0.6-1.3-1.3V4.6z"/>
		<path class="st5" d="M52.2,29.5c0.6,0,1.1-0.5,1.1-1.1V24V10c0-0.6-0.5-1.1-1.1-1.1h-8.9c-0.6,0-1.1,0.5-1.1,1.1V24v4.4
			c0,0.6,0.5,1.1,1.1,1.1H52.2z M44.4,11h6.7v12h-6.7V11z M44.4,25.1h6.7v2.3h-6.7V25.1z"/>
	</g>
</g>
</svg>
