<?xml version="1.0" encoding="utf-8"?>
<!-- Generator: Adobe Illustrator 26.1.0, SVG Export Plug-In . SVG Version: 6.00 Build 0)  -->
<svg version="1.1" id="Capa_1" xmlns="http://www.w3.org/2000/svg" xmlns:xlink="http://www.w3.org/1999/xlink" x="0px" y="0px"
	 viewBox="0 0 58 58" style="enable-background:new 0 0 58 58;" xml:space="preserve">
<style type="text/css">
	.st0{fill:#1B998B;}
	.st1{fill:#23F723;}
	.st2{fill:#FFFFFF;}
	.st3{fill:#6ED1D3;}
	.st4{fill:#FF6728;}
	.st5{fill:#000053;}
	.st6{fill:#FFF4F4;}
	.st7{fill:#FF6326;}
	.st8{fill:#FFE997;}
	.st9{fill:#E1DFF4;}
</style>
<g>
	<g>
		<g>
			<g>
				<path class="st0" d="M37.4,24.3c0-0.6-0.5-1.1-1.1-1.1h-1.5c-0.6,0-1.1,0.5-1.1,1.1c0,0.6,0.5,1.1,1.1,1.1h1.5
					C36.9,25.3,37.4,24.9,37.4,24.3z"/>
			</g>
			<g>
				<path class="st0" d="M32.1,51.6h-3c-0.6,0-1.1,0.5-1.1,1.1c0,0.6,0.5,1.1,1.1,1.1h3c0.6,0,1.1-0.5,1.1-1.1
					C33.1,52,32.6,51.6,32.1,51.6z"/>
			</g>
			<g>
				<path class="st0" d="M25.2,30.6c-0.1-0.6-0.6-1-1.2-0.9c-0.6,0.1-1,0.6-0.9,1.2c0.2,1.2,0.7,2.2,1.4,3.2
					c0.2,0.3,0.5,0.4,0.8,0.4c0.2,0,0.5-0.1,0.7-0.2c0.5-0.4,0.5-1,0.2-1.5C25.7,32.1,25.3,31.3,25.2,30.6z"/>
			</g>
			<g>
				<path class="st0" d="M33.6,34.4h-3c-0.6,0-1.1,0.5-1.1,1.1c0,0.6,0.5,1.1,1.1,1.1h3c0.6,0,1.1-0.5,1.1-1.1
					C34.6,34.9,34.2,34.4,33.6,34.4z"/>
			</g>
			<g>
				<path class="st0" d="M30,24.2c-0.1-0.6-0.6-1-1.2-0.9c-1.2,0.2-2.3,0.6-3.2,1.4c-0.5,0.4-0.5,1-0.2,1.5c0.2,0.3,0.5,0.4,0.8,0.4
					c0.2,0,0.5-0.1,0.7-0.2c0.6-0.5,1.4-0.8,2.2-0.9C29.6,25.3,30,24.8,30,24.2z"/>
			</g>
			<g>
				<path class="st0" d="M42.7,34.8c-0.9-0.3-1.9-0.4-2.8-0.4h-0.4c-0.6,0-1.1,0.5-1.1,1.1c0,0.6,0.5,1.1,1.1,1.1h0.4
					c0.8,0,1.5,0.1,2.2,0.3c0.1,0,0.2,0,0.3,0c0.5,0,0.9-0.3,1-0.7C43.6,35.6,43.3,35,42.7,34.8z"/>
			</g>
			<g>
				<path class="st0" d="M49.4,41.6c-0.3-1.1-0.7-2.1-1.4-3c-0.3-0.5-1-0.6-1.5-0.3c-0.5,0.3-0.6,1-0.3,1.5c0.5,0.7,0.8,1.5,1.1,2.3
					c0.1,0.5,0.6,0.8,1,0.8c0.1,0,0.2,0,0.3,0C49.2,42.7,49.5,42.2,49.4,41.6z"/>
			</g>
			<g>
				<path class="st0" d="M40.8,51.5c-0.3,0-0.6,0.1-0.9,0.1H38c-0.6,0-1.1,0.5-1.1,1.1c0,0.6,0.5,1.1,1.1,1.1h1.9
					c0.4,0,0.8,0,1.1-0.1c0.6-0.1,1-0.6,0.9-1.2C41.9,51.9,41.4,51.4,40.8,51.5z"/>
			</g>
			<g>
				<path class="st0" d="M48.3,46.6c-0.5-0.2-1.2,0-1.4,0.5c-0.4,0.8-0.9,1.5-1.5,2.1c-0.4,0.4-0.4,1.1,0,1.5
					c0.2,0.2,0.5,0.3,0.7,0.3c0.3,0,0.6-0.1,0.8-0.3c0.8-0.8,1.4-1.7,1.9-2.7C49,47.5,48.8,46.9,48.3,46.6z"/>
			</g>
			<g>
				<path class="st0" d="M23.1,51.6h-1.5c-0.6,0-1.1,0.5-1.1,1.1c0,0.6,0.5,1.1,1.1,1.1h1.5c0.6,0,1.1-0.5,1.1-1.1
					C24.2,52,23.7,51.6,23.1,51.6z"/>
			</g>
		</g>
		<g>
			<path class="st1" d="M54.7,10.6c0,2.7-3,7.1-5.4,10.1c-1.6,2.1-3,3.6-3,3.6s-1.4-1.5-3-3.6c-2.4-3.1-5.4-7.4-5.4-10.1
				c0-4.6,3.8-8.3,8.4-8.3S54.7,6,54.7,10.6z"/>
		</g>
		<g>
			<path class="st2" d="M49.8,10.7c0,1.9-1.6,3.4-3.5,3.4c-1.9,0-3.5-1.5-3.5-3.4c0-1.9,1.6-3.4,3.5-3.4
				C48.3,7.3,49.8,8.8,49.8,10.7z"/>
		</g>
		<g>
			<path class="st3" d="M56.4,24.3c0,2.1-4.5,3.7-10,3.7c-5.5,0-10-1.7-10-3.7c0-1.7,2.9-3.1,7-3.6c1.6,2.1,3,3.6,3,3.6
				s1.4-1.5,3-3.6C53.4,21.2,56.4,22.6,56.4,24.3z"/>
		</g>
		<g>
			<path class="st4" d="M20,38.9c0,2.7-3,7.1-5.4,10.1c-1.6,2.1-3,3.6-3,3.6s-1.4-1.5-3-3.6C6.2,46,3.2,41.6,3.2,38.9
				c0-4.6,3.8-8.3,8.4-8.3S20,34.3,20,38.9z"/>
		</g>
		<g>
			<path class="st2" d="M15.1,39c0,1.9-1.6,3.4-3.5,3.4S8.1,40.9,8.1,39c0-1.9,1.6-3.4,3.5-3.4S15.1,37.1,15.1,39z"/>
		</g>
		<g>
			<path class="st3" d="M21.6,52.6c0,2.1-4.5,3.7-10,3.7c-5.5,0-10-1.7-10-3.7c0-1.7,2.9-3.1,7-3.6c1.6,2.1,3,3.6,3,3.6
				s1.4-1.5,3-3.6C18.7,49.5,21.6,50.9,21.6,52.6z"/>
		</g>
	</g>
	<g>
		<path class="st5" d="M41.8,10.7c0,2.5,2,4.5,4.5,4.5c2.5,0,4.5-2,4.5-4.5s-2-4.5-4.5-4.5C43.8,6.2,41.8,8.2,41.8,10.7z M48.8,10.7
			c0,1.3-1.1,2.4-2.4,2.4c-1.3,0-2.4-1.1-2.4-2.4s1.1-2.4,2.4-2.4C47.7,8.3,48.8,9.4,48.8,10.7z"/>
		<path class="st5" d="M51.3,19.9c0.2-0.3,0.4-0.5,0.6-0.8c0.3-0.5,0.2-1.1-0.3-1.5c-0.5-0.3-1.1-0.2-1.5,0.3
			c-0.5,0.7-1,1.4-1.6,2.1c-0.8,1.1-1.6,2-2.2,2.6c-0.5-0.6-1.3-1.5-2.2-2.6c-3.3-4.2-5.2-7.6-5.2-9.5c0-4,3.3-7.2,7.3-7.2
			c4,0,7.3,3.2,7.3,7.2c0,0.7-0.2,1.9-1.4,4c-0.3,0.5-0.1,1.1,0.4,1.4c0.5,0.3,1.2,0.1,1.4-0.4c1.1-2,1.7-3.7,1.7-5
			c0-5.2-4.2-9.3-9.5-9.3c-5.2,0-9.5,4.2-9.5,9.3c0,2.2,1.5,5.3,4.5,9.4c-3.1,0.6-5.2,1.8-5.9,3.3h-0.7c-0.6,0-1.1,0.5-1.1,1.1
			c0,0.6,0.5,1.1,1.1,1.1h0.7c1.1,2.5,6,3.7,10.8,3.7c5.5,0,11.1-1.6,11.1-4.8C57.4,22.3,55.1,20.7,51.3,19.9z M46.3,27
			c-5.8,0-8.9-1.8-8.9-2.7c0-0.7,1.9-1.9,5.5-2.4c1.5,1.8,2.6,3.1,2.7,3.2c0.2,0.2,0.5,0.3,0.8,0.3c0.3,0,0.6-0.1,0.8-0.3
			c0.1-0.1,1.2-1.3,2.7-3.2c3.9,0.6,5.5,1.8,5.5,2.4C55.3,25.2,52.1,27,46.3,27z"/>
		<path class="st5" d="M5.3,34.4c0.3,0,0.6-0.1,0.8-0.4c0.1-0.2,0.3-0.3,0.4-0.4c0.4-0.4,0.4-1.1,0-1.5c-0.4-0.4-1.1-0.4-1.5,0
			c-0.2,0.2-0.4,0.4-0.6,0.6c-0.4,0.4-0.3,1.1,0.1,1.5C4.8,34.4,5.1,34.4,5.3,34.4z"/>
		<path class="st5" d="M11.6,43.5c2.5,0,4.5-2,4.5-4.5s-2-4.5-4.5-4.5c-2.5,0-4.5,2-4.5,4.5S9.1,43.5,11.6,43.5z M11.6,36.7
			c1.3,0,2.4,1.1,2.4,2.4c0,1.3-1.1,2.4-2.4,2.4c-1.3,0-2.4-1.1-2.4-2.4C9.2,37.7,10.3,36.7,11.6,36.7z"/>
		<path class="st5" d="M30,24.2c-0.1-0.6-0.6-1-1.2-0.9c-1.2,0.2-2.3,0.6-3.2,1.4c-0.5,0.4-0.5,1-0.2,1.5c0.2,0.3,0.5,0.4,0.8,0.4
			c0.2,0,0.5-0.1,0.7-0.2c0.6-0.5,1.4-0.8,2.2-0.9C29.6,25.3,30,24.8,30,24.2z"/>
		<path class="st5" d="M25.2,30.6c-0.1-0.6-0.6-1-1.2-0.9c-0.6,0.1-1,0.6-0.9,1.2c0.2,1.2,0.7,2.2,1.4,3.2c0.2,0.3,0.5,0.4,0.8,0.4
			c0.2,0,0.5-0.1,0.7-0.2c0.5-0.4,0.5-1,0.2-1.5C25.7,32.1,25.3,31.3,25.2,30.6z"/>
		<path class="st5" d="M48.3,46.6c-0.5-0.2-1.2,0-1.4,0.5c-0.4,0.8-0.9,1.5-1.5,2.1c-0.4,0.4-0.4,1.1,0,1.5c0.2,0.2,0.5,0.3,0.7,0.3
			c0.3,0,0.6-0.1,0.8-0.3c0.8-0.8,1.4-1.7,1.9-2.7C49,47.5,48.8,46.9,48.3,46.6z"/>
		<path class="st5" d="M48,38.6c-0.3-0.5-1-0.6-1.5-0.3c-0.5,0.3-0.6,1-0.3,1.5c0.5,0.7,0.8,1.5,1.1,2.3c0.1,0.5,0.6,0.8,1,0.8
			c0.1,0,0.2,0,0.3,0c0.6-0.1,0.9-0.7,0.8-1.3C49.1,40.5,48.6,39.5,48,38.6z"/>
		<path class="st5" d="M32.1,51.6h-3c-0.6,0-1.1,0.5-1.1,1.1c0,0.6,0.5,1.1,1.1,1.1h3c0.6,0,1.1-0.5,1.1-1.1
			C33.1,52,32.6,51.6,32.1,51.6z"/>
		<path class="st5" d="M42.7,34.8c-0.9-0.3-1.9-0.4-2.8-0.4h-0.4c-0.6,0-1.1,0.5-1.1,1.1c0,0.6,0.5,1.1,1.1,1.1h0.4
			c0.8,0,1.5,0.1,2.2,0.3c0.1,0,0.2,0,0.3,0c0.5,0,0.9-0.3,1-0.7C43.6,35.6,43.3,35,42.7,34.8z"/>
		<path class="st5" d="M40.8,51.5c-0.3,0-0.6,0.1-0.9,0.1H38c-0.6,0-1.1,0.5-1.1,1.1c0,0.6,0.5,1.1,1.1,1.1h1.9c0.4,0,0.8,0,1.1-0.1
			c0.6-0.1,1-0.6,0.9-1.2C41.9,51.9,41.4,51.4,40.8,51.5z"/>
		<path class="st5" d="M33.6,34.4h-3c-0.6,0-1.1,0.5-1.1,1.1c0,0.6,0.5,1.1,1.1,1.1h3c0.6,0,1.1-0.5,1.1-1.1
			C34.6,34.9,34.2,34.4,33.6,34.4z"/>
		<path class="st5" d="M23.1,51.6h-0.7c-0.7-1.5-2.8-2.7-5.9-3.3c3-4.1,4.5-7.2,4.5-9.4c0-5.2-4.2-9.3-9.5-9.3c-0.5,0-0.9,0-1.4,0.1
			c-0.6,0.1-1,0.6-0.9,1.2c0.1,0.6,0.6,1,1.2,0.9c0.3,0,0.7-0.1,1.1-0.1c4,0,7.3,3.2,7.3,7.2c0,1.9-1.8,5.3-5.2,9.5
			c-0.8,1.1-1.6,2-2.2,2.6c-0.5-0.6-1.3-1.5-2.2-2.6c-3.3-4.2-5.2-7.6-5.2-9.5c0-0.6-0.5-1.1-1.1-1.1s-1.1,0.5-1.1,1.1
			c0,2.2,1.5,5.3,4.5,9.4c-3.8,0.8-6.1,2.4-6.1,4.3c0,3.2,5.6,4.8,11.1,4.8c4.9,0,9.7-1.3,10.8-3.7h0.7c0.6,0,1.1-0.5,1.1-1.1
			C24.2,52,23.7,51.6,23.1,51.6z M11.6,55.3c-5.8,0-8.9-1.8-8.9-2.7c0-0.7,1.9-1.9,5.5-2.4c1.5,1.8,2.6,3.1,2.7,3.2
			c0.2,0.2,0.5,0.3,0.8,0.3c0.3,0,0.6-0.1,0.8-0.3c0.1-0.1,1.2-1.3,2.7-3.2c3.9,0.6,5.5,1.8,5.5,2.4c0,0,0,0,0,0c0,0,0,0,0,0
			C20.6,53.5,17.4,55.3,11.6,55.3z"/>
	</g>
</g>
<g>
	<g>
		<path class="st4" d="M500.5-208.9l-13.9-47.2H328.8l-13.9,47.2H197.7c-18.6,0-33.7,15.1-33.7,33.7V58.5
			c0,18.6,15.1,33.7,33.7,33.7h420c18.6,0,33.7-15.1,33.7-33.7v-233.8c0-18.6-15.1-33.7-33.7-33.7H500.5V-208.9z"/>
		<circle class="st6" cx="403.1" cy="-63.1" r="106.2"/>
		<rect x="215.5" y="-274.1" class="st7" width="44.7" height="65.1"/>
		<rect x="566.3" y="-168.3" class="st8" width="42.3" height="42.3"/>
		<g>
			<path class="st9" d="M355.5-32.5c-6.3,0-11.4-5.1-11.4-11.4c0-38.7,31.5-70.2,70.2-70.2c6.3,0,11.4,5.1,11.4,11.4
				c0,6.3-5.1,11.4-11.4,11.4c-26.2,0-47.5,21.3-47.5,47.5C366.9-37.6,361.8-32.5,355.5-32.5z"/>
		</g>
	</g>
	<g>
		<path class="st5" d="M378.2-244.7h8.3c6.3,0,11.4-5.1,11.4-11.4c0-6.3-5.1-11.4-11.4-11.4h-8.3c-6.3,0-11.4,5.1-11.4,11.4
			C366.8-249.8,371.9-244.7,378.2-244.7z"/>
		<path class="st5" d="M617.6-220.3H508.9l-11.5-39c-1.4-4.8-5.9-8.2-10.9-8.2h-52.9c-6.3,0-11.4,5.1-11.4,11.4
			c0,6.3,5.1,11.4,11.4,11.4h44.3l11.5,39c1.4,4.8,5.9,8.2,10.9,8.2h117.3c12.3,0,22.3,10,22.3,22.3v103.8c0,6.3,5.1,11.4,11.4,11.4
			s11.4-5.1,11.4-11.4v-103.9C662.7-200.1,642.5-220.3,617.6-220.3z"/>
		<path class="st5" d="M651.3-40.5c-6.3,0-11.4,5.1-11.4,11.4v8.9c0,6.3,5.1,11.4,11.4,11.4s11.4-5.1,11.4-11.4v-8.9
			C662.7-35.4,657.6-40.5,651.3-40.5z"/>
		<path class="st5" d="M651.3,15c-6.3,0-11.4,5.1-11.4,11.4v32c0,12.3-10,22.3-22.3,22.3h-420c-12.3,0-22.3-10-22.3-22.3v-233.7
			c0-12.3,10-22.3,22.3-22.3h117.2c5.1,0,9.5-3.3,10.9-8.2l13.9-47.1c1.8-6-1.7-12.4-7.7-14.1c-6-1.8-12.4,1.7-14.1,7.7l-11.5,39
			h-79.5v-46.3h33.3c6.3,0,11.4-5.1,11.4-11.4c0-6.3-5.1-11.4-11.4-11.4h-44.7c-6.3,0-11.4,5.1-11.4,11.4v57.6h-6.4
			c-24.9,0-45.1,20.2-45.1,45.1V58.4c0,24.9,20.2,45.1,45.1,45.1h420c24.9,0,45.1-20.2,45.1-45.1v-32C662.7,20.1,657.6,15,651.3,15z
			"/>
		<path class="st5" d="M459.7,20.9c-5.8,4-7.4,11.9-3.4,17.7c4,5.9,11.9,7.4,17.7,3.4c35-23.7,56-63,56-105.2
			c0-70-56.9-126.9-126.9-126.9S276.2-133.2,276.2-63.2S333.1,63.7,403.1,63.7c7.1,0,12.8-5.7,12.8-12.8s-5.7-12.8-12.8-12.8
			c-55.9,0-101.4-45.5-101.4-101.4s45.5-101.4,101.4-101.4s101.4,45.5,101.4,101.4C504.4-29.4,487.6,2,459.7,20.9z"/>
		<path class="st6" d="M608.4-114.6c6.3,0,11.4-5.1,11.4-11.4v-42.3c0-6.3-5.1-11.4-11.4-11.4h-42.3c-6.3,0-11.4,5.1-11.4,11.4v42.3
			c0,6.3,5.1,11.4,11.4,11.4H608.4z M577.5-156.9H597v19.5h-19.5V-156.9z"/>
		<path class="st5" d="M330.8-48.5c0,7.1,5.7,12.8,12.8,12.8s12.8-5.7,12.8-12.8c0-29.4,23.9-53.3,53.3-53.3
			c7.1,0,12.8-5.7,12.8-12.8s-5.7-12.8-12.8-12.8C366.2-127.4,330.8-92,330.8-48.5z"/>
	</g>
</g>
</svg>
