<?xml version="1.0" encoding="utf-8"?>
<!-- Generator: Adobe Illustrator 26.1.0, SVG Export Plug-In . SVG Version: 6.00 Build 0)  -->
<svg version="1.1" id="Layer_1" xmlns="http://www.w3.org/2000/svg" xmlns:xlink="http://www.w3.org/1999/xlink" x="0px" y="0px"
	 viewBox="0 0 1196.6 821.9" style="enable-background:new 0 0 1196.6 821.9;" xml:space="preserve">
<style type="text/css">
	.st0{fill:none;stroke:#597DBE;stroke-width:2.999;stroke-linejoin:round;stroke-miterlimit:9.9965;}
	.st1{fill:none;}
	.st2{fill:none;stroke:#904F9A;stroke-width:3;stroke-linecap:square;stroke-linejoin:round;stroke-miterlimit:10;}
	.st3{fill:none;stroke:#E6606C;stroke-width:3;stroke-linejoin:round;stroke-miterlimit:10;}
	.st4{fill:#5056A2;}
	.st5{fill:none;stroke:#904F9A;stroke-width:2.9995;stroke-linecap:square;stroke-miterlimit:9.9983;}
	.st6{fill:url(#SVGID_1_);}
	.st7{fill:url(#SVGID_00000044159934683911919730000001376360546823011237_);}
	.st8{fill:url(#Combined_Shape-3_00000029036263107707511280000012109093295644425101_);}
	.st9{fill:url(#SVGID_00000039850246510012704600000018152436894935366819_);}
	.st10{fill:url(#SVGID_00000069372246526755388380000001191978296914706832_);}
	.st11{fill:url(#SVGID_00000167378641504679185900000005201522319997399959_);}
	.st12{fill:url(#SVGID_00000015344538757481595150000008369240328981835922_);}
	.st13{fill:#904F9A;}
	.st14{fill:url(#Combined_Shape-3_00000177446125732115646120000016718310934008789129_);}
	.st15{fill:url(#SVGID_00000077301016862896104270000005083021406234705337_);}
	.st16{fill:url(#SVGID_00000033362434339600525680000003525332882896253611_);}
	.st17{fill:url(#SVGID_00000174560959964989959480000011654904550042976943_);}
	.st18{fill:url(#SVGID_00000093168961669138108350000009725692388549682350_);}
	.st19{fill:#597DBE;}
	.st20{fill:url(#Combined_Shape-3_00000075862080798790653150000016032765027795923391_);}
	.st21{fill:url(#SVGID_00000071529478262043964420000008147030980439610047_);}
	.st22{fill:url(#SVGID_00000029043509521778891780000017759927105853108114_);}
	.st23{fill:url(#SVGID_00000081638744120622142910000002281547341648847527_);}
	.st24{fill:url(#SVGID_00000030486946891966356710000004565253328256011948_);}
	.st25{fill:#E6606C;}
	.st26{fill:url(#Combined_Shape-3_00000157987073315872298850000005521831306758200995_);}
	.st27{fill:url(#SVGID_00000128459985923416802240000017632339793239134848_);}
	.st28{fill:url(#SVGID_00000156572328051267811460000001265411091793643403_);}
	.st29{fill:#490599;}
	.st30{fill:#298AFF;}
	.st31{fill:#3EDBFF;}
	.st32{fill:#FC68C0;}
</style>
<g id="Rectangle-5" transform="matrix(0.883, 0.469, -0.469, 0.883, 415.535, 82)">
	
		<rect x="270.9" y="-93" transform="matrix(5.064937e-06 1 -1 5.064937e-06 220.523 -363.9177)" class="st0" width="42.6" height="42.6"/>
</g>
<g id="Rectangle-5_00000098190572782773338920000013613060132589809841_" transform="matrix(0.883, 0.469, -0.469, 0.883, 415.535, 82)">
	
		<rect x="621.4" y="-306.4" transform="matrix(5.064937e-06 1 -1 5.064937e-06 341.4404 -927.8349)" class="st0" width="26.4" height="26.4"/>
</g>
<g id="Rectangle-5_00000054242070491362294650000010293503923817945529_" transform="matrix(0.883, 0.469, -0.469, 0.883, 415.535, 82)">
	
		<rect x="-3.4" y="741.7" transform="matrix(5.064937e-06 1 -1 5.064937e-06 764.707 745.0552)" class="st0" width="26.4" height="26.4"/>
</g>
<g id="Rectangle-6" transform="translate(39 152.078) rotate(-20)">
	
		<rect x="211" y="213.7" transform="matrix(-1 5.622142e-06 -5.622142e-06 -1 430.9252 436.375)" class="st1" width="9" height="9"/>
	
		<rect x="209.5" y="212.2" transform="matrix(-1 5.622142e-06 -5.622142e-06 -1 430.9252 436.375)" class="st2" width="12" height="12"/>
</g>
<g id="Oval" transform="translate(64 27)">
	<circle class="st3" cx="303.3" cy="160.6" r="33.5"/>
</g>
<g id="Oval_00000183936198417115859710000001490247759411076786_" transform="translate(64 27)">
	<circle class="st3" cx="875.6" cy="399.5" r="16.9"/>
</g>
<g id="Oval-2" transform="translate(503 489)">
	<circle class="st3" cx="277.8" cy="135.1" r="8"/>
</g>
<g id="Oval-3" transform="translate(51 272)">
	<circle class="st3" cx="277.8" cy="135.1" r="8"/>
</g>
<g id="Oval-3_00000083058306438863223370000000881987843504277144_" transform="translate(51 272)">
	<circle class="st3" cx="593.7" cy="-229.7" r="8"/>
</g>
<g id="Oval-3_00000173152644108368484090000009591331747091679619_" transform="translate(51 272)">
	<ellipse transform="matrix(0.1602 -0.9871 0.9871 0.1602 -48.5982 890.2797)" class="st3" cx="498.9" cy="473.7" rx="8" ry="8"/>
</g>
<g id="Triangle" transform="translate(261.522 411.744) rotate(17)">
	<path class="st4" d="M557,193.2l-16.5,26h33L557,193.2 M557,190.2c1,0,2,0.5,2.5,1.4l16.5,26c0.6,0.9,0.6,2.1,0.1,3.1
		s-1.5,1.6-2.6,1.6h-33c-1.1,0-2.1-0.6-2.6-1.6s-0.5-2.1,0.1-3.1l16.5-26C555,190.7,556,190.2,557,190.2z"/>
</g>
<g id="Triangle_00000011724043546691670270000005098628986091990973_" transform="translate(261.522 411.744) rotate(17)">
	<path class="st4" d="M-61.8,2.5l-12.3,19.4l24.6,0L-61.8,2.5 M-61.8,0.3c0.8,0,1.5,0.4,1.9,1l12.3,19.4c0.4,0.7,0.5,1.6,0.1,2.3
		c-0.4,0.7-1.1,1.2-2,1.2l-24.6,0c-0.8,0-1.6-0.4-2-1.2c-0.4-0.7-0.4-1.6,0.1-2.3l12.3-19.4C-63.3,0.7-62.6,0.3-61.8,0.3z"/>
</g>
<g>
	<path id="Combined_Shape-11" class="st5" d="M887,227l-7.4,4.2L887,227L887,227l7.4-4.2L887,227L887,227z"/>
	<path id="Combined_Shape-11_00000089551937936429656400000009855140796607511441_" class="st5" d="M887,227l-4.2-7.4L887,227
		L887,227l4.2,7.4L887,227L887,227z"/>
</g>
<g>
	<path id="Combined_Shape-11_00000129924293136039110380000008732165318438526359_" class="st5" d="M225.7,654.9l-7.4,4.2
		L225.7,654.9L225.7,654.9l7.4-4.2L225.7,654.9L225.7,654.9z"/>
	<path id="Combined_Shape-11_00000180330120908425554830000002415257627830226569_" class="st5" d="M225.7,654.9l-4.2-7.4
		L225.7,654.9L225.7,654.9l4.2,7.4L225.7,654.9L225.7,654.9z"/>
</g>
<g>
	<path id="Combined_Shape-11_00000039838974181728108000000009424774086120578488_" class="st5" d="M1129.5,775.6l-7.4,4.2
		L1129.5,775.6L1129.5,775.6l7.4-4.2L1129.5,775.6L1129.5,775.6z"/>
	<path id="Combined_Shape-11_00000151503092949383319330000004577811689938968762_" class="st5" d="M1129.5,775.6l-4.2-7.4
		L1129.5,775.6L1129.5,775.6l4.2,7.4L1129.5,775.6L1129.5,775.6z"/>
</g>
<g>
	<g transform="matrix(1, 0, 0, 1, 0, 0)">
		<g id="Polygon-2" transform="translate(26.35 21.52)">
			
				<linearGradient id="SVGID_1_" gradientUnits="userSpaceOnUse" x1="513.023" y1="-3.0084" x2="513.023" y2="-2.0084" gradientTransform="matrix(124.708 0 0 139.0492 -63603.5273 1005.8185)">
				<stop  offset="0" style="stop-color:#4C5096"/>
				<stop  offset="1" style="stop-color:#2B2F66"/>
			</linearGradient>
			<path class="st6" d="M366.5,589.7c5-2.9,11-2.9,16,0l46.4,26.8c5,2.9,8,8.1,8,13.9v53.5c0,5.7-3,11-8,13.9l-46.4,26.8
				c-5,2.9-11,2.9-16,0l-46.4-26.8c-5-2.9-8-8.1-8-13.9v-53.5c0-5.7,3-11,8-13.9L366.5,589.7z"/>
			
				<linearGradient id="SVGID_00000098209418718795755960000013267944960077243554_" gradientUnits="userSpaceOnUse" x1="513.0229" y1="-3.0085" x2="513.0229" y2="-2.0076" gradientTransform="matrix(124.7077 0 0 139.0496 -63603.3633 1005.8074)">
				<stop  offset="0" style="stop-color:#4C5096"/>
				<stop  offset="1" style="stop-color:#2B2F66"/>
			</linearGradient>
			<path style="fill:url(#SVGID_00000098209418718795755960000013267944960077243554_);" d="M374.5,589.5c-2.5,0-4.9,0.6-7,1.9
				l-46.4,26.8c-2.1,1.2-3.9,3-5.1,5.1s-1.9,4.5-1.9,7v53.5c0,2.5,0.6,4.9,1.9,7c1.2,2.1,3,3.9,5.1,5.1l46.4,26.8
				c2.1,1.2,4.5,1.9,7,1.9s4.9-0.6,7-1.9l46.4-26.8c2.1-1.2,3.9-3,5.1-5.1s1.9-4.5,1.9-7v-53.5c0-2.5-0.6-4.9-1.9-7s-3-3.9-5.1-5.1
				l-46.4-26.8C379.3,590.2,376.9,589.5,374.5,589.5 M374.5,587.5c2.8,0,5.5,0.7,8,2.1l46.4,26.8c5,2.9,8,8.1,8,13.9v53.5
				c0,5.7-3,11-8,13.9l-46.4,26.8c-5,2.9-11,2.9-16,0l-46.4-26.8c-5-2.9-8-8.1-8-13.9v-53.5c0-5.7,3-11,8-13.9l46.4-26.8
				C368.9,588.2,371.7,587.5,374.5,587.5z"/>
		</g>
	</g>
	<g id="Polygon-3" transform="translate(40.354 35.525)">
		<path class="st1" d="M354,588.5c3.7-2.1,8.3-2.1,12,0l37.8,21.8c3.7,2.1,6,6.1,6,10.4v43.6c0,4.3-2.3,8.2-6,10.4L366,696.5
			c-3.7,2.1-8.3,2.1-12,0l-37.8-21.8c-3.7-2.1-6-6.1-6-10.4v-43.6c0-4.3,2.3-8.2,6-10.4L354,588.5z"/>
		<path class="st4" d="M360,588.9c-1.8,0-3.5,0.5-5,1.3L317.2,612c-3.1,1.8-5,5.1-5,8.7v43.6c0,3.6,1.9,6.9,5,8.7l37.8,21.8
			c1.5,0.9,3.2,1.3,5,1.3s3.5-0.5,5-1.3l37.8-21.8c3.1-1.8,5-5.1,5-8.7v-43.6c0-3.6-1.9-6.9-5-8.7L365,590.2
			C363.4,589.4,361.7,588.9,360,588.9 M360,586.9c2.1,0,4.1,0.5,6,1.6l37.8,21.8c3.7,2.1,6,6.1,6,10.4v43.6c0,4.3-2.3,8.2-6,10.4
			L366,696.5c-3.7,2.1-8.3,2.1-12,0l-37.8-21.8c-3.7-2.1-6-6.1-6-10.4v-43.6c0-4.3,2.3-8.2,6-10.4l37.8-21.8
			C355.8,587.5,357.9,586.9,360,586.9z"/>
	</g>
	<g id="Combined_Shape-2_00000000219223807167742370000015143447354175945875_" transform="translate(689.354 3271.525)">
		<g transform="matrix(1, 0, 0, 1, -689.35, -3271.52)">
			
				<linearGradient id="Combined_Shape-3_00000147936241071868509060000008990181818861599918_" gradientUnits="userSpaceOnUse" x1="562.3218" y1="4.4675" x2="562.3218" y2="5.4675" gradientTransform="matrix(48.0029 0 0 48.0029 -26593.1992 439.1252)">
				<stop  offset="0" style="stop-color:#4C5096"/>
				<stop  offset="1" style="stop-color:#2B2F66"/>
			</linearGradient>
			
				<path id="Combined_Shape-3_00000098194466339323298510000002981184110327817887_" style="fill:url(#Combined_Shape-3_00000147936241071868509060000008990181818861599918_);" d="
				M416.6,700.6c-0.6-1.7-1.9-3.1-3.6-3.6c-0.7-0.2-1.1-1-0.9-1.8c0.1-0.4,0.5-0.7,0.9-0.9c1.7-0.6,3.1-1.9,3.6-3.6
				c0.2-0.7,1-1.1,1.8-0.9c0.4,0.1,0.7,0.5,0.9,0.9c0.6,1.7,1.9,3.1,3.6,3.6c0.7,0.2,1.1,1,0.9,1.8c-0.1,0.4-0.5,0.7-0.9,0.9
				c-1.7,0.6-3.1,1.9-3.6,3.6c-0.2,0.7-1,1.1-1.8,0.9C417,701.4,416.7,701,416.6,700.6z M381.9,700.6c-0.8-2.4-2.7-4.3-5.1-5.1
				c-0.7-0.2-1.2-1-0.9-1.8c0.1-0.4,0.5-0.8,0.9-0.9c2.4-0.8,4.3-2.7,5.1-5.1c0.2-0.7,1-1.2,1.8-0.9c0.4,0.1,0.8,0.5,0.9,0.9
				c0.8,2.4,2.7,4.3,5.1,5.1c0.7,0.2,1.2,1,0.9,1.8c-0.1,0.4-0.5,0.8-0.9,0.9c-2.4,0.8-4.3,2.7-5.1,5.1c-0.2,0.7-1,1.2-1.8,0.9
				C382.4,701.4,382,701,381.9,700.6z M391.4,677.5h16.8l-8.4,18.2L391.4,677.5z M411.3,677.5h7.2l-14.4,15.6L411.3,677.5z
				 M381.1,677.5h7.2l7.2,15.6L381.1,677.5z M411.3,674.7c-0.1-0.1-0.2-0.2-0.2-0.3l-0.1-0.1l-8.7-10.1h5c0.4,0,0.7,0.1,1,0.4
				l10.1,10.1L411.3,674.7z M392,674.7l7.8-9.1l7.8,9.1H392z M381.2,674.7l10.1-10.1c0.3-0.3,0.6-0.4,1-0.4h5l-8.7,10.1v0.1l0,0
				c-0.1,0.1-0.2,0.2-0.2,0.4L381.2,674.7L381.2,674.7z M415,667.4c-0.8-2.4-2.7-4.3-5.1-5.1c-0.7-0.2-1.2-1-0.9-1.8
				c0.1-0.4,0.5-0.8,0.9-0.9c2.4-0.8,4.3-2.7,5.1-5.1c0.2-0.7,1-1.2,1.8-0.9c0.4,0.1,0.8,0.5,0.9,0.9c0.8,2.4,2.7,4.3,5.1,5.1
				c0.7,0.2,1.2,1,0.9,1.8c-0.1,0.4-0.5,0.8-0.9,0.9c-2.4,0.8-4.3,2.7-5.1,5.1c-0.2,0.7-1,1.2-1.8,0.9
				C415.5,668.2,415.2,667.9,415,667.4L415,667.4z M380.4,664.5c-0.6-1.7-1.9-3.1-3.6-3.6c-0.7-0.2-1.1-1-0.9-1.8
				c0.1-0.4,0.5-0.8,0.9-0.9c1.7-0.6,3.1-1.9,3.6-3.6c0.2-0.7,1-1.1,1.8-0.9c0.4,0.1,0.8,0.5,0.9,0.9c0.6,1.7,1.9,3.1,3.6,3.6
				c0.7,0.2,1.1,1,0.9,1.8c-0.1,0.4-0.5,0.8-0.9,0.9c-1.7,0.6-3.1,1.9-3.6,3.6c-0.2,0.7-1,1.1-1.8,0.9
				C380.9,665.2,380.5,664.9,380.4,664.5L380.4,664.5z"/>
		</g>
		<g id="Combined_Shape-4_00000125597221210833032750000005853944481702089646_" transform="translate(-616 -3203)">
			
				<linearGradient id="SVGID_00000068642275971986435050000006986203713507404182_" gradientUnits="userSpaceOnUse" x1="416.1219" y1="4.9668" x2="415.1224" y2="4.9668" gradientTransform="matrix(48.0029 0 0 48.0029 -19624.5234 370.6051)">
				<stop  offset="0" style="stop-color:#5056A2"/>
				<stop  offset="1" style="stop-color:#E6606C"/>
			</linearGradient>
			<path style="fill:url(#SVGID_00000068642275971986435050000006986203713507404182_);" d="M343.2,632.1c-0.6-1.7-1.9-3.1-3.6-3.6
				c-0.7-0.2-1.1-1-0.9-1.8c0.1-0.4,0.5-0.7,0.9-0.9c1.7-0.6,3.1-1.9,3.6-3.6c0.2-0.7,1-1.1,1.8-0.9c0.4,0.1,0.7,0.5,0.9,0.9
				c0.6,1.7,1.9,3.1,3.6,3.6c0.7,0.2,1.1,1,0.9,1.8c-0.1,0.4-0.5,0.7-0.9,0.9c-1.7,0.6-3.1,1.9-3.6,3.6c-0.2,0.7-1,1.1-1.8,0.9
				C343.7,632.8,343.3,632.5,343.2,632.1z M308.6,632.1c-0.8-2.4-2.7-4.3-5.1-5.1c-0.7-0.2-1.2-1-0.9-1.8c0.1-0.4,0.5-0.8,0.9-0.9
				c2.4-0.8,4.3-2.7,5.1-5.1c0.2-0.7,1-1.2,1.8-0.9c0.4,0.1,0.8,0.5,0.9,0.9c0.8,2.4,2.7,4.3,5.1,5.1c0.7,0.2,1.2,1,0.9,1.8
				c-0.1,0.4-0.5,0.8-0.9,0.9c-2.4,0.8-4.3,2.7-5.1,5.1c-0.2,0.7-1,1.2-1.8,0.9C309,632.9,308.7,632.5,308.6,632.1z M318.1,609h16.8
				l-8.4,18.2L318.1,609z M338,609h7.2l-14.4,15.6L338,609z M307.8,609h7.2l7.2,15.6L307.8,609z M337.9,606.1
				c-0.1-0.1-0.2-0.2-0.2-0.3l-0.1-0.1l-8.7-10.1h5c0.4,0,0.7,0.1,1,0.4l10.1,10.1L337.9,606.1z M318.6,606.1l7.8-9.1l7.8,9.1H318.6
				z M307.8,606.1l10.1-10.1c0.3-0.3,0.6-0.4,1-0.4h5l-8.7,10.1v0.1l0,0c-0.1,0.1-0.2,0.2-0.2,0.4L307.8,606.1L307.8,606.1z
				 M341.7,598.9c-0.8-2.4-2.7-4.3-5.1-5.1c-0.7-0.2-1.2-1-0.9-1.8c0.1-0.4,0.5-0.8,0.9-0.9c2.4-0.8,4.3-2.7,5.1-5.1
				c0.2-0.7,1-1.2,1.8-0.9c0.4,0.1,0.8,0.5,0.9,0.9c0.8,2.4,2.7,4.3,5.1,5.1c0.7,0.2,1.2,1,0.9,1.8c-0.1,0.4-0.5,0.8-0.9,0.9
				c-2.4,0.8-4.3,2.7-5.1,5.1c-0.2,0.7-1,1.2-1.8,0.9C342.2,599.7,341.8,599.4,341.7,598.9L341.7,598.9z M307.1,595.9
				c-0.6-1.7-1.9-3.1-3.6-3.6c-0.7-0.2-1.1-1-0.9-1.8c0.1-0.4,0.5-0.8,0.9-0.9c1.7-0.6,3.1-1.9,3.6-3.6c0.2-0.7,1-1.1,1.8-0.9
				c0.4,0.1,0.8,0.5,0.9,0.9c0.6,1.7,1.9,3.1,3.6,3.6c0.7,0.2,1.1,1,0.9,1.8c-0.1,0.4-0.5,0.8-0.9,0.9c-1.7,0.6-3.1,1.9-3.6,3.6
				c-0.2,0.7-1,1.1-1.8,0.9C307.5,596.7,307.2,596.4,307.1,595.9L307.1,595.9z"/>
			
				<linearGradient id="SVGID_00000179628393583426158790000010001191001366533803_" gradientUnits="userSpaceOnUse" x1="416.1209" y1="4.9692" x2="415.1209" y2="4.9692" gradientTransform="matrix(47.9997 0 0 47.9997 -19623.168 370.5546)">
				<stop  offset="0" style="stop-color:#5056A2"/>
				<stop  offset="1" style="stop-color:#E6606C"/>
			</linearGradient>
			<path style="fill:url(#SVGID_00000179628393583426158790000010001191001366533803_);" d="M344.5,632.1c0.2,0,0.3-0.1,0.4-0.3
				c0.7-2,2.3-3.6,4.3-4.3c0.2-0.1,0.3-0.2,0.3-0.4s-0.1-0.3-0.3-0.4c-2-0.7-3.6-2.3-4.3-4.3c-0.1-0.2-0.2-0.3-0.4-0.3
				s-0.3,0.1-0.4,0.3c-0.7,2-2.3,3.6-4.3,4.3c-0.2,0.1-0.3,0.2-0.3,0.4s0.1,0.3,0.3,0.4c2,0.7,3.6,2.3,4.3,4.3
				C344.2,631.9,344.4,632.1,344.5,632.1 M309.9,632.1c0.2,0,0.3-0.1,0.4-0.3l0,0c0.9-2.7,3-4.8,5.7-5.7l0,0
				c0.2-0.1,0.3-0.2,0.3-0.4s-0.1-0.3-0.3-0.4l0,0c-2.7-0.9-4.8-3-5.7-5.7l0,0c-0.1-0.2-0.2-0.3-0.4-0.3c-0.2,0-0.3,0.1-0.4,0.3l0,0
				c-0.9,2.7-3,4.8-5.7,5.7l0,0c-0.2,0.1-0.3,0.2-0.3,0.4s0.1,0.3,0.3,0.4l0,0c2.7,0.9,4.8,3,5.7,5.7l0,0
				C309.6,631.9,309.7,632.1,309.9,632.1 M326.5,624.7l6.8-14.8h-13.7L326.5,624.7 M334.3,619.2l8.6-9.3h-4.3L334.3,619.2
				 M318.6,619.2l-4.3-9.3H310L318.6,619.2 M342.7,605.1l-8.4-8.4c-0.1-0.1-0.2-0.1-0.3-0.1h-2.9l7.3,8.5H342.7 M332.1,605.1
				l-5.7-6.6l-5.7,6.6H332.1 M314.5,605.1L314.5,605.1l7.3-8.5h-2.9c-0.1,0-0.2,0-0.3,0.1l-8.4,8.4H314.5 M343,598.9
				c0.2,0,0.3-0.1,0.4-0.3l0,0c0.9-2.7,3-4.8,5.7-5.7l0,0c0.1,0,0.3-0.2,0.3-0.4s-0.1-0.3-0.3-0.4l0,0c-2.7-0.9-4.8-3-5.7-5.7l0,0
				c-0.1-0.2-0.2-0.3-0.4-0.3c-0.2,0-0.3,0.1-0.4,0.3l0,0c-0.9,2.7-3,4.8-5.7,5.7l0,0c-0.2,0.1-0.3,0.2-0.3,0.4s0.1,0.3,0.3,0.4l0,0
				c2.7,0.9,4.8,3,5.7,5.7l0,0C342.7,598.8,342.9,598.9,343,598.9 M308.4,595.9c0.2,0,0.3-0.1,0.4-0.3c0.7-2,2.3-3.6,4.3-4.3
				c0.2-0.1,0.3-0.2,0.3-0.4s-0.1-0.3-0.3-0.4c-2-0.7-3.6-2.3-4.3-4.3c-0.1-0.2-0.2-0.3-0.4-0.3c-0.2,0-0.3,0.1-0.4,0.3
				c-0.7,2-2.3,3.6-4.3,4.3c-0.2,0.1-0.3,0.2-0.3,0.4s0.1,0.3,0.3,0.4c2,0.7,3.6,2.3,4.3,4.3C308.1,595.8,308.2,595.9,308.4,595.9
				 M344.5,633.1c-0.6,0-1.1-0.4-1.3-1c-0.6-1.7-1.9-3.1-3.6-3.6c-0.6-0.2-1-0.7-1-1.3s0.4-1.1,1-1.3c1.7-0.6,3.1-1.9,3.6-3.6
				c0.2-0.6,0.7-1,1.3-1c0.6,0,1.1,0.4,1.3,1c0.6,1.7,1.9,3.1,3.6,3.6c0.6,0.2,1,0.7,1,1.3s-0.4,1.1-1,1.3c-1.7,0.6-3.1,1.9-3.6,3.6
				C345.7,632.7,345.1,633.1,344.5,633.1z M309.9,633.1c-0.6,0-1.2-0.4-1.3-1c-0.8-2.4-2.7-4.3-5.1-5.1c-0.6-0.2-1-0.7-1-1.3
				s0.4-1.2,1-1.3c2.4-0.8,4.3-2.7,5.1-5.1c0.2-0.6,0.7-1,1.3-1c0.6,0,1.2,0.4,1.3,1c0.8,2.4,2.7,4.3,5.1,5.1c0.6,0.2,1,0.7,1,1.3
				s-0.4,1.2-1,1.3c-2.4,0.8-4.3,2.7-5.1,5.1C311.1,632.6,310.5,633.1,309.9,633.1z M326.5,627.1l-8.4-18.2h16.8L326.5,627.1z
				 M330.7,624.6l7.2-15.6h7.2L330.7,624.6z M322.2,624.6L307.8,609h7.2L322.2,624.6z M345.1,606.1h-7.2c-0.1-0.1-0.1-0.2-0.2-0.3
				l-0.1-0.1l-8.7-10.1h5c0.4,0,0.7,0.1,1,0.4L345.1,606.1z M334.3,606.1h-15.7l7.8-9.1L334.3,606.1z M315,606.1h-7.2l10.1-10.1
				c0.3-0.3,0.6-0.4,1-0.4h5l-8.7,10.2C315.1,605.9,315.1,606,315,606.1z M343,599.9c-0.6,0-1.2-0.4-1.3-1c-0.8-2.4-2.7-4.3-5.1-5.1
				c-0.6-0.2-1-0.7-1-1.3s0.4-1.2,1-1.3c2.4-0.8,4.3-2.7,5.1-5.1c0.2-0.6,0.7-1,1.3-1c0.6,0,1.2,0.4,1.3,1c0.8,2.4,2.7,4.3,5.1,5.1
				c0.6,0.2,1,0.7,1,1.3s-0.4,1.2-1,1.3c-2.4,0.8-4.3,2.7-5.1,5.1C344.2,599.5,343.7,599.9,343,599.9z M308.4,596.9
				c-0.6,0-1.1-0.4-1.3-1c-0.6-1.7-1.9-3.1-3.6-3.6c-0.6-0.2-1-0.7-1-1.3s0.4-1.1,1-1.3c1.7-0.6,3.1-1.9,3.6-3.6
				c0.2-0.6,0.7-1,1.3-1c0.6,0,1.1,0.4,1.3,1c0.6,1.7,1.9,3.1,3.6,3.6c0.6,0.2,1,0.7,1,1.3s-0.4,1.1-1,1.3c-1.7,0.6-3.1,1.9-3.6,3.6
				C309.5,596.5,309,596.9,308.4,596.9z"/>
		</g>
	</g>
</g>
<g>
	<g transform="matrix(1, 0, 0, 1, 0, 0)">
		<g id="Polygon-2_00000104672858834950625290000004140930186495005860_" transform="translate(26.35 21.52)">
			
				<linearGradient id="SVGID_00000085959042409761134420000000258407479810771363_" gradientUnits="userSpaceOnUse" x1="518.6253" y1="-5.8921" x2="518.6253" y2="-4.8921" gradientTransform="matrix(124.708 0 0 139.0492 -63603.5273 1005.8185)">
				<stop  offset="0" style="stop-color:#4C5096"/>
				<stop  offset="1" style="stop-color:#2B2F66"/>
			</linearGradient>
			<path style="fill:url(#SVGID_00000085959042409761134420000000258407479810771363_);" d="M1065.2,188.7c5-2.9,11-2.9,16,0
				l46.4,26.8c5,2.9,8,8.1,8,13.9v53.5c0,5.7-3,11-8,13.9l-46.4,26.8c-5,2.9-11,2.9-16,0l-46.4-26.8c-5-2.9-8-8.1-8-13.9v-53.5
				c0-5.7,3-11,8-13.9L1065.2,188.7z"/>
			
				<linearGradient id="SVGID_00000183941370559852130320000008700912074449503634_" gradientUnits="userSpaceOnUse" x1="518.6252" y1="-5.8922" x2="518.6252" y2="-4.8913" gradientTransform="matrix(124.7077 0 0 139.0496 -63603.3633 1005.8074)">
				<stop  offset="0" style="stop-color:#4C5096"/>
				<stop  offset="1" style="stop-color:#2B2F66"/>
			</linearGradient>
			<path style="fill:url(#SVGID_00000183941370559852130320000008700912074449503634_);" d="M1073.2,188.5c-2.5,0-4.9,0.6-7,1.9
				l-46.4,26.8c-2.1,1.2-3.9,3-5.1,5.1s-1.9,4.5-1.9,7v53.5c0,2.5,0.6,4.9,1.9,7c1.2,2.1,3,3.9,5.1,5.1l46.4,26.8
				c2.1,1.2,4.5,1.9,7,1.9s4.9-0.6,7-1.9l46.4-26.8c2.1-1.2,3.9-3,5.1-5.1s1.9-4.5,1.9-7v-53.5c0-2.5-0.6-4.9-1.9-7
				c-1.2-2.1-3-3.9-5.1-5.1l-46.4-26.8C1078,189.2,1075.6,188.5,1073.2,188.5 M1073.2,186.5c2.8,0,5.5,0.7,8,2.1l46.4,26.8
				c5,2.9,8,8.1,8,13.9v53.5c0,5.7-3,11-8,13.9l-46.4,26.8c-5,2.9-11,2.9-16,0l-46.4-26.8c-5-2.9-8-8.1-8-13.9v-53.5
				c0-5.7,3-11,8-13.9l46.4-26.8C1067.6,187.2,1070.4,186.5,1073.2,186.5z"/>
		</g>
	</g>
	<g id="Polygon-3_00000042711670693561633820000008095627520702847377_" transform="translate(40.354 35.525)">
		<path class="st1" d="M1052.7,187.5c3.7-2.1,8.3-2.1,12,0l37.8,21.8c3.7,2.1,6,6.1,6,10.4v43.6c0,4.3-2.3,8.2-6,10.4l-37.8,21.8
			c-3.7,2.1-8.3,2.1-12,0l-37.8-21.8c-3.7-2.1-6-6.1-6-10.4v-43.6c0-4.3,2.3-8.2,6-10.4L1052.7,187.5z"/>
		<path class="st13" d="M1058.7,187.9c-1.8,0-3.5,0.5-5,1.3l-37.8,21.8c-3.1,1.8-5,5.1-5,8.7v43.6c0,3.6,1.9,6.9,5,8.7l37.8,21.8
			c1.5,0.9,3.2,1.3,5,1.3s3.5-0.5,5-1.3l37.8-21.8c3.1-1.8,5-5.1,5-8.7v-43.6c0-3.6-1.9-6.9-5-8.7l-37.8-21.8
			C1062.2,188.4,1060.4,187.9,1058.7,187.9 M1058.7,185.9c2.1,0,4.1,0.5,6,1.6l37.8,21.8c3.7,2.1,6,6.1,6,10.4v43.6
			c0,4.3-2.3,8.2-6,10.4l-37.8,21.8c-3.7,2.1-8.3,2.1-12,0l-37.8-21.8c-3.7-2.1-6-6.1-6-10.4v-43.6c0-4.3,2.3-8.2,6-10.4l37.8-21.8
			C1054.5,186.4,1056.6,185.9,1058.7,185.9z"/>
	</g>
	<g id="Combined_Shape-2_00000142160789410350337630000013998537258831403155_" transform="translate(-139.646 4678.525)">
		<g transform="matrix(1, 0, 0, 1, 139.65, -4678.52)">
			
				<linearGradient id="Combined_Shape-3_00000160156669561938109830000013172526866907899568_" gradientUnits="userSpaceOnUse" x1="576.8759" y1="-3.6815" x2="576.8759" y2="-2.6815" gradientTransform="matrix(48.0002 0 0 45.0003 -26590.6543 416.1992)">
				<stop  offset="0" style="stop-color:#4C5096"/>
				<stop  offset="1" style="stop-color:#2B2F66"/>
			</linearGradient>
			
				<path id="Combined_Shape-3_00000069397725892380344480000007041883007008912535_" style="fill:url(#Combined_Shape-3_00000160156669561938109830000013172526866907899568_);" d="
				M1121.8,295.5l-7.5-1.5c-0.7-0.1-1.1-0.7-1.1-1.4v-0.5c2.2,0.8,4.6-0.4,5.4-2.6c0.2-0.4,0.2-0.9,0.2-1.3v-6.6l3.6,0.7
				c0.8,0.1,1.2,0.9,1.1,1.6c0,0.2-0.1,0.3-0.2,0.5l-2.6,3.9l2.6,5.1c0.4,0.7,0.1,1.5-0.6,1.9c-0.2,0.1-0.4,0.2-0.6,0.2
				C1122,295.6,1121.9,295.5,1121.8,295.5z M1075.7,293.5l2.6-5.1l-2.6-3.9c-0.4-0.6-0.2-1.5,0.4-1.9c0.2-0.1,0.3-0.2,0.5-0.2
				l3.6-0.7v6.5c0,2.3,1.9,4.2,4.2,4.2c0.5,0,1-0.1,1.4-0.2v0.5c0,0.7-0.5,1.2-1.1,1.4l-7.5,1.5c-0.1,0-0.2,0-0.3,0
				c-0.8,0-1.4-0.6-1.4-1.4C1075.5,293.9,1075.6,293.7,1075.7,293.5L1075.7,293.5z M1083.1,288.2v-8.9c0-0.6,0.4-1.1,1-1.3
				c10-3.5,21-3.5,31,0c0.6,0.2,1,0.7,1,1.3v8.9c0,0.8-0.6,1.4-1.4,1.4c-0.2,0-0.3,0-0.5-0.1c-9.4-3.3-19.7-3.3-29.1,0
				c-0.7,0.3-1.5-0.1-1.8-0.8C1083.1,288.5,1083,288.4,1083.1,288.2L1083.1,288.2z M1119.4,274.1l-3-1.4l-3,1.4
				c-0.4,0.2-1,0.1-1.4-0.1c-0.4-0.3-0.6-0.8-0.5-1.2l0.4-3.3l-2.2-2.4c-0.3-0.4-0.4-0.9-0.3-1.3c0.2-0.5,0.5-0.8,1-0.9l3.2-0.7
				l1.6-2.8c0.4-0.6,1.2-0.9,1.9-0.5c0.2,0.1,0.4,0.3,0.5,0.5l1.6,2.9l3.2,0.7c0.5,0.1,0.9,0.4,1,0.9c0.2,0.5,0,1-0.3,1.3l-2.2,2.4
				l0.4,3.3c0.1,0.5-0.2,1-0.5,1.2c-0.2,0.2-0.5,0.3-0.8,0.3C1119.8,274.2,1119.6,274.2,1119.4,274.1L1119.4,274.1z M1085.7,274.1
				l-3-1.4l-3,1.4c-0.4,0.2-1,0.1-1.4-0.1c-0.4-0.3-0.6-0.8-0.5-1.2l0.4-3.3l-2.2-2.4c-0.3-0.4-0.4-0.9-0.3-1.3
				c0.2-0.5,0.5-0.8,1-0.9l3.2-0.7l1.6-2.9c0.4-0.6,1.2-0.9,1.9-0.5c0.2,0.1,0.4,0.3,0.5,0.5l1.6,2.9l3.2,0.7c0.5,0.1,0.9,0.4,1,0.9
				s0,1-0.3,1.3l-2.2,2.4l0.4,3.3c0.1,0.7-0.5,1.4-1.2,1.5h-0.1C1086,274.2,1085.8,274.2,1085.7,274.1L1085.7,274.1z M1104.8,271.1
				l-5.3-2.4l-5.3,2.4c-0.5,0.2-1,0.2-1.4-0.1c-0.4-0.3-0.6-0.8-0.6-1.3l0.7-5.7l-3.9-4.2c-0.3-0.4-0.5-0.9-0.3-1.4s0.6-0.8,1.1-0.9
				l5.7-1.1l2.9-5c0.4-0.7,1.3-0.9,1.9-0.5c0.2,0.1,0.4,0.3,0.5,0.5l2.9,5l5.7,1.1c0.5,0.1,0.9,0.5,1.1,0.9c0.2,0.5,0,1-0.3,1.4
				l-3.9,4.2l0.7,5.7c0.1,0.5-0.2,1-0.6,1.3c-0.2,0.2-0.5,0.3-0.8,0.3C1105.2,271.2,1105,271.2,1104.8,271.1z"/>
		</g>
		<g id="Combined_Shape-4_00000160158046243177009180000004981424521483658906_" transform="translate(214 -4612)">
			
				<linearGradient id="SVGID_00000159448796012451101600000012450860181112411526_" gradientUnits="userSpaceOnUse" x1="428.6772" y1="-3.1784" x2="427.6772" y2="-3.1784" gradientTransform="matrix(48.0002 0 0 45.0003 -19527.375 349.6787)">
				<stop  offset="0" style="stop-color:#5056A2"/>
				<stop  offset="1" style="stop-color:#E6606C"/>
			</linearGradient>
			<path style="fill:url(#SVGID_00000159448796012451101600000012450860181112411526_);" d="M1047.5,229l-7.5-1.5
				c-0.7-0.1-1.1-0.7-1.1-1.4v-0.5c2.2,0.8,4.6-0.4,5.4-2.6c0.2-0.4,0.2-0.9,0.2-1.3v-6.5l3.6,0.7c0.8,0.1,1.2,0.9,1.1,1.6
				c0,0.2-0.1,0.3-0.2,0.5l-2.6,3.9l2.6,5.1c0.4,0.7,0.1,1.5-0.6,1.9c-0.2,0.1-0.4,0.2-0.6,0.2C1047.7,229,1047.6,229,1047.5,229z
				 M1001.3,227l2.6-5.1l-2.6-3.9c-0.4-0.6-0.2-1.5,0.4-1.9c0.2-0.1,0.3-0.2,0.5-0.2l3.6-0.7v6.5c0,2.3,1.9,4.2,4.2,4.2
				c0.5,0,1-0.1,1.4-0.2v0.5c0,0.7-0.5,1.2-1.1,1.4l-7.5,1.5c-0.1,0-0.2,0-0.3,0c-0.8,0-1.4-0.6-1.4-1.4
				C1001.2,227.4,1001.2,227.2,1001.3,227L1001.3,227z M1008.7,221.7v-8.9c0-0.6,0.4-1.1,1-1.3c10-3.5,21-3.5,31,0
				c0.6,0.2,1,0.7,1,1.3v8.9c0,0.8-0.6,1.4-1.4,1.4c-0.2,0-0.3,0-0.5-0.1c-9.4-3.3-19.7-3.3-29.1,0c-0.7,0.3-1.5-0.1-1.8-0.8
				C1008.7,222,1008.7,221.8,1008.7,221.7L1008.7,221.7z M1045.1,207.6l-3-1.4l-3,1.4c-0.4,0.2-1,0.1-1.4-0.1
				c-0.4-0.3-0.6-0.8-0.5-1.2l0.4-3.3l-2.2-2.4c-0.3-0.4-0.4-0.9-0.3-1.3c0.2-0.5,0.5-0.8,1-0.9l3.2-0.7l1.6-2.8
				c0.4-0.6,1.2-0.9,1.9-0.5c0.2,0.1,0.4,0.3,0.5,0.5l1.6,2.9l3.2,0.7c0.5,0.1,0.9,0.4,1,0.9c0.2,0.5,0,1-0.3,1.3l-2.2,2.4l0.4,3.3
				c0.1,0.5-0.2,1-0.5,1.2c-0.2,0.2-0.5,0.3-0.8,0.3C1045.4,207.7,1045.2,207.7,1045.1,207.6L1045.1,207.6z M1011.3,207.6l-3-1.4
				l-3,1.4c-0.4,0.2-1,0.1-1.4-0.1c-0.4-0.3-0.6-0.8-0.5-1.2l0.4-3.3l-2.2-2.4c-0.3-0.4-0.4-0.9-0.3-1.3c0.2-0.5,0.5-0.8,1-0.9
				l3.2-0.7l1.6-2.9c0.4-0.6,1.2-0.9,1.9-0.5c0.2,0.1,0.4,0.3,0.5,0.5l1.6,2.9l3.2,0.7c0.5,0.1,0.9,0.4,1,0.9s0,1-0.3,1.3l-2.2,2.4
				l0.4,3.3c0.1,0.7-0.5,1.4-1.2,1.5h-0.1C1011.7,207.7,1011.5,207.7,1011.3,207.6L1011.3,207.6z M1030.5,204.6l-5.3-2.4l-5.3,2.4
				c-0.5,0.2-1,0.2-1.4-0.1s-0.6-0.8-0.6-1.3l0.7-5.7l-3.9-4.2c-0.3-0.4-0.5-0.9-0.3-1.4s0.6-0.8,1.1-0.9l5.7-1.1l2.9-5
				c0.4-0.7,1.3-0.9,1.9-0.5c0.2,0.1,0.4,0.3,0.5,0.5l2.9,5l5.7,1.1c0.5,0.1,0.9,0.5,1.1,0.9c0.2,0.5,0,1-0.3,1.4l-3.9,4.2l0.7,5.7
				c0.1,0.5-0.2,1-0.6,1.3c-0.2,0.2-0.5,0.3-0.8,0.3C1030.9,204.7,1030.6,204.7,1030.5,204.6z"/>
			
				<linearGradient id="SVGID_00000044155213545596271300000016239125138472023720_" gradientUnits="userSpaceOnUse" x1="428.6773" y1="-3.1792" x2="427.6767" y2="-3.1792" gradientTransform="matrix(48 0 0 44.9996 -19527.2949 349.7141)">
				<stop  offset="0" style="stop-color:#5056A2"/>
				<stop  offset="1" style="stop-color:#E6606C"/>
			</linearGradient>
			<path style="fill:url(#SVGID_00000044155213545596271300000016239125138472023720_);" d="M1047.8,228c0.2,0,0.3-0.2,0.3-0.2
				c0.1-0.1,0.1-0.2,0-0.4l-2.7-5.2c-0.2,2.3-2,4.1-4.2,4.5L1047.8,228C1047.7,228,1047.7,228,1047.8,228L1047.8,228 M1002.6,228
				L1002.6,228L1002.6,228l6.5-1.3c-2.2-0.4-3.9-2.3-4.2-4.5l-2.7,5.2c-0.1,0.2,0,0.3,0,0.4C1002.3,227.9,1002.4,228,1002.6,228
				 M1010.1,222.1L1010.1,222.1L1010.1,222.1c4.9-1.7,9.9-2.5,15-2.5s10.1,0.8,14.9,2.5l0,0h0.1c0.2,0,0.4-0.2,0.4-0.4v-8.9
				c0-0.2-0.1-0.3-0.3-0.4l0,0c-4.9-1.7-10-2.5-15.2-2.5s-10.3,0.9-15.2,2.5l0,0c-0.2,0.1-0.3,0.2-0.3,0.4v8.9
				C1009.7,221.9,1009.9,222.1,1010.1,222.1 M1045.4,221.5l2.7-4.1c0.1-0.1,0.1-0.3,0-0.4c0-0.1-0.1-0.2-0.3-0.2l-2.4-0.5
				L1045.4,221.5 M1004.9,221.5v-5.1l-2.4,0.5c-0.2,0-0.3,0.2-0.3,0.2c0,0.1-0.1,0.2,0,0.4L1004.9,221.5 M1011.9,206.7
				c0.1,0,0.1,0,0.2-0.1s0.2-0.2,0.1-0.3l-0.4-3.7l2.5-2.8c0.1-0.1,0.1-0.2,0.1-0.3s-0.1-0.2-0.3-0.2l-3.7-0.7l-1.9-3.2
				c-0.1-0.1-0.2-0.2-0.3-0.2c-0.1,0-0.2,0.1-0.3,0.2l-1.9,3.2l-3.7,0.7c-0.1,0-0.2,0.1-0.3,0.2c0,0.1,0,0.2,0.1,0.3l2.5,2.8
				l-0.4,3.7c0,0.1,0,0.2,0.1,0.3s0.2,0.1,0.4,0l3.4-1.5l3.4,1.6C1011.7,206.7,1011.8,206.7,1011.9,206.7 M1045.6,206.7
				c0.1,0,0.1,0,0.2-0.1s0.2-0.2,0.1-0.3l-0.4-3.7l2.5-2.8c0.1-0.1,0.1-0.2,0.1-0.3s-0.1-0.2-0.3-0.2l-3.7-0.7l-1.9-3.2
				c-0.1-0.1-0.2-0.2-0.3-0.2c-0.1,0-0.2,0.1-0.3,0.2l-1.9,3.2l-3.7,0.7c-0.1,0-0.2,0.1-0.3,0.2c0,0.1,0,0.2,0.1,0.3l2.5,2.8
				l-0.4,3.7c0,0.1,0,0.2,0.1,0.3s0.2,0.1,0.4,0l3.4-1.5l3.4,1.6C1045.5,206.7,1045.6,206.7,1045.6,206.7 M1031.1,203.7
				c0.1,0,0.2,0,0.2-0.1c0.1-0.1,0.2-0.2,0.2-0.4l-0.7-6.2l4.2-4.6c0.1-0.1,0.1-0.2,0.1-0.4c0-0.1-0.2-0.2-0.3-0.3l-6.1-1.2
				l-3.1-5.4c-0.1-0.1-0.2-0.2-0.4-0.2s-0.3,0.1-0.4,0.2l-3.1,5.4l-6.1,1.2c-0.1,0-0.3,0.1-0.3,0.3c0,0.1,0,0.3,0.1,0.4l4.2,4.6
				l-0.7,6.2c0,0.1,0,0.3,0.2,0.4c0.1,0.1,0.2,0.1,0.2,0.1c0.1,0,0.1,0,0.2,0l5.7-2.6l5.7,2.6C1030.9,203.7,1031,203.7,1031.1,203.7
				 M1047.8,229L1047.8,229c-0.1,0-0.2,0-0.3,0l-7.5-1.5c-0.7-0.1-1.1-0.7-1.1-1.4v-0.5c0.5,0.2,0.9,0.2,1.4,0.2
				c2.3,0,4.2-1.9,4.2-4.2v-6.5l3.6,0.7c1,0.2,1.4,1.3,0.9,2.1l-2.6,3.9l2.6,5.1C1049.5,228,1048.8,229,1047.8,229z M1002.6,229
				c-1,0-1.7-1.1-1.2-2l2.6-5.1l-2.6-3.9c-0.5-0.8-0.1-1.9,0.9-2.1l3.6-0.7v6.5c0,2.3,1.9,4.2,4.2,4.2c0.5,0,1-0.1,1.4-0.2v0.5
				c0,0.7-0.5,1.2-1.1,1.4l-7.5,1.5C1002.8,229,1002.7,229,1002.6,229z M1010.1,223.1L1010.1,223.1c-0.7,0-1.4-0.6-1.4-1.4v-8.9
				c0-0.6,0.4-1.1,1-1.3c5-1.7,10.2-2.6,15.5-2.6s10.5,0.9,15.5,2.6c0.6,0.2,1,0.7,1,1.3v8.9c0,1-1,1.6-1.9,1.3
				c-4.7-1.6-9.6-2.4-14.6-2.4s-9.9,0.8-14.6,2.4C1010.4,223,1010.3,223.1,1010.1,223.1z M1045.6,207.7L1045.6,207.7
				c-0.3,0-0.6-0.1-0.6-0.1l-3-1.4l-3,1.4c-0.4,0.2-1,0.1-1.4-0.1c-0.4-0.3-0.6-0.8-0.5-1.2l0.4-3.3l-2.2-2.4
				c-0.3-0.4-0.4-0.9-0.3-1.3c0.2-0.5,0.5-0.8,1-0.9l3.2-0.7l1.6-2.9c0.2-0.4,0.7-0.7,1.2-0.7s0.9,0.3,1.2,0.7l1.6,2.9l3.2,0.7
				c0.5,0.1,0.9,0.4,1,0.9c0.2,0.5,0,1-0.3,1.3l-2.2,2.4l0.4,3.3c0.1,0.5-0.2,0.9-0.5,1.2C1046.1,207.6,1045.9,207.7,1045.6,207.7z
				 M1011.9,207.7L1011.9,207.7c-0.3,0-0.6-0.1-0.6-0.1l-3-1.4l-3,1.4c-0.4,0.2-1,0.1-1.4-0.1c-0.4-0.3-0.6-0.8-0.5-1.2l0.4-3.3
				l-2.2-2.4c-0.3-0.4-0.4-0.9-0.3-1.3c0.2-0.5,0.5-0.8,1-0.9l3.2-0.7l1.6-2.9c0.2-0.4,0.7-0.7,1.2-0.7s0.9,0.3,1.2,0.7l1.6,2.9
				l3.2,0.7c0.5,0.1,0.9,0.4,1,0.9s0,1-0.3,1.3l-2.2,2.4l0.4,3.3c0.1,0.5-0.2,0.9-0.5,1.2C1012.4,207.6,1012.1,207.7,1011.9,207.7z
				 M1031.1,204.7L1031.1,204.7c-0.3,0-0.6-0.1-0.6-0.1l-5.3-2.4l-5.3,2.4c-0.5,0.2-1,0.2-1.4-0.1s-0.6-0.8-0.6-1.3l0.7-5.7
				l-3.9-4.2c-0.3-0.4-0.5-0.9-0.3-1.4s0.6-0.8,1.1-0.9l5.7-1.1l2.9-5c0.2-0.4,0.7-0.7,1.2-0.7s1,0.3,1.2,0.7l2.9,5l5.7,1.1
				c0.5,0.1,0.9,0.5,1.1,0.9c0.2,0.5,0,1-0.3,1.4l-3.9,4.2l0.7,5.7c0.1,0.5-0.2,1-0.6,1.3C1031.6,204.7,1031.3,204.7,1031.1,204.7z"
				/>
		</g>
	</g>
</g>
<g>
	<g transform="matrix(1, 0, 0, 1, 0, 0)">
		<g id="Polygon-2_00000034787191010833567640000015957844914758325639_" transform="translate(135 21.52)">
			
				<linearGradient id="SVGID_00000008831738126423240840000014338049464252377757_" gradientUnits="userSpaceOnUse" x1="292.7268" y1="-6.5487" x2="292.7268" y2="-5.5487" gradientTransform="matrix(124.708 0 0 139.0492 -36504.4766 1005.8185)">
				<stop  offset="0" style="stop-color:#4C5096"/>
				<stop  offset="1" style="stop-color:#2B2F66"/>
			</linearGradient>
			<path style="fill:url(#SVGID_00000008831738126423240840000014338049464252377757_);" d="M-7.1,97.4c5-2.9,11-2.9,16,0l46.4,26.8
				c5,2.9,8,8.1,8,13.9v53.5c0,5.7-3,11-8,13.9L8.9,232.1c-5,2.9-11,2.9-16,0l-46.4-26.8c-5-2.9-8-8.1-8-13.9V138c0-5.7,3-11,8-13.9
				L-7.1,97.4z"/>
			
				<linearGradient id="SVGID_00000066497257811602003060000008310822601538710963_" gradientUnits="userSpaceOnUse" x1="292.7268" y1="-6.5488" x2="292.7268" y2="-5.5486" gradientTransform="matrix(124.7077 0 0 139.0496 -36504.3828 1005.8074)">
				<stop  offset="0" style="stop-color:#4C5096"/>
				<stop  offset="1" style="stop-color:#2B2F66"/>
			</linearGradient>
			<path style="fill:url(#SVGID_00000066497257811602003060000008310822601538710963_);" d="M0.9,97.2c-2.5,0-4.9,0.6-7,1.9
				l-46.4,26.8c-2.1,1.2-3.9,3-5.1,5.1c-1.2,2.1-1.9,4.5-1.9,7v53.5c0,2.5,0.6,4.9,1.9,7s3,3.9,5.1,5.1l46.4,26.8
				c2.1,1.2,4.5,1.9,7,1.9s4.9-0.6,7-1.9l46.4-26.8c2.1-1.2,3.9-3,5.1-5.1c1.2-2.1,1.9-4.5,1.9-7V138c0-2.5-0.6-4.9-1.9-7
				c-1.2-2.1-3-3.9-5.1-5.1L7.9,99.1C5.8,97.9,3.3,97.2,0.9,97.2 M0.9,95.2c2.8,0,5.5,0.7,8,2.1l46.4,26.8c5,2.9,8,8.1,8,13.9v53.5
				c0,5.7-3,11-8,13.9L8.9,232.1c-5,2.9-11,2.9-16,0l-46.4-26.8c-5-2.9-8-8.1-8-13.9V138c0-5.7,3-11,8-13.9l46.4-26.8
				C-4.6,95.9-1.9,95.2,0.9,95.2z"/>
		</g>
	</g>
	<g id="Polygon-3_00000081630802079666394050000007632128669911934089_" transform="translate(149 35.525)">
		<path class="st1" d="M-19.6,96.2c3.7-2.1,8.3-2.1,12,0L30.2,118c3.7,2.1,6,6.1,6,10.4V172c0,4.3-2.3,8.2-6,10.4l-37.8,21.8
			c-3.7,2.1-8.3,2.1-12,0l-37.8-21.8c-3.7-2.1-6-6.1-6-10.4v-43.6c0-4.3,2.3-8.2,6-10.4L-19.6,96.2z"/>
		<path class="st19" d="M-13.6,96.6c-1.8,0-3.5,0.5-5,1.3l-37.8,21.8c-3.1,1.8-5,5.1-5,8.7V172c0,3.6,1.9,6.9,5,8.7l37.8,21.8
			c1.5,0.9,3.2,1.3,5,1.3s3.5-0.5,5-1.3l37.8-21.8c3.1-1.8,5-5.1,5-8.7v-43.6c0-3.6-1.9-6.9-5-8.7L-8.6,97.9
			C-10.1,97.1-11.9,96.6-13.6,96.6 M-13.6,94.6c2.1,0,4.1,0.5,6,1.6L30.2,118c3.7,2.1,6,6.1,6,10.4V172c0,4.3-2.3,8.2-6,10.4
			l-37.8,21.8c-3.7,2.1-8.3,2.1-12,0l-37.8-21.8c-3.7-2.1-6-6.1-6-10.4v-43.6c0-4.3,2.3-8.2,6-10.4l37.8-21.8
			C-17.8,95.1-15.7,94.6-13.6,94.6z"/>
	</g>
	<g id="Combined_Shape-2_00000109717785312893940200000014853447479992944291_" transform="translate(-31 4358.525)">
		<g transform="matrix(1, 0, 0, 1, 31, -4358.52)">
			
				<linearGradient id="Combined_Shape-3_00000163033233628232350930000001041414045272096927_" gradientUnits="userSpaceOnUse" x1="554.5455" y1="-5.787" x2="554.5455" y2="-4.787" gradientTransform="matrix(48 0 0 48 -26482.2832 440.0781)">
				<stop  offset="0" style="stop-color:#4C5096"/>
				<stop  offset="1" style="stop-color:#2B2F66"/>
			</linearGradient>
			
				<path id="Combined_Shape-3_00000013156711462598918120000011082515883782894523_" style="fill:url(#Combined_Shape-3_00000163033233628232350930000001041414045272096927_);" d="
				M152.2,209l-5.1-5.1l6.5-6.5l5.1,5.1l0,0c1.7,1.8,1.6,4.6-0.2,6.3c-0.9,0.9-2.2,1.4-3.5,1.4C153.9,210.3,152.9,209.8,152.2,209z
				 M113.3,208.8c-1.8-1.7-1.9-4.5-0.2-6.3l0,0l5.1-5.1l6.5,6.5l-5.1,5.1c-0.7,0.8-1.8,1.2-2.9,1.2
				C115.5,210.2,114.2,209.7,113.3,208.8z M138.5,202.8c-1.6-1.6-1.6-4.1,0-5.7l8.2-8.2c1.6-1.6,4.1-1.6,5.7,0s1.6,4.1,0,5.7
				l-8.2,8.2C142.6,204.3,140.1,204.4,138.5,202.8L138.5,202.8L138.5,202.8z M127.6,202.8l-8.2-8.2c-1.6-1.6-1.6-4.1,0-5.7
				s4.1-1.6,5.7,0l0,0l8.2,8.2c1.6,1.5,1.6,4.1,0.1,5.7s-4.1,1.6-5.7,0.1C127.7,202.9,127.6,202.8,127.6,202.8L127.6,202.8z
				 M126.4,186.3l23.6-23.6c0.3-0.3,0.6-0.4,1-0.4h7.5c0.8,0,1.4,0.6,1.4,1.4l0,0v7.5c0,0.4-0.1,0.7-0.4,1l-23.6,23.6L126.4,186.3z
				 M112.3,172.2c-0.3-0.3-0.4-0.6-0.4-1v-7.5c0-0.8,0.6-1.4,1.4-1.4l0,0h7.5c0.4,0,0.7,0.1,1,0.4l12.1,12.1l-9.5,9.5L112.3,172.2z"
				/>
		</g>
		<g id="Combined_Shape-4_00000011715199375106967150000013322706340072622488_" transform="translate(214 -4289)">
			
				<linearGradient id="SVGID_00000110442816825600397200000013110945087702250883_" gradientUnits="userSpaceOnUse" x1="189.0457" y1="-5.2877" x2="188.0451" y2="-5.2877" gradientTransform="matrix(48 0 0 48 -9097.2803 370.5586)">
				<stop  offset="0" style="stop-color:#5056A2"/>
				<stop  offset="1" style="stop-color:#E6606C"/>
			</linearGradient>
			<path style="fill:url(#SVGID_00000110442816825600397200000013110945087702250883_);" d="M-30.8,139.5l-5.1-5.1l6.5-6.5l5.1,5.1
				l0,0c1.7,1.8,1.6,4.6-0.2,6.3c-0.9,0.9-2.2,1.4-3.5,1.4C-29.1,140.7-30.1,140.3-30.8,139.5z M-69.7,139.3
				c-1.8-1.7-1.9-4.5-0.2-6.3l0,0l5.1-5.1l6.5,6.5l-5.1,5.1c-0.7,0.8-1.8,1.2-2.9,1.2C-67.5,140.7-68.8,140.2-69.7,139.3z
				 M-44.5,133.3c-1.6-1.6-1.6-4.1,0-5.7l8.2-8.2c1.6-1.6,4.1-1.6,5.7,0s1.6,4.1,0,5.7l-8.2,8.2C-40.4,134.8-42.9,134.8-44.5,133.3
				L-44.5,133.3L-44.5,133.3z M-55.4,133.3l-8.2-8.2c-1.6-1.6-1.6-4.1,0-5.7c1.6-1.6,4.1-1.6,5.7,0l0,0l8.2,8.2
				c1.6,1.5,1.6,4.1,0.1,5.7c-1.5,1.6-4.1,1.6-5.7,0.1C-55.3,133.3-55.4,133.3-55.4,133.3L-55.4,133.3z M-56.6,116.7L-33,93.2
				c0.3-0.3,0.6-0.4,1-0.4h7.5c0.8,0,1.4,0.6,1.4,1.4l0,0v7.5c0,0.4-0.1,0.7-0.4,1l-23.6,23.6L-56.6,116.7z M-70.7,102.7
				c-0.3-0.3-0.4-0.6-0.4-1v-7.5c0-0.8,0.6-1.4,1.4-1.4l0,0h7.5c0.4,0,0.7,0.1,1,0.4l12.1,12.1l-9.5,9.5L-70.7,102.7z"/>
			
				<linearGradient id="SVGID_00000127742075213079106810000008359088491364124064_" gradientUnits="userSpaceOnUse" x1="189.0454" y1="-5.2882" x2="188.0454" y2="-5.2882" gradientTransform="matrix(48.0003 0 0 47.9999 -9097.3369 370.5809)">
				<stop  offset="0" style="stop-color:#5056A2"/>
				<stop  offset="1" style="stop-color:#E6606C"/>
			</linearGradient>
			<path style="fill:url(#SVGID_00000127742075213079106810000008359088491364124064_);" d="M-28,139.7c1.2,0,2.3-0.7,2.8-1.1l0,0
				c0.7-0.7,1.1-1.7,1.1-2.7c0-0.6-0.1-1.4-0.9-2.2l0,0c0,0-2.5-2.5-4.4-4.4l-5.1,5.1l4.4,4.4C-29.5,139.4-28.8,139.7-28,139.7
				 M-66.2,139.7c0.8,0,1.5-0.3,2.1-0.9l4.4-4.4l-5.1-5.1c-1.9,1.9-4.4,4.4-4.4,4.4l0,0c-0.7,0.8-0.9,1.6-0.9,2.2c0,1,0.4,2,1.1,2.7
				l0,0C-68.5,139.1-67.4,139.7-66.2,139.7L-66.2,139.7 M-41.6,133.4c0.8,0,1.6-0.3,2.1-0.9l8.2-8.2c1.2-1.2,1.2-3.1,0-4.3
				c-0.6-0.6-1.3-0.9-2.1-0.9s-1.6,0.3-2.1,0.9l-8.2,8.2c-1.2,1.2-1.2,3.1,0,4.3C-43.2,133.1-42.4,133.4-41.6,133.4 M-52.6,133.4
				c0.8,0,1.6-0.3,2.1-0.9c1.2-1.2,1.2-3.1,0-4.3l-8.2-8.2c-0.6-0.6-1.3-0.9-2.1-0.9s-1.6,0.3-2.1,0.9c-1.2,1.2-1.2,3.1,0,4.3
				l8.2,8.2C-54.1,133.1-53.4,133.4-52.6,133.4 M-47.1,124.8l22.9-22.9c0.1-0.1,0.1-0.2,0.1-0.3v-7.5c0-0.2-0.2-0.4-0.4-0.4H-32
				c-0.1,0-0.2,0-0.3,0.1l-22.9,22.9L-47.1,124.8 M-58.6,113.3l8.1-8.1l-11.4-11.4c-0.1-0.1-0.2-0.1-0.3-0.1h-7.5
				c-0.2,0-0.4,0.2-0.4,0.4v7.5c0,0.1,0,0.2,0.1,0.3L-58.6,113.3 M-28,140.7c-0.9,0-2-0.3-2.9-1.2l-5.1-5.1l6.5-6.5
				c1.9,1.9,5.1,5.1,5.1,5.1l0,0c1.9,1.9,1.4,4.8-0.2,6.3C-25.1,139.9-26.5,140.7-28,140.7z M-66.2,140.7L-66.2,140.7
				c-1.5,0-2.8-0.8-3.5-1.4c-1.5-1.5-2.1-4.4-0.2-6.3l0,0c0,0,3.2-3.2,5.1-5.1l6.5,6.5l-5.1,5.1C-64.3,140.4-65.3,140.7-66.2,140.7z
				 M-41.6,134.4c-1,0-2-0.4-2.8-1.2c-1.6-1.6-1.6-4.1,0-5.7l8.2-8.2c1.6-1.6,4.1-1.6,5.7,0c1.6,1.6,1.6,4.1,0,5.7l-8.2,8.2
				C-39.6,134-40.6,134.4-41.6,134.4z M-52.6,134.4c-1,0-2-0.4-2.8-1.2l-8.2-8.2c-1.6-1.6-1.6-4.1,0-5.7s4.1-1.6,5.7,0l8.2,8.2
				c1.6,1.6,1.6,4.1,0,5.7C-50.5,134-51.6,134.4-52.6,134.4z M-47.1,126.3l-9.5-9.5L-33,93.2c0.3-0.3,0.6-0.4,1-0.4h7.5
				c0.8,0,1.4,0.6,1.4,1.4v7.5c0,0.4-0.1,0.7-0.4,1L-47.1,126.3z M-58.6,114.8l-12.1-12.1c-0.3-0.3-0.4-0.6-0.4-1v-7.5
				c0-0.8,0.6-1.4,1.4-1.4h7.5c0.4,0,0.7,0.1,1,0.4l12.1,12.1L-58.6,114.8z"/>
		</g>
	</g>
</g>
<g id="Group_1" transform="translate(-89.646 -5034.475)">
	<g transform="matrix(1, 0, 0, 1, 89.65, 5034.48)">
		<g id="Polygon-2_00000017488012218592675390000011870252770630192056_" transform="translate(26.35 21.52)">
			
				<linearGradient id="SVGID_00000116926693035543114950000002793553763111733661_" gradientUnits="userSpaceOnUse" x1="517.5508" y1="-3.537" x2="517.5508" y2="-2.537" gradientTransform="matrix(124.708 0 0 139.0492 -63602.5312 1005.8177)">
				<stop  offset="0" style="stop-color:#4C5096"/>
				<stop  offset="1" style="stop-color:#2B2F66"/>
			</linearGradient>
			<path style="fill:url(#SVGID_00000116926693035543114950000002793553763111733661_);" d="M932.1,516.2c5-2.9,11-2.9,16,0
				l46.4,26.8c5,2.9,8,8.1,8,13.9v53.5c0,5.7-3,11-8,13.9l-46.4,26.8c-5,2.9-11,2.9-16,0l-46.3-26.9c-5-2.9-8-8.1-8-13.9v-53.5
				c0-5.7,3-11,8-13.9L932.1,516.2z"/>
			
				<linearGradient id="SVGID_00000181060163540371597940000013292066676446678410_" gradientUnits="userSpaceOnUse" x1="517.5507" y1="-3.5364" x2="517.5507" y2="-2.5355" gradientTransform="matrix(124.7077 0 0 139.0496 -63602.3672 1005.8066)">
				<stop  offset="0" style="stop-color:#4C5096"/>
				<stop  offset="1" style="stop-color:#2B2F66"/>
			</linearGradient>
			<path style="fill:url(#SVGID_00000181060163540371597940000013292066676446678410_);" d="M940.1,516.1c-2.5,0-4.9,0.6-7,1.9
				l-46.4,26.8c-2.1,1.2-3.9,3-5.1,5.1c-1.2,2.1-1.9,4.5-1.9,7v53.5c0,2.5,0.6,4.9,1.9,7c1.2,2.1,3,3.9,5.1,5.1l46.4,26.8
				c2.1,1.2,4.5,1.9,7,1.9s4.9-0.6,7-1.9l46.4-26.8c2.1-1.2,3.9-3,5.1-5.1c1.2-2.1,1.9-4.5,1.9-7v-53.5c0-2.5-0.6-4.9-1.9-7
				c-1.2-2.1-3-3.9-5.1-5.1L947.1,518C945,516.7,942.6,516.1,940.1,516.1 M940.1,514.1c2.8,0,5.5,0.7,8,2.1l46.4,26.8
				c5,2.9,8,8.1,8,13.9v53.5c0,5.7-3,11-8,13.9l-46.4,26.8c-5,2.9-11,2.9-16,0l-46.3-26.9c-5-2.9-8-8.1-8-13.9v-53.5
				c0-5.7,3-11,8-13.9l46.4-26.8C934.6,514.8,937.4,514.1,940.1,514.1z"/>
		</g>
	</g>
	<g id="Polygon-3_00000150790364678245429680000005852623217647731880_" transform="translate(130 5070)">
		<path class="st1" d="M919.6,515.1c3.7-2.1,8.3-2.1,12,0l37.8,21.8c3.7,2.1,6,6.1,6,10.4v43.6c0,4.3-2.3,8.2-6,10.4l-37.8,21.8
			c-3.7,2.1-8.3,2.1-12,0l-37.8-21.8c-3.7-2.1-6-6.1-6-10.4v-43.6c0-4.3,2.3-8.2,6-10.4L919.6,515.1z"/>
		<path class="st25" d="M925.6,515.4c-1.8,0-3.5,0.5-5,1.3l-37.8,21.8c-3.1,1.8-5,5.1-5,8.7v43.6c0,3.6,1.9,6.9,5,8.7l37.8,21.8
			c1.5,0.9,3.2,1.3,5,1.3s3.5-0.5,5-1.3l37.8-21.8c3.1-1.8,5-5.1,5-8.7v-43.6c0-3.6-1.9-6.9-5-8.7l-37.8-21.8
			C929.1,515.9,927.4,515.4,925.6,515.4 M925.6,513.4c2.1,0,4.1,0.5,6,1.6l37.8,21.8c3.7,2.1,6,6.1,6,10.4v43.6
			c0,4.3-2.3,8.2-6,10.4L931.6,623c-3.7,2.1-8.3,2.1-12,0l-37.8-21.8c-3.7-2.1-6-6.1-6-10.4v-43.6c0-4.3,2.3-8.2,6-10.4l37.8-21.8
			C921.5,514,923.5,513.4,925.6,513.4z"/>
	</g>
	<g id="Combined_Shape-2_00000173141550684051163580000011792386821146173615_" transform="translate(-50 9073)">
		<g transform="matrix(1, 0, 0, 1, 139.65, -4038.52)">
			
				<linearGradient id="Combined_Shape-3_00000016781983667538122120000010549391030402297768_" gradientUnits="userSpaceOnUse" x1="574.1061" y1="8.8703" x2="574.1061" y2="9.8703" gradientTransform="matrix(48 0 0 30 -26590.5449 323.9902)">
				<stop  offset="0" style="stop-color:#4C5096"/>
				<stop  offset="1" style="stop-color:#2B2F66"/>
			</linearGradient>
			
				<path id="Combined_Shape-3_00000041285427627051139470000011352589797963648664_" style="fill:url(#Combined_Shape-3_00000016781983667538122120000010549391030402297768_);" d="
				M975.9,620.1c-1.6,0-3.1-0.6-4.2-1.7l-3-3c-1.2-1.2-3.2-1.2-4.4,0l0,0l-3,3c-1.1,1.1-2.6,1.7-4.2,1.7h-8.7
				c-3.3,0-5.9-2.7-5.9-5.9v-18.1c0-3.3,2.7-5.9,5.9-5.9h36.2c3.3,0,5.9,2.7,5.9,5.9v18.1c0,3.3-2.7,5.9-5.9,5.9H975.9z
				 M971.1,605.1c0,3.3,2.7,5.9,5.9,5.9c3.3,0,5.9-2.7,5.9-5.9c0-3.3-2.7-5.9-5.9-5.9C973.7,599.2,971.1,601.8,971.1,605.1z
				 M950,605.1c0,3.3,2.7,5.9,5.9,5.9c3.3,0,5.9-2.7,5.9-5.9c0-3.3-2.7-5.9-5.9-5.9S950,601.8,950,605.1z M973.9,605.1
				c0-1.7,1.4-3.1,3.1-3.1c1.7,0,3.1,1.4,3.1,3.1c0,1.7-1.4,3.1-3.1,3.1C975.3,608.2,973.9,606.8,973.9,605.1L973.9,605.1z
				 M952.8,605.1c0-1.7,1.4-3.1,3.1-3.1c1.7,0,3.1,1.4,3.1,3.1c0,1.7-1.4,3.1-3.1,3.1S952.8,606.8,952.8,605.1z"/>
		</g>
		<g id="Combined_Shape-4_00000161617458325403101810000001576391326327740068_" transform="translate(214 -3960)">
			
				<linearGradient id="SVGID_00000088129435631327834300000016430549932634719362_" gradientUnits="userSpaceOnUse" x1="425.905" y1="9.3719" x2="424.905" y2="9.3719" gradientTransform="matrix(48 0 0 30 -19527.2949 245.4678)">
				<stop  offset="0" style="stop-color:#5056A2"/>
				<stop  offset="1" style="stop-color:#E6606C"/>
			</linearGradient>
			<path style="fill:url(#SVGID_00000088129435631327834300000016430549932634719362_);" d="M901.5,541.6c-1.6,0-3.1-0.6-4.2-1.7
				l-3-3c-1.2-1.2-3.2-1.2-4.4,0l0,0l-3,3c-1.1,1.1-2.6,1.7-4.2,1.7H874c-3.3,0-5.9-2.7-5.9-5.9v-18.1c0-3.3,2.7-5.9,5.9-5.9h36.2
				c3.3,0,5.9,2.7,5.9,5.9v18.1c0,3.3-2.7,5.9-5.9,5.9H901.5z M896.7,526.6c0,3.3,2.7,5.9,5.9,5.9c3.3,0,5.9-2.7,5.9-5.9
				c0-3.3-2.7-5.9-5.9-5.9S896.7,523.3,896.7,526.6z M875.7,526.6c0,3.3,2.7,5.9,5.9,5.9c3.3,0,5.9-2.7,5.9-5.9
				c0-3.3-2.7-5.9-5.9-5.9C878.3,520.7,875.6,523.3,875.7,526.6z M899.6,526.6c0-1.7,1.4-3.1,3.1-3.1c1.7,0,3.1,1.4,3.1,3.1
				c0,1.7-1.4,3.1-3.1,3.1C900.9,529.7,899.6,528.3,899.6,526.6L899.6,526.6z M878.5,526.6c0-1.7,1.4-3.1,3.1-3.1s3.1,1.4,3.1,3.1
				c0,1.7-1.4,3.1-3.1,3.1S878.5,528.3,878.5,526.6z"/>
			
				<linearGradient id="SVGID_00000041266647850241749840000004491888190174727856_" gradientUnits="userSpaceOnUse" x1="425.9051" y1="9.3725" x2="424.9051" y2="9.3725" gradientTransform="matrix(47.9997 0 0 29.9997 -19527.1699 245.4515)">
				<stop  offset="0" style="stop-color:#5056A2"/>
				<stop  offset="1" style="stop-color:#E6606C"/>
			</linearGradient>
			<path style="fill:url(#SVGID_00000041266647850241749840000004491888190174727856_);" d="M910.2,540.6c2.7,0,4.9-2.2,4.9-4.9
				v-18.1c0-2.7-2.2-4.9-4.9-4.9H874c-2.7,0-4.9,2.2-4.9,4.9v18.1c0,2.7,2.2,4.9,4.9,4.9h8.7c1.3,0,2.6-0.5,3.5-1.4l3-3
				c0.8-0.8,1.8-1.2,2.9-1.2c1.1,0,2.1,0.4,2.9,1.2l3,3c0.9,0.9,2.2,1.4,3.5,1.4H910.2 M902.7,519.7c3.8,0,6.9,3.1,6.9,6.9
				c0,3.8-3.1,6.9-6.9,6.9c-3.8,0-6.9-3.1-6.9-6.9C895.7,522.8,898.8,519.7,902.7,519.7 M881.6,519.7c3.8,0,6.9,3.1,6.9,6.9
				c0,3.8-3.1,6.9-6.9,6.9c-3.8,0-6.9-3.1-6.9-6.9C874.7,522.8,877.8,519.7,881.6,519.7 M902.7,528.7c1.2,0,2.1-1,2.1-2.1
				c0-1.2-0.9-2.1-2.1-2.1c-1.2,0-2.1,1-2.1,2.1C900.6,527.8,901.5,528.7,902.7,528.7 M881.6,528.7c1.2,0,2.1-1,2.1-2.1
				c0-1.2-0.9-2.1-2.1-2.1c-1.2,0-2.1,1-2.1,2.1C879.5,527.8,880.4,528.7,881.6,528.7 M910.2,541.6h-8.7c-1.6,0-3.1-0.6-4.2-1.7
				l-3-3c-0.6-0.6-1.4-0.9-2.2-0.9s-1.6,0.3-2.2,0.9l-3,3c-1.1,1.1-2.6,1.7-4.2,1.7H874c-3.3,0-5.9-2.7-5.9-5.9v-18.1
				c0-3.3,2.7-5.9,5.9-5.9h36.2c3.3,0,5.9,2.7,5.9,5.9v18.1C916.1,538.9,913.5,541.6,910.2,541.6z M902.7,520.7
				c-3.3,0-5.9,2.7-5.9,5.9c0,3.3,2.7,5.9,5.9,5.9c3.3,0,5.9-2.7,5.9-5.9C908.6,523.3,905.9,520.7,902.7,520.7z M881.6,520.7
				c-3.3,0-5.9,2.7-5.9,5.9c0,3.3,2.7,5.9,5.9,5.9c3.3,0,5.9-2.7,5.9-5.9C887.5,523.3,884.8,520.7,881.6,520.7z M902.7,529.7
				c-1.7,0-3.1-1.4-3.1-3.1c0-1.7,1.4-3.1,3.1-3.1c1.7,0,3.1,1.4,3.1,3.1S904.4,529.7,902.7,529.7z M881.6,529.7
				c-1.7,0-3.1-1.4-3.1-3.1c0-1.7,1.4-3.1,3.1-3.1s3.1,1.4,3.1,3.1C884.7,528.3,883.3,529.7,881.6,529.7z"/>
		</g>
	</g>
</g>
<g>
	<g>
		<path class="st29" d="M604.4,310.1v-30.9c0-4.1-3.3-7.4-7.4-7.4c-4.1,0-7.4,3.3-7.4,7.4v30.9c0,4.1,3.3,7.4,7.4,7.4
			C601.1,317.6,604.4,314.2,604.4,310.1z"/>
		<path class="st29" d="M604.4,528.8v-30.9c0-4.1-3.3-7.4-7.4-7.4c-4.1,0-7.4,3.3-7.4,7.4v30.9c0,4.1,3.3,7.4,7.4,7.4
			C601.1,536.2,604.4,532.9,604.4,528.8z"/>
		<path class="st29" d="M668.6,342.9l40.1-40.1c2.9-2.9,2.9-7.6,0-10.5c-2.9-2.9-7.6-2.9-10.5,0l-40.1,40.1c-2.9,2.9-2.9,7.6,0,10.5
			c1.4,1.4,3.3,2.2,5.2,2.2S667.2,344.3,668.6,342.9z"/>
		<path class="st29" d="M495.2,516l40.1-40.1c2.9-2.9,2.9-7.6,0-10.5c-2.9-2.9-7.6-2.9-10.5,0l-40.1,40.1c-2.9,2.9-2.9,7.6,0,10.5
			c1.4,1.4,3.3,2.2,5.2,2.2C491.9,518.2,493.8,517.4,495.2,516z"/>
		<path class="st29" d="M703.4,518.3c1.9,0,3.8-0.7,5.2-2.2c2.9-2.9,2.9-7.6,0-10.5l-40.1-40.1c-2.9-2.9-7.6-2.9-10.5,0
			c-2.9,2.9-2.9,7.6,0,10.5l40.1,40.1C699.6,517.6,701.5,518.3,703.4,518.3z"/>
		<path class="st29" d="M530.3,344.9c1.9,0,3.8-0.7,5.2-2.2c2.9-2.9,2.9-7.6,0-10.5l-40.1-40.1c-2.9-2.9-7.6-2.9-10.5,0
			c-2.9,2.9-2.9,7.6,0,10.5l40.1,40.1C526.5,344.2,528.4,344.9,530.3,344.9z"/>
		<path class="st29" d="M721.8,411.4c4.1,0,7.4-3.3,7.4-7.4s-3.3-7.4-7.4-7.4h-30.9c-4.1,0-7.4,3.3-7.4,7.4s3.3,7.4,7.4,7.4H721.8z"
			/>
		<path class="st29" d="M503.1,411.4c4.1,0,7.4-3.3,7.4-7.4s-3.3-7.4-7.4-7.4h-30.9c-4.1,0-7.4,3.3-7.4,7.4s3.3,7.4,7.4,7.4H503.1z"
			/>
	</g>
	
		<ellipse transform="matrix(0.3827 -0.9239 0.9239 0.3827 140.9724 703.6112)" class="st30" cx="597" cy="246.3" rx="32.9" ry="32.9"/>
	
		<ellipse transform="matrix(0.3827 -0.9239 0.9239 0.3827 -150.3898 898.2933)" class="st30" cx="597" cy="561.7" rx="32.9" ry="32.9"/>
	<path class="st31" d="M750,297.5c12.8-12.8,12.8-33.7,0-46.5c-12.8-12.8-33.7-12.8-46.5,0c-12.8,12.8-12.8,33.7,0,46.5
		C716.4,310.3,737.2,310.3,750,297.5z"/>
	<path class="st31" d="M490,557.3c12.8-12.8,12.8-33.7,0-46.5c-12.8-12.8-33.7-12.8-46.5,0c-12.8,12.8-12.8,33.7,0,46.5
		C456.3,570.1,477.1,570.1,490,557.3z"/>
	<path class="st31" d="M749.9,557.4c12.8-12.8,12.8-33.7,0-46.5c-12.8-12.8-33.7-12.8-46.5,0c-12.8,12.8-12.8,33.7,0,46.5
		C716.2,570.3,737.1,570.3,749.9,557.4z"/>
	<path class="st31" d="M490.1,297.3c12.8-12.8,12.8-33.7,0-46.5c-12.8-12.8-33.7-12.8-46.5,0c-12.8,12.8-12.8,33.7,0,46.5
		S477.3,310.2,490.1,297.3z"/>
	<path class="st30" d="M787.6,404c0-18.2-14.7-32.9-32.9-32.9c-18.2,0-32.9,14.7-32.9,32.9c0,18.2,14.7,32.9,32.9,32.9
		C772.9,436.9,787.6,422.2,787.6,404z"/>
	
		<ellipse transform="matrix(0.8427 -0.5384 0.5384 0.8427 -148.4076 300.0993)" class="st30" cx="439.3" cy="404" rx="32.9" ry="32.9"/>
	<path class="st31" d="M597,497.9c19.5,0,37.6-5.9,52.6-16.1c24.9-16.9,41.2-45.4,41.2-77.8c0-51.8-42-93.8-93.8-93.8
		c-51.8,0-93.8,42-93.8,93.8c0,32.4,16.3,60.9,41.2,77.8C559.4,491.9,577.5,497.9,597,497.9z"/>
	<g>
		<path class="st32" d="M634.2,446.1c-1.8-1.8-3.8-3.5-5.8-5.1c-8.8-6.5-19.6-10.4-31.4-10.4c-11.8,0-22.6,3.9-31.4,10.4
			c-12.5,9.3-20.8,24-21.2,40.7c15,10.1,33.1,16.1,52.6,16.1c19.5,0,37.6-5.9,52.6-16.1C649.2,467.8,643.4,455.3,634.2,446.1z"/>
		<path class="st32" d="M597,430.7c11.8,0,22.4-5.2,29.6-13.4c6.1-6.9,9.8-16,9.8-25.9c0-5.2-1-10.1-2.8-14.7
			c-5.8-14.5-20-24.7-36.5-24.7c-16.5,0-30.7,10.2-36.5,24.7c-1.8,4.5-2.8,9.5-2.8,14.7c0,9.9,3.7,19,9.8,25.9
			C574.6,425.5,585.2,430.7,597,430.7z"/>
	</g>
</g>
<g>
	<path class="st29" d="M726.6,493.8c-8.3,0-16.1,2.5-22.8,7.1l-30.5-30.5c2.2-2.5,4.3-5.1,6.2-7.9c2.4-3.3,1.6-8-1.8-10.3
		c-3.3-2.4-8-1.6-10.3,1.8c-3.7,5.2-7.9,9.8-12.5,14c-2.7-10.2-7.9-19.5-15.5-27.1c-2-2.1-4.3-4-6.7-5.8c-2.9-2.1-5.9-3.9-9-5.5
		c3-2.1,5.9-4.6,8.3-7.4c7.5-8.5,11.6-19.5,11.6-30.8c0-6-1.1-11.9-3.4-17.4c-7.2-17.8-24.2-29.4-43.4-29.4
		c-19.2,0-36.3,11.5-43.4,29.3c-2.2,5.5-3.4,11.4-3.4,17.4c0,11.3,4.1,22.3,11.6,30.8c2.5,2.8,5.3,5.3,8.3,7.4
		c-3.1,1.6-6.2,3.4-9,5.5c-11.1,8.3-18.9,19.8-22.3,32.9c-17.9-16.3-28.3-39.5-28.3-64c0-47.7,38.8-86.4,86.4-86.4
		c29,0,55.9,14.4,72,38.5c2.3,3.4,6.9,4.3,10.3,2.1c3.4-2.3,4.3-6.9,2.1-10.3c-2.4-3.5-4.9-6.9-7.6-10l30.3-30.3
		c6.7,4.6,14.5,7.1,22.8,7.1c10.8,0,20.9-4.2,28.5-11.8c15.7-15.7,15.7-41.3,0-57c-7.6-7.6-17.7-11.8-28.5-11.8
		c-10.8,0-20.9,4.2-28.5,11.8c-13.9,13.9-15.5,35.6-4.7,51.3l-30.4,30.4c-16.3-14.1-36.9-22.7-58.7-24.3v-17.1
		c18.7-3.5,32.9-19.9,32.9-39.6c0-22.2-18.1-40.3-40.3-40.3s-40.3,18.1-40.3,40.3c0,19.7,14.2,36.1,32.9,39.6V303
		c-22.4,1.6-42.8,10.6-58.8,24.5l-30.7-30.7c10.8-15.7,9.2-37.3-4.7-51.3c-15.7-15.7-41.3-15.7-57,0c-15.7,15.7-15.7,41.3,0,57
		c7.9,7.9,18.2,11.8,28.5,11.8c8,0,15.9-2.4,22.8-7.1l30.7,30.7c-13.8,16-22.6,36.3-24.2,58.6h-17.1c-3.5-18.7-19.9-32.9-39.6-32.9
		c-22.2,0-40.3,18.1-40.3,40.3s18.1,40.3,40.3,40.3c19.7,0,36.1-14.2,39.6-32.9H496c1.6,21.8,10.2,42.2,24.2,58.6l-30.8,30.8
		c-6.7-4.6-14.5-7.1-22.8-7.1c-10.8,0-20.9,4.2-28.5,11.8c-7.6,7.6-11.8,17.7-11.8,28.5c0,10.8,4.2,20.9,11.8,28.5
		c7.6,7.6,17.7,11.8,28.5,11.8c10.8,0,20.9-4.2,28.5-11.8c7.6-7.6,11.8-17.7,11.8-28.5c0-8.3-2.5-16.1-7.1-22.8l30.7-30.7
		c3,2.6,6.1,5,9.4,7.3c0,0,0,0,0,0c0,0,0.1,0.1,0.1,0.1c14.7,10,31.7,15.8,49.3,17.1v17.1c-18.7,3.5-32.9,19.9-32.9,39.6
		c0,22.2,18.1,40.3,40.3,40.3s40.3-18.1,40.3-40.3c0-19.7-14.2-36.1-32.9-39.6V505c17.7-1.3,34.6-7.1,49.4-17.1c0,0,0.1,0,0.1-0.1
		c0,0,0.1-0.1,0.1-0.1c3.1-2.1,6-4.5,8.9-6.9l30.5,30.5c-4.6,6.7-7.1,14.5-7.1,22.8c0,10.8,4.2,20.9,11.8,28.5
		c7.6,7.6,17.7,11.8,28.5,11.8c10.8,0,20.9-4.2,28.5-11.8c7.6-7.6,11.8-17.7,11.8-28.5c0-10.8-4.2-20.9-11.8-28.5
		C747.5,498,737.4,493.8,726.6,493.8z M708.8,256.2c4.8-4.8,11.2-7.5,18-7.5c6.8,0,13.2,2.7,18,7.5c9.9,9.9,9.9,26.1,0,36.1
		c-4.8,4.8-11.2,7.5-18,7.5c-6.8,0-13.2-2.7-18-7.5C698.8,282.3,698.8,266.1,708.8,256.2z M571.5,246.3c0-14.1,11.4-25.5,25.5-25.5
		c14.1,0,25.5,11.4,25.5,25.5c0,14.1-11.4,25.5-25.5,25.5C582.9,271.8,571.5,260.4,571.5,246.3z M448.8,292.1
		c-9.9-9.9-9.9-26.1,0-36.1c9.9-9.9,26.1-9.9,36.1,0c9.9,9.9,9.9,26.1,0,36.1C474.9,302,458.8,302,448.8,292.1z M439.3,429.5
		c-14.1,0-25.5-11.4-25.5-25.5s11.4-25.5,25.5-25.5c14.1,0,25.5,11.4,25.5,25.5S453.4,429.5,439.3,429.5z M573,412.4
		c-5.1-5.8-7.9-13.3-7.9-21.1c0-4.1,0.8-8.1,2.3-11.9c4.9-12.2,16.5-20.1,29.6-20.1c13.1,0,24.8,7.9,29.7,20.1
		c1.5,3.7,2.3,7.7,2.3,11.9c0,7.7-2.8,15.2-7.9,21.1c-6.1,6.9-14.8,10.9-24,10.9S579.1,419.3,573,412.4z M570,447
		c7.9-5.8,17.2-8.9,27-8.9c9.8,0,19.1,3.1,27,8.9c1.8,1.3,3.5,2.8,5,4.3c7.2,7.2,11.7,16.5,12.9,26.5c-13.5,8.2-28.9,12.6-44.9,12.6
		c0,0,0,0,0,0c0,0,0,0,0,0c-15.9,0-31.3-4.4-44.8-12.6C553.6,465.6,559.9,454.5,570,447z M484.7,552c-4.8,4.8-11.2,7.5-18,7.5
		c-6.8,0-13.2-2.7-18-7.5c-4.8-4.8-7.5-11.2-7.5-18c0-6.8,2.7-13.2,7.5-18s11.2-7.5,18-7.5c6.8,0,13.2,2.7,18,7.5
		c4.8,4.8,7.5,11.2,7.5,18C492.2,540.8,489.5,547.2,484.7,552z M622.5,561.7c0,14.1-11.4,25.5-25.5,25.5
		c-14.1,0-25.5-11.4-25.5-25.5c0-14.1,11.4-25.5,25.5-25.5C611.1,536.2,622.5,547.6,622.5,561.7z M744.7,552.2
		c-4.8,4.8-11.2,7.5-18,7.5c-6.8,0-13.2-2.7-18-7.5c-4.8-4.8-7.5-11.2-7.5-18c0-6.8,2.7-13.2,7.5-18c4.8-4.8,11.2-7.5,18-7.5
		c6.8,0,13.2,2.7,18,7.5c4.8,4.8,7.5,11.2,7.5,18C752.1,541,749.5,547.4,744.7,552.2z"/>
	<path class="st29" d="M754.7,363.7c-19.7,0-36.1,14.2-39.6,32.9H698c-0.2-2.1-0.4-4.2-0.6-6.3c-0.5-4.1-4.3-6.9-8.3-6.4
		c-4.1,0.5-6.9,4.3-6.4,8.3c0.5,3.8,0.8,7.8,0.8,11.7c0,4-0.3,8.1-0.8,12.1c-0.6,4.1,2.3,7.8,6.3,8.4c0.3,0,0.7,0.1,1,0.1
		c3.6,0,6.8-2.7,7.3-6.4c0.3-2.2,0.5-4.5,0.7-6.7h17.1c3.5,18.7,19.9,32.9,39.6,32.9c22.2,0,40.3-18.1,40.3-40.3
		S776.9,363.7,754.7,363.7z M754.7,429.5c-14.1,0-25.5-11.4-25.5-25.5s11.4-25.5,25.5-25.5c14.1,0,25.5,11.4,25.5,25.5
		S768.7,429.5,754.7,429.5z"/>
</g>
</svg>
