<?xml version="1.0" encoding="utf-8"?>
<!-- Generator: Adobe Illustrator 26.1.0, SVG Export Plug-In . SVG Version: 6.00 Build 0)  -->
<svg version="1.1" id="Capa_1" xmlns="http://www.w3.org/2000/svg" xmlns:xlink="http://www.w3.org/1999/xlink" x="0px" y="0px"
	 viewBox="0 0 512 512" style="enable-background:new 0 0 512 512;" xml:space="preserve">
<style type="text/css">
	.st0{fill:#FF6326;}
	.st1{fill:#FF1F3E;}
	.st2{fill:#9EBE21;}
	.st3{fill:#6AA8FF;}
	.st4{fill:#E1DFF4;}
	.st5{fill:#000053;}
</style>
<g>
	<g>
		<rect x="73.2" y="20.5" class="st0" width="141.6" height="141.6"/>
		<rect x="297.4" y="20.5" class="st1" width="141.6" height="141.6"/>
		<rect x="73.2" y="294.4" class="st2" width="141.6" height="141.6"/>
		<rect x="297.4" y="294.4" class="st3" width="141.6" height="141.6"/>
		<g>
			<path class="st4" d="M144,235.3H73.2c-9.1,0-16.5-7.4-16.5-16.5s7.4-16.5,16.5-16.5H144c9.1,0,16.5,7.4,16.5,16.5
				S153.1,235.3,144,235.3z"/>
		</g>
		<g>
			<path class="st4" d="M368.2,235.3h-70.8c-9.1,0-16.5-7.4-16.5-16.5s7.4-16.5,16.5-16.5h70.8c9.1,0,16.5,7.4,16.5,16.5
				S377.4,235.3,368.2,235.3z"/>
		</g>
		<g>
			<path class="st4" d="M144,508H73.2c-9.1,0-16.5-7.4-16.5-16.5S64.1,475,73.2,475H144c9.1,0,16.5,7.4,16.5,16.5S153.1,508,144,508
				z"/>
		</g>
		<g>
			<path class="st4" d="M368.2,508h-70.8c-9.1,0-16.5-7.4-16.5-16.5s7.4-16.5,16.5-16.5h70.8c9.1,0,16.5,7.4,16.5,16.5
				S377.4,508,368.2,508z"/>
		</g>
	</g>
	<g>
		<path class="st5" d="M231.2,20.5c0-9.1-7.4-16.5-16.5-16.5c-9.1,0-16.5,7.4-16.5,16.5v125.1H89.6V37h51.5
			c9.1,0,16.5-7.4,16.5-16.5S150.2,4,141.1,4h-68c-9.1,0-16.5,7.4-16.5,16.5v141.6c0,9.1,7.4,16.5,16.5,16.5h141.6
			c9.1,0,16.5-7.4,16.5-16.5V20.5z"/>
		<path class="st5" d="M297.3,178.7h141.6c9.1,0,16.5-7.4,16.5-16.5V20.5c0-9.1-7.4-16.5-16.5-16.5H297.3c-9.1,0-16.5,7.4-16.5,16.5
			v141.6C280.8,171.3,288.2,178.7,297.3,178.7z M313.8,37h108.6v108.6H313.8V37z"/>
		<path class="st5" d="M231.2,436V294.4c0-9.1-7.4-16.5-16.5-16.5c-9.1,0-16.5,7.4-16.5,16.5v125.1H89.6V310.9h54.3
			c9.1,0,16.5-7.4,16.5-16.5s-7.4-16.5-16.5-16.5H73.1c-9.1,0-16.5,7.4-16.5,16.5V436c0,9.1,7.4,16.5,16.5,16.5h141.6
			C223.8,452.5,231.2,445.1,231.2,436z"/>
		<path class="st5" d="M297.3,348.7c-9.1,0-16.5,7.4-16.5,16.5V436c0,9.1,7.4,16.5,16.5,16.5h141.6c9.1,0,16.5-7.4,16.5-16.5V294.4
			c0-9.1-7.4-16.5-16.5-16.5H297.3c-9.1,0-16.5,7.4-16.5,16.5s7.4,16.5,16.5,16.5h125.1v108.6H313.8v-54.3
			C313.8,356,306.4,348.7,297.3,348.7z"/>
		<path class="st5" d="M73.1,235.3h70.8c9.1,0,16.5-7.4,16.5-16.5c0-9.1-7.4-16.5-16.5-16.5H73.1c-9.1,0-16.5,7.4-16.5,16.5
			C56.5,227.9,63.9,235.3,73.1,235.3z"/>
		<path class="st5" d="M297.3,235.3h70.8c9.1,0,16.5-7.4,16.5-16.5c0-9.1-7.4-16.5-16.5-16.5h-70.8c-9.1,0-16.5,7.4-16.5,16.5
			C280.8,227.9,288.2,235.3,297.3,235.3z"/>
		<path class="st5" d="M73.1,474.9c-9.1,0-16.5,7.4-16.5,16.5c0,9.1,7.4,16.5,16.5,16.5h70.8c9.1,0,16.5-7.4,16.5-16.5
			c0-9.1-7.4-16.5-16.5-16.5H73.1z"/>
		<path class="st5" d="M297.3,508h70.8c9.1,0,16.5-7.4,16.5-16.5c0-9.1-7.4-16.5-16.5-16.5h-70.8c-9.1,0-16.5,7.4-16.5,16.5
			C280.8,500.6,288.2,508,297.3,508z"/>
	</g>
</g>
</svg>
