<?xml version="1.0" encoding="utf-8"?>
<!-- Generator: Adobe Illustrator 26.1.0, SVG Export Plug-In . SVG Version: 6.00 Build 0)  -->
<svg version="1.1" id="Capa_1" xmlns="http://www.w3.org/2000/svg" xmlns:xlink="http://www.w3.org/1999/xlink" x="0px" y="0px"
	 viewBox="0 0 512 512" style="enable-background:new 0 0 512 512;" xml:space="preserve">
<style type="text/css">
	.st0{fill:#08405E;}
	.st1{fill:#FFF4F4;}
	.st2{fill:#FF1F3E;}
	.st3{fill:#17669F;}
	.st4{fill:#000053;}
	.st5{fill:#00BCD4;}
	.st6{fill:#FFC107;}
</style>
<g>
	<path class="st0" d="M93.5,7.6c-6.1,0-11.1,5-11.1,11.1V68c0,6.1,5,11.1,11.1,11.1s11.1-5,11.1-11.1V18.7
		C104.6,12.6,99.6,7.6,93.5,7.6z"/>
	<path class="st0" d="M418.7,7.6c-6.1,0-11.1,5-11.1,11.1V68c0,6.1,5,11.1,11.1,11.1c6.1,0,11.1-5,11.1-11.1V18.7
		C429.8,12.6,424.8,7.6,418.7,7.6z"/>
	<rect x="28.8" y="91.3" class="st1" width="454.4" height="402"/>
	<rect x="76.6" y="167.3" class="st2" width="359.9" height="209.1"/>
	<rect x="70.2" y="68" class="st3" width="46.7" height="46.7"/>
	<rect x="395.3" y="68" class="st3" width="46.7" height="46.7"/>
	<path class="st4" d="M242.5,482.3H40.9V102.4H59v12.3c0,6.1,5,11.1,11.1,11.1h46.7c6.1,0,11.1-5,11.1-11.1V68
		c0-6.1-5-11.1-11.1-11.1h-12.3V18.7c0-6.1-5-11.1-11.1-11.1c-6.1,0-11.1,5-11.1,11.1v38.2H70.1c-6.1,0-11.1,5-11.1,11.1v12.3H29.8
		c-6.1,0-11.1,5-11.1,11.1v402c0,6.1,5,11.1,11.1,11.1h212.7c6.1,0,11.1-5,11.1-11.1C253.6,487.2,248.6,482.3,242.5,482.3z M81.2,79
		h24.5v24.5H81.2V79z"/>
	<path class="st4" d="M296.6,482.3h-6.9c-6.1,0-11.1,5-11.1,11.1c0,6.1,5,11.1,11.1,11.1h6.9c6.1,0,11.1-5,11.1-11.1
		C307.6,487.2,302.7,482.3,296.6,482.3z"/>
	<path class="st4" d="M482.2,80.2c-6.1,0-11.1,5-11.1,11.1v390.9h-89.6c-6.1,0-11.1,5-11.1,11.1c0,6.1,5,11.1,11.1,11.1h100.7
		c6.1,0,11.1-5,11.1-11.1v-402C493.3,85.2,488.4,80.2,482.2,80.2z"/>
	<path class="st4" d="M211.9,102.4h172.3v12.3c0,6.1,5,11.1,11.1,11.1H442c6.1,0,11.1-5,11.1-11.1V68c0-6.1-5-11.1-11.1-11.1h-12.3
		V18.7c0-6.1-5-11.1-11.1-11.1s-11.1,5-11.1,11.1v38.2h-12.3c-6.1,0-11.1,5-11.1,11.1v12.3H211.9c-6.1,0-11.1,5-11.1,11.1
		C200.8,97.4,205.8,102.4,211.9,102.4z M430.9,79v24.5h-24.5V91.4c0,0,0,0,0-0.1c0,0,0,0,0-0.1V79H430.9z"/>
	<path class="st4" d="M167.1,102.4h5.5c6.1,0,11.1-5,11.1-11.1c0-6.1-5-11.1-11.1-11.1h-5.5c-6.1,0-11.1,5-11.1,11.1
		C156.1,97.4,161,102.4,167.1,102.4z"/>
	<path class="st4" d="M210.1,440.4c0-6.1-5-11.1-11.1-11.1H79.5c-6.1,0-11.1,5-11.1,11.1c0,6.1,5,11.1,11.1,11.1H199
		C205.2,451.5,210.1,446.5,210.1,440.4z"/>
	<path class="st5" d="M386.8,360.6l-73.6-131c-1.1-2-3.3-3.2-5.8-3.3c-2.5,0-4.7,1.1-6,3L252.1,306l-34-30.2
		c-1.4-1.3-3.4-1.9-5.5-1.7c-2,0.2-3.8,1.2-4.9,2.7l-60.3,83.4c-2,2.8-1.1,6.4,2,8.2c1.1,0.6,2.4,1,3.7,1h227.6c3.7,0,6.7-2.7,6.7-6
		C387.5,362.4,387.3,361.5,386.8,360.6L386.8,360.6z"/>
	<path class="st4" d="M380.8,369.3c-2.5,0-4.9-1.3-6-3.3l-68-121.1l-47.4,73.7c-1,1.6-2.8,2.7-4.9,3c-2.1,0.3-4.2-0.3-5.6-1.7
		l-34.3-30.6l-55.8,77.2c-2,2.8-6.1,3.6-9.2,1.8s-4-5.4-2.1-8.2c0,0,0,0,0-0.1l60.3-83.4c1.1-1.5,2.9-2.5,4.9-2.7
		c2-0.2,4,0.4,5.5,1.7l34,30.2l49.2-76.6c1.3-1.9,3.5-3,6-3c2.5,0.1,4.7,1.3,5.8,3.3l73.6,131c1.7,2.9,0.3,6.5-3,8c0,0,0,0,0,0
		C382.9,369.1,381.9,369.3,380.8,369.3z"/>
	<g>
		<circle class="st6" cx="159.1" cy="227.3" r="34"/>
		<path class="st4" d="M159.1,261.3c-18.8,0-34-15.2-34-34s15.2-34,34-34s34,15.2,34,34S177.9,261.3,159.1,261.3z M159.1,206.9
			c-11.3,0-20.4,9.1-20.4,20.4c0,11.3,9.1,20.4,20.4,20.4s20.4-9.1,20.4-20.4S170.4,206.9,159.1,206.9z"/>
	</g>
	<path class="st4" d="M436.4,341.6c6.1,0,11.1-5,11.1-11.1V167.3c0-6.1-5-11.1-11.1-11.1H76.5c-6.1,0-11.1,5-11.1,11.1v209.1
		c0,6.1,5,11.1,11.1,11.1h359.9c6.1,0,11.1-5,11.1-11.1c0-6.1-5-11.1-11.1-11.1H87.6V178.4h337.7v152.1
		C425.4,336.6,430.3,341.6,436.4,341.6z"/>
</g>
</svg>
