<?xml version="1.0" encoding="utf-8"?>
<!-- Generator: Adobe Illustrator 26.1.0, SVG Export Plug-In . SVG Version: 6.00 Build 0)  -->
<svg version="1.1" id="Layer_1" xmlns="http://www.w3.org/2000/svg" xmlns:xlink="http://www.w3.org/1999/xlink" x="0px" y="0px"
	 viewBox="0 0 512 512" style="enable-background:new 0 0 512 512;" xml:space="preserve">
<style type="text/css">
	.st0{fill:#120078;}
	.st1{fill:#0E49B5;}
	.st2{fill:#ADE5FF;}
	.st3{fill:#FECD1A;}
	.st4{fill:#36D28F;}
	.st5{fill:#4DBAF6;}
	.st6{fill:#000053;}
</style>
<g>
	<g>
		<path class="st0" d="M327.3,325.5l-61.7-43.2l0-56.4c0-5.3-4.3-9.5-9.5-9.5h0c-5.3,0-9.5,4.3-9.5,9.5l0,56.4l-61.7,43.1
			c-4.3,3-5.4,9-2.4,13.3c3,4.3,9,5.4,13.3,2.4l60.3-42.2l60.3,42.2c1.7,1.2,3.6,1.7,5.5,1.7c3,0,6-1.4,7.8-4.1
			C332.7,334.4,331.6,328.5,327.3,325.5z"/>
	</g>
	<g>
		<path class="st1" d="M501.4,384c0,32.8-16.3,61.8-41.3,79.3c-15.7,11.1-35,17.6-55.7,17.6c-20.7,0-39.9-6.5-55.7-17.6
			c-25-17.5-41.3-46.5-41.3-79.3c0-53.5,43.4-97,97-97C458,287,501.4,330.5,501.4,384z"/>
	</g>
	<g>
		<path class="st1" d="M204.5,384c0,32.8-16.3,61.8-41.3,79.3c-15.7,11.1-35,17.6-55.7,17.6c-20.7,0-39.9-6.5-55.7-17.6
			c-25-17.5-41.3-46.5-41.3-79.3c0-53.5,43.4-97,97-97C161.1,287,204.5,330.5,204.5,384z"/>
	</g>
	<g>
		<path class="st1" d="M353,129c0,32.8-16.3,61.8-41.3,79.3C296,219.5,276.7,226,256,226c-20.7,0-39.9-6.5-55.7-17.6
			c-25-17.5-41.3-46.5-41.3-79.3c0-53.5,43.4-97,97-97C309.6,32,353,75.5,353,129z"/>
	</g>
	<g>
		<path class="st2" d="M460.2,440.2v23.2c-15.7,11.1-35,17.6-55.7,17.6c-20.7,0-39.9-6.5-55.7-17.6v-23.2
			c0-19.9,16.2-36.1,36.1-36.1h39.2C444,404.1,460.2,420.3,460.2,440.2z"/>
	</g>
	<g>
		<path class="st3" d="M441,367.7c0,20.1-16.4,36.4-36.6,36.4s-36.6-16.3-36.6-36.4s16.4-36.4,36.6-36.4S441,347.6,441,367.7z"/>
	</g>
	<g>
		<path class="st4" d="M163.2,440.2v23.2c-15.7,11.1-35,17.6-55.7,17.6c-20.7,0-39.9-6.5-55.7-17.6v-23.2
			c0-19.9,16.2-36.1,36.1-36.1h39.2C147.1,404.1,163.2,420.3,163.2,440.2z"/>
	</g>
	<g>
		<path class="st3" d="M144.1,367.7c0,20.1-16.4,36.4-36.6,36.4S71,387.8,71,367.7s16.4-36.4,36.6-36.4S144.1,347.6,144.1,367.7z"/>
	</g>
	<g>
		<path class="st5" d="M311.7,185.2v23.2C296,219.5,276.7,226,256,226c-20.7,0-39.9-6.5-55.7-17.6v-23.2c0-19.9,16.2-36.1,36.1-36.1
			h39.2C295.5,149.1,311.7,165.3,311.7,185.2z"/>
	</g>
	<g>
		<path class="st3" d="M292.6,112.7c0,20.1-16.4,36.4-36.6,36.4s-36.6-16.3-36.6-36.4s16.4-36.4,36.6-36.4S292.6,92.6,292.6,112.7z"
			/>
	</g>
	<g>
		<path class="st6" d="M413.4,471c-1.5,0.1-2.9,0.3-4.4,0.3c-5.3,0.3-9.3,4.7-9.1,10c0.3,5.1,4.5,9.1,9.5,9.1c0.2,0,0.3,0,0.5,0
			c1.8-0.1,3.6-0.2,5.4-0.4c5.2-0.5,9.1-5.2,8.5-10.5C423.3,474.3,418.6,470.5,413.4,471z"/>
		<path class="st6" d="M404.5,277.5c-34.7,0-65.5,16.8-85,42.6l-54-37.7l0-47.3c18.5-1.6,36.2-8,51.4-18.8c0,0,0.1,0,0.1-0.1
			c0,0,0.1,0,0.1-0.1c28.4-19.9,45.3-52.5,45.3-87.1c0-58.7-47.8-106.5-106.5-106.5c-43.1,0-81.7,25.7-98.3,65.5
			c-2,4.9,0.3,10.5,5.1,12.5c4.9,2,10.5-0.3,12.5-5.1C189,62.7,220.6,41.6,256,41.6c48.2,0,87.4,39.2,87.4,87.4
			c0,21.6-8.1,42.3-22.2,58.1v-2c0-19.7-12.6-36.5-30.1-42.8c6.8-8,10.9-18.4,10.9-29.7c0-25.3-20.7-46-46.1-46
			c-25.4,0-46.1,20.6-46.1,46c0,11.3,4.1,21.6,10.9,29.7c-17.5,6.4-30.1,23.1-30.1,42.8v1.9c-5.1-5.7-9.5-12-12.9-18.8
			c-2.4-4.7-8.1-6.6-12.8-4.2c-4.7,2.4-6.6,8.1-4.2,12.8c7.9,15.6,19.7,29.2,34,39.3c0,0,0.1,0.1,0.1,0.1c0,0,0.1,0,0.1,0.1
			c15.3,10.7,32.9,17.1,51.4,18.7l0,47.3l-54,37.7c-19.5-25.8-50.2-42.5-84.9-42.5C48.8,277.5,1,325.3,1,384
			c0,34.7,17,67.2,45.3,87.1c0,0,0.1,0.1,0.1,0.1c0,0,0.1,0,0.1,0.1c17.9,12.6,39,19.2,60.9,19.2c22,0,43.1-6.7,61-19.2
			c0,0,0.1,0,0.1-0.1c0,0,0.1,0,0.1-0.1c28.4-19.9,45.3-52.5,45.3-87.1c0-17.2-4.2-33.4-11.4-47.8l53.4-37.3l53.4,37.3
			c-7.3,14.4-11.4,30.6-11.4,47.8c0,34.7,17,67.2,45.3,87.1c0,0,0.1,0.1,0.1,0.1c0,0,0.1,0,0.1,0.1c7.9,5.5,16.5,10,25.6,13.2
			c1,0.4,2.1,0.5,3.2,0.5c3.9,0,7.6-2.5,9-6.4c1.8-5-0.9-10.4-5.8-12.2c-6-2.1-11.7-4.9-17.1-8.3v-18c0-14.6,11.9-26.5,26.5-26.5
			h19.3c0.1,0,0.2,0,0.3,0s0.2,0,0.3,0h19.3c14.6,0,26.5,11.9,26.5,26.5v18c-2.3,1.5-4.7,2.8-7.1,4c-4.7,2.4-6.6,8.1-4.3,12.8
			c2.4,4.7,8.1,6.6,12.8,4.3c4.6-2.3,9.1-5,13.4-8c0,0,0.1,0,0.1-0.1c0,0,0.1,0,0.1-0.1C494,451.3,511,418.7,511,384
			C511,325.3,463.2,277.5,404.5,277.5z M61.4,458.2v-18c0-14.6,11.9-26.5,26.5-26.5h19.3c0.1,0,0.2,0,0.3,0s0.2,0,0.3,0h19.3
			c14.6,0,26.5,11.9,26.5,26.5v18c-13.8,8.6-29.6,13.2-46.1,13.2C91.1,471.4,75.2,466.8,61.4,458.2z M107.7,394.5h-0.3
			c-14.8-0.1-26.9-12.1-26.9-26.9c0-14.8,12.1-26.9,27-26.9c14.9,0,27,12.1,27,26.9C134.6,382.4,122.5,394.5,107.7,394.5z
			 M172.8,442.1v-2c0-19.7-12.6-36.5-30.1-42.8c6.8-8,10.9-18.4,10.9-29.7c0-25.3-20.7-46-46.1-46c-25.4,0-46.1,20.6-46.1,46
			c0,11.3,4.1,21.6,10.9,29.7c-17.5,6.4-30.1,23.1-30.1,42.8v2c-14.1-15.8-22.2-36.5-22.2-58.1c0-48.2,39.2-87.4,87.4-87.4
			c48.2,0,87.4,39.2,87.4,87.4C195,405.7,186.9,426.3,172.8,442.1z M256,85.8c14.9,0,27,12.1,27,26.9c0,14.8-12.1,26.8-26.9,26.9
			h-0.2c-14.8-0.1-26.9-12.1-26.9-26.9C229,97.9,241.1,85.8,256,85.8z M236.4,158.6h19.4c0.1,0,0.1,0,0.2,0c0.1,0,0.1,0,0.2,0h19.4
			c14.6,0,26.5,11.9,26.5,26.5v18c-13.8,8.6-29.6,13.2-46.1,13.2c-16.5,0-32.3-4.6-46.1-13.2v-18
			C209.9,170.5,221.8,158.6,236.4,158.6z M404.6,394.5h-0.3c-14.8-0.1-26.9-12.1-26.9-26.9c0-14.8,12.1-26.9,27-26.9
			c14.9,0,27,12.1,27,26.9C431.5,382.4,419.4,394.5,404.6,394.5z M469.7,442.1v-2c0-19.7-12.6-36.5-30.1-42.8
			c6.8-8,10.9-18.4,10.9-29.7c0-25.3-20.7-46-46.1-46c-25.4,0-46.1,20.6-46.1,46c0,11.3,4.1,21.6,10.9,29.7
			c-17.5,6.4-30.1,23.1-30.1,42.8v2C325.1,426.3,317,405.7,317,384c0-48.2,39.2-87.4,87.4-87.4c48.2,0,87.4,39.2,87.4,87.4
			C491.9,405.7,483.8,426.3,469.7,442.1z"/>
		<path class="st6" d="M159.2,143.6c0.2,0,0.3,0,0.5,0c5.3-0.3,9.3-4.7,9.1-10c-0.1-1.5-0.1-3-0.1-4.5c0-5.3-4.3-9.5-9.5-9.5
			c-5.3,0-9.5,4.3-9.5,9.5c0,1.8,0,3.7,0.1,5.5C149.9,139.6,154.1,143.6,159.2,143.6z"/>
	</g>
</g>
</svg>
