<?xml version="1.0" encoding="utf-8"?>
<!-- Generator: Adobe Illustrator 26.1.0, SVG Export Plug-In . SVG Version: 6.00 Build 0)  -->
<svg version="1.1" id="Layer_1" xmlns="http://www.w3.org/2000/svg" xmlns:xlink="http://www.w3.org/1999/xlink" x="0px" y="0px"
	 viewBox="0 0 490.2 490.2" style="enable-background:new 0 0 490.2 490.2;" xml:space="preserve">
<style type="text/css">
	.st0{fill:#FFCA3A;}
	.st1{fill:#F99410;}
	.st2{fill:#000053;}
	.st3{fill:#FF3E7C;}
	.st4{fill:#9F33D3;}
</style>
<g>
	<g>
		<g>
			<path class="st0" d="M380.6,480H109c-2.9,0-5.3-2.4-5.3-5.3V15.8c0-2.9,2.4-5.3,5.3-5.3h271.6c2.9,0,5.3,2.4,5.3,5.3v458.9
				C385.9,477.6,383.5,480,380.6,480z"/>
		</g>
		<g>
			<path class="st1" d="M297.6,52.8H192c-8.4,0-15.7-5.7-17.8-13.9l-7-28.4h155.1l-7,28.4C313.4,47,306,52.8,297.6,52.8z"/>
		</g>
	</g>
	<g>
		<path class="st2" d="M358.3,1.2h-35.9H167.2h-35.9c-20.2,0-36.7,16.5-36.7,36.7v414.3c0,20.2,16.5,36.7,36.7,36.7h227
			c20.2,0,36.7-16.5,36.7-36.7v-69.7c0-5-4.1-9.1-9.1-9.1c-5,0-9.1,4.1-9.1,9.1v69.7c0,10.2-8.3,18.5-18.5,18.5h-227
			c-10.2,0-18.5-8.3-18.5-18.5V37.9c0-10.2,8.3-18.5,18.5-18.5h28.8l5.3,21.4c3,12.3,14,20.9,26.6,20.9h105.6
			c12.6,0,23.6-8.6,26.6-20.9l5.3-21.4h28.8c10.2,0,18.5,8.3,18.5,18.5v194c0,5,4.1,9.1,9.1,9.1c5,0,9.1-4.1,9.1-9.1v-194
			C395,17.7,378.5,1.2,358.3,1.2z M306.5,36.5c-1,4.1-4.7,7-8.9,7H192c-4.2,0-7.9-2.9-8.9-7l-4.2-17.1h131.8L306.5,36.5z"/>
		<path class="st2" d="M385.9,291.7c-5,0-9.1,4.1-9.1,9.1v14.5c0,5,4.1,9.1,9.1,9.1c5,0,9.1-4.1,9.1-9.1v-14.5
			C395,295.8,390.9,291.7,385.9,291.7z"/>
	</g>
</g>
<g>
	<g>
		<g>
			<g>
				<path class="st3" d="M214.5,115.9v19h-52c-5.3,0-9.5-4.3-9.5-9.5c0-2.6,1.1-5,2.8-6.7c1.7-1.7,4.1-2.8,6.7-2.8H214.5z"/>
			</g>
		</g>
		<g>
			<g>
				<rect x="233.5" y="115.9" class="st3" width="66.3" height="19"/>
			</g>
		</g>
		<g>
			<g>
				<path class="st3" d="M337.7,125.4c0,2.6-1.1,5-2.8,6.7c-1.7,1.7-4.1,2.8-6.7,2.8h-9.3v-19h9.3
					C333.4,115.9,337.7,120.2,337.7,125.4z"/>
			</g>
		</g>
		<g>
			<g>
				<path class="st3" d="M162.5,158.6h9.3v19h-9.3c-5.3,0-9.5-4.3-9.5-9.5c0-2.6,1.1-5,2.8-6.7C157.5,159.7,159.9,158.6,162.5,158.6
					z"/>
			</g>
		</g>
		<g>
			<g>
				<rect x="190.8" y="158.6" class="st3" width="66.3" height="19"/>
			</g>
		</g>
		<g>
			<g>
				<path class="st3" d="M337.7,168.1c0,2.6-1.1,5-2.8,6.7c-1.7,1.7-4.1,2.8-6.7,2.8h-52v-19h52
					C333.4,158.6,337.7,162.9,337.7,168.1z"/>
			</g>
		</g>
		<g>
			<g>
				<path class="st3" d="M214.5,201.3v19h-52c-5.3,0-9.5-4.3-9.5-9.5c0-2.6,1.1-5,2.8-6.7c1.7-1.7,4.1-2.8,6.7-2.8H214.5z"/>
			</g>
		</g>
		<g>
			<g>
				<rect x="233.5" y="201.3" class="st3" width="66.3" height="19"/>
			</g>
		</g>
		<g>
			<g>
				<path class="st3" d="M337.7,210.8c0,2.6-1.1,5-2.8,6.7c-1.7,1.7-4.1,2.8-6.7,2.8h-9.3v-19h9.3
					C333.4,201.3,337.7,205.6,337.7,210.8z"/>
			</g>
		</g>
		<g>
			<g>
				<path class="st3" d="M162.5,244h9.3v19h-9.3c-5.3,0-9.5-4.2-9.5-9.5c0-2.6,1.1-5,2.8-6.7C157.5,245.1,159.9,244,162.5,244z"/>
			</g>
		</g>
		<g>
			<g>
				<rect x="190.8" y="244" class="st3" width="66.3" height="19"/>
			</g>
		</g>
		<g>
			<g>
				<path class="st3" d="M337.7,253.5c0,2.6-1.1,5-2.8,6.7c-1.7,1.7-4.1,2.8-6.7,2.8h-52v-19h52C333.4,244,337.7,248.3,337.7,253.5z
					"/>
			</g>
		</g>
		<g>
			<g>
				<path class="st4" d="M318.9,106.6v52h-19v-52c0-5.3,4.3-9.5,9.5-9.5c2.6,0,5,1.1,6.7,2.8C317.8,101.6,318.9,104,318.9,106.6z"/>
			</g>
		</g>
		<g>
			<g>
				<rect x="299.8" y="177.6" class="st4" width="19" height="66.3"/>
			</g>
		</g>
		<g>
			<g>
				<path class="st4" d="M299.8,263h19v9.3c0,5.3-4.2,9.5-9.5,9.5c-2.6,0-5-1.1-6.7-2.8c-1.7-1.7-2.8-4.1-2.8-6.7V263z"/>
			</g>
		</g>
		<g>
			<g>
				<path class="st4" d="M276.2,106.6v9.3h-19v-9.3c0-5.3,4.3-9.5,9.5-9.5c2.6,0,5,1.1,6.7,2.8C275.1,101.6,276.2,104,276.2,106.6z"
					/>
			</g>
		</g>
		<g>
			<g>
				<rect x="257.1" y="134.9" class="st4" width="19" height="66.3"/>
			</g>
		</g>
		<g>
			<g>
				<path class="st4" d="M276.2,220.3v52c0,5.3-4.3,9.5-9.5,9.5c-2.6,0-5-1.1-6.7-2.8c-1.7-1.7-2.8-4.1-2.8-6.7v-52H276.2z"/>
			</g>
		</g>
		<g>
			<g>
				<path class="st4" d="M233.5,106.6v52h-19v-52c0-5.3,4.3-9.5,9.5-9.5c2.6,0,5,1.1,6.7,2.8C232.4,101.6,233.5,104,233.5,106.6z"/>
			</g>
		</g>
		<g>
			<g>
				<rect x="214.5" y="177.6" class="st4" width="19" height="66.3"/>
			</g>
		</g>
		<g>
			<g>
				<path class="st4" d="M233.5,263v9.3c0,5.3-4.3,9.5-9.5,9.5c-2.6,0-5-1.1-6.7-2.8c-1.7-1.7-2.8-4.1-2.8-6.7V263H233.5z"/>
			</g>
		</g>
		<g>
			<g>
				<path class="st4" d="M190.8,106.6v9.3h-19v-9.3c0-5.3,4.2-9.5,9.5-9.5c2.6,0,5,1.1,6.7,2.8C189.7,101.6,190.8,104,190.8,106.6z"
					/>
			</g>
		</g>
		<g>
			<g>
				<rect x="171.8" y="134.9" class="st4" width="19" height="66.3"/>
			</g>
		</g>
		<g>
			<g>
				<path class="st4" d="M190.8,220.3v52c0,5.3-4.3,9.5-9.5,9.5c-2.6,0-5-1.1-6.7-2.8c-1.7-1.7-2.8-4.1-2.8-6.7v-52H190.8z"/>
			</g>
		</g>
	</g>
	<path class="st2" d="M328.1,181.2c3.5,0,6.8-1.4,9.3-3.8c2.5-2.5,3.8-5.8,3.8-9.3c0-7.2-5.9-13.1-13.1-13.1h-5.7v-16.5h5.7
		c3.5,0,6.8-1.4,9.3-3.8c2.5-2.5,3.8-5.8,3.8-9.3c0-7.2-5.9-13.1-13.1-13.1h-5.7v-5.7c0-3.5-1.4-6.8-3.8-9.3
		c-2.5-2.5-5.7-3.9-9.3-3.9c-7.2,0-13.1,5.9-13.1,13.1v5.7h-7.6c-2,0-3.6,1.6-3.6,3.6s1.6,3.6,3.6,3.6h7.6v11.8h-20.1h-19h-20v-11.8
		h20h4.6h14.4c2,0,3.6-1.6,3.6-3.6v-9.3c0-3.5-1.4-6.8-3.8-9.3c-2.5-2.5-5.8-3.8-9.3-3.8c-7.2,0-13.1,5.9-13.1,13.1v5.7h-16.5v-5.7
		c0-3.5-1.4-6.8-3.8-9.3c-2.5-2.5-5.8-3.8-9.3-3.8c-7.2,0-13.1,5.9-13.1,13.1v5.7h-16.5v-5.7c0-3.5-1.4-6.8-3.8-9.3
		s-5.8-3.8-9.3-3.8c-7.2,0-13.1,5.9-13.1,13.1v5.7h-5.7c-3.5,0-6.8,1.4-9.3,3.8c-2.5,2.5-3.9,5.7-3.9,9.3c0,7.2,5.9,13.1,13.1,13.1
		h5.7V155h-5.7c-3.5,0-6.8,1.4-9.3,3.8c-2.5,2.5-3.8,5.8-3.8,9.3c0,7.2,5.9,13.1,13.1,13.1h5.7v16.5h-5.7c-3.5,0-6.8,1.4-9.3,3.8
		c-2.5,2.5-3.8,5.8-3.8,9.3c0,7.2,5.9,13.1,13.1,13.1h5.7v16.5h-5.7c-3.5,0-6.8,1.4-9.3,3.8c-2.5,2.5-3.8,5.8-3.8,9.3
		c0,7.2,5.9,13.1,13.1,13.1h5.7v5.7c0,3.5,1.4,6.8,3.8,9.3c2.5,2.5,5.7,3.9,9.3,3.9c7.2,0,13.1-5.9,13.1-13.1v-5.7h16.5v5.7
		c0,2,1.6,3.6,3.6,3.6c2,0,3.6-1.6,3.6-3.6v-5.7h11.9v5.7c0,1-0.3,2-0.8,2.9c-0.8,1.3-2,2.3-3.5,2.8c-0.5,0.2-1.1,0.2-1.7,0.2
		c-2,0-3.6,1.6-3.6,3.6c0,2,1.6,3.6,3.6,3.6c1.3,0,2.5-0.2,3.7-0.5c3.3-1,6-3.1,7.7-6.1c1.1-2,1.7-4.2,1.7-6.5v-5.7h16.5v5.7
		c0,3.5,1.4,6.8,3.8,9.3c2.5,2.5,5.8,3.8,9.3,3.8c7.2,0,13.1-5.9,13.1-13.1v-5.7h16.5v5.7c0,3.5,1.4,6.8,3.8,9.3
		c2.5,2.5,5.8,3.8,9.3,3.8c7.2,0,13.1-5.9,13.1-13.1v-5.7h5.7c3.5,0,6.8-1.4,9.3-3.8c2.5-2.5,3.9-5.8,3.9-9.3
		c0-7.2-5.9-13.1-13.1-13.1h-5.7v-16.5h5.7c3.5,0,6.8-1.4,9.3-3.8c2.5-2.5,3.8-5.8,3.8-9.3c0-7.2-5.9-13.1-13.1-13.1h-5.7v-16.5
		H328.1z M260.7,106.6c0-3.3,2.7-5.9,5.9-5.9c1.6,0,3.1,0.6,4.2,1.7c1.1,1.1,1.7,2.6,1.7,4.2v5.7h-10.8h-1V106.6z M334.1,168.1
		c0,1.6-0.6,3.1-1.7,4.2c-1.1,1.1-2.6,1.7-4.2,1.7h-9.3h-19h-20.1v-11.9h20.1h19h9.3C331.4,162.2,334.1,164.8,334.1,168.1z
		 M276.2,216.7h-19h-20v-11.9h20h19h20.1v11.9H276.2z M253.5,240.4h-16.5v-16.5h16.5V240.4z M194.4,240.4v-16.5h16.5v16.5H194.4z
		 M194.4,138.5h16.5V155h-16.5V138.5z M194.4,162.2h20.1h19h20V174h-20h-19h-20.1V162.2z M253.5,197.7h-16.5v-16.5h16.5V197.7z
		 M218,220.3v-19v-20h11.9v20v19v20.1H218V220.3z M296.2,197.7h-16.5v-16.5h16.5V197.7z M328.1,119.5c3.3,0,5.9,2.7,5.9,5.9
		c0,1.6-0.6,3.1-1.7,4.2c-1.1,1.1-2.6,1.7-4.2,1.7h-5.7v-11.8H328.1z M303.4,106.6c0-3.3,2.7-5.9,5.9-5.9c1.6,0,3.1,0.6,4.2,1.7
		c1.1,1.1,1.7,2.6,1.7,4.2v9.3v19V155h-11.8v-20.1v-19V106.6z M296.2,155h-16.5v-16.5h16.5V155z M272.6,138.5v20.1v19v20h-11.9v-20
		v-19v-20.1H272.6z M253.5,138.5V155h-16.5v-16.5H253.5z M218,106.6c0-3.3,2.7-5.9,5.9-5.9c1.6,0,3.1,0.6,4.2,1.7
		c1.1,1.1,1.7,2.6,1.7,4.2v9.3v19V155H218v-20.1v-19V106.6z M175.4,106.6c0-3.3,2.7-5.9,5.9-5.9c1.6,0,3.1,0.6,4.2,1.7
		c1.1,1.1,1.7,2.6,1.7,4.2v5.7h-11.8V106.6z M156.6,125.4c0-1.6,0.6-3.1,1.7-4.2c1.1-1.1,2.6-1.7,4.2-1.7h9.3h19h20.1v11.8h-20.1
		h-19h-9.3C159.2,131.3,156.6,128.7,156.6,125.4z M162.5,174c-3.3,0-5.9-2.7-5.9-5.9c0-1.6,0.6-3.1,1.7-4.2c1.1-1.1,2.6-1.7,4.2-1.7
		h5.7V174H162.5z M175.4,177.6v-19v-20.1h11.8v20.1v19v20h-8.8h-3.1V177.6z M156.6,210.8c0-1.6,0.6-3.1,1.7-4.2
		c1.1-1.1,2.6-1.7,4.2-1.7h9.3h6.7h12.4c2,0,3.6-1.6,3.6-3.6v-20h16.5v16.5h-4.2c-2,0-3.6,1.6-3.6,3.6s1.6,3.6,3.6,3.6h4.2v11.9
		h-20.1h-19h-9.3C159.2,216.7,156.6,214.1,156.6,210.8z M162.5,259.4c-3.3,0-5.9-2.7-5.9-5.9c0-1.6,0.6-3.1,1.7-4.2
		c1.1-1.1,2.6-1.7,4.2-1.7h5.7v11.8H162.5z M187.2,272.3c0,3.3-2.7,5.9-5.9,5.9c-1.6,0-3.1-0.6-4.2-1.7c-1.1-1.1-1.7-2.6-1.7-4.2
		V263v-19v-20.1h11.8V244v19V272.3z M233.5,259.4h-19h-20.1v-11.8h20.1h19h20v11.8H233.5z M272.6,272.3c0,3.3-2.7,5.9-5.9,5.9
		c-1.6,0-3.1-0.6-4.2-1.7c-1.1-1.1-1.7-2.6-1.7-4.2V263v-19v-20.1h11.9v3.2c0,2,1.6,3.6,3.6,3.6c2,0,3.6-1.6,3.6-3.6v-3.2h16.5v16.5
		h-20.1c-2,0-3.6,1.6-3.6,3.6v10.8v8.2V272.3z M315.3,272.3c0,3.3-2.7,5.9-5.9,5.9c-1.6,0-3.1-0.6-4.2-1.7c-1.1-1.1-1.7-2.6-1.7-4.2
		v-5.7h11.8V272.3z M334.1,253.5c0,1.6-0.6,3.1-1.7,4.2c-1.1,1.1-2.6,1.7-4.2,1.7h-9.3h-19h-20.1v-4.6v-7.2h20.1h19h9.3
		C331.4,247.6,334.1,250.2,334.1,253.5z M328.1,204.9c3.3,0,5.9,2.7,5.9,5.9c0,1.6-0.6,3.1-1.7,4.2c-1.1,1.1-2.6,1.7-4.2,1.7h-5.7
		v-11.9H328.1z M315.3,201.3v19v20.1h-11.8v-20.1v-19v-20h11.8V201.3z"/>
</g>
<path class="st2" d="M310.7,377H178.9c-5,0-9.1,4.1-9.1,9.1c0,5,4.1,9.1,9.1,9.1h131.7c5,0,9.1-4.1,9.1-9.1
	C319.8,381.1,315.7,377,310.7,377z"/>
<path class="st2" d="M239,335.4h-58.9c-5,0-9.1,4.1-9.1,9.1s4.1,9.1,9.1,9.1H239c5,0,9.1-4.1,9.1-9.1S244,335.4,239,335.4z"/>
<g>
	<g>
		<path class="st3" d="M310.7,440.4H178.9c-5,0-9.1-4.1-9.1-9.1c0-5,4.1-9.1,9.1-9.1h131.7c5,0,9.1,4.1,9.1,9.1
			C319.8,436.3,315.7,440.4,310.7,440.4z"/>
	</g>
</g>
</svg>
