<?xml version="1.0" encoding="utf-8"?>
<!-- Generator: Adobe Illustrator 26.1.0, SVG Export Plug-In . SVG Version: 6.00 Build 0)  -->
<svg version="1.1" id="Capa_1" xmlns="http://www.w3.org/2000/svg" xmlns:xlink="http://www.w3.org/1999/xlink" x="0px" y="0px"
	 viewBox="0 0 480 480" style="enable-background:new 0 0 480 480;" xml:space="preserve">
<style type="text/css">
	.st0{fill:#FF6326;}
	.st1{fill:#B1F236;}
	.st2{fill:#017A68;}
	.st3{fill:#F5C464;}
	.st4{fill:#FFD00D;}
	.st5{fill:#FFF7ED;}
	.st6{fill:#EE404C;}
	.st7{fill:#000053;}
</style>
<g>
	<g>
		<path class="st0" d="M64.4,394.9H49.1v19.2c0,18.5,15.1,33.5,33.6,33.5h219.5c18.5,0,33.6-15,33.6-73.5V41.9
			c0,21.5-15.1-9.5-33.6-9.5H82.6c-18.5,0-33.6,15-33.6,33.5v19.2h15.3c8.1,0,14.7,6.6,14.7,14.7c0,4.1-1.6,7.8-4.3,10.4
			c-2.7,2.6-6.4,4.3-10.4,4.3H49.1v60.6h15.3c8.1,0,14.7,6.7,14.7,14.7c0,4-1.6,7.8-4.3,10.4c-2.7,2.7-6.4,4.3-10.4,4.3H49.1v70.6
			h15.3c8.1,0,14.7,6.6,14.7,14.7c0,4-1.6,7.7-4.3,10.4c-2.7,2.7-6.4,4.4-10.4,4.4H49.1v60.6h15.3c8.1,0,14.7,6.6,14.7,14.7
			c0,4.1-1.6,7.8-4.3,10.4C72.1,393.2,68.4,394.9,64.4,394.9z"/>
	</g>
	<g>
		<rect x="397.8" y="103.8" class="st1" width="62.3" height="271.6"/>
	</g>
	<g>
		<path class="st2" d="M432.3,36.9h-6.8c-15.3,0-27.8,12.4-27.8,27.8v39.1h62.3V64.7C460.1,49.4,447.7,36.9,432.3,36.9z"/>
	</g>
	<g>
		<polygon class="st3" points="397.8,375.4 428.9,439.1 460.1,375.4 		"/>
	</g>
	<g>
		<path class="st4" d="M335.7,414.1V65.9c0-18.5-15.1-33.5-33.6-33.5H109.7v415.2h192.4C320.6,447.6,335.7,432.6,335.7,414.1z"/>
	</g>
	<g>
		<path class="st5" d="M274.9,179.9c9.4,0,17-7.6,17-17v-52.6c0-9.4-7.6-17-17-17h-98c-9.4,0-17,7.6-17,17v52.6c0,9.4,7.6,17,17,17
			H274.9z"/>
	</g>
	<g>
		<g>
			<path class="st6" d="M64.4,114.6c4,0,7.8-1.7,10.4-4.3c2.7-2.7,4.3-6.4,4.3-10.4c0-8.1-6.6-14.7-14.7-14.7H33.8
				c-4.1,0-7.8,1.7-10.4,4.3c-2.6,2.7-4.3,6.4-4.3,10.4c0,8.1,6.6,14.7,14.7,14.7H64.4z"/>
		</g>
		<g>
			<path class="st6" d="M64.4,204.7c4,0,7.8-1.6,10.4-4.3c2.7-2.7,4.3-6.4,4.3-10.4c0-8.1-6.6-14.7-14.7-14.7H33.8
				c-4.1,0-7.8,1.7-10.4,4.4c-2.6,2.7-4.3,6.4-4.3,10.4c0,8.1,6.6,14.7,14.7,14.7H64.4z"/>
		</g>
		<g>
			<path class="st6" d="M64.4,304.8c4,0,7.8-1.7,10.4-4.4c2.7-2.7,4.3-6.4,4.3-10.4c0-8.1-6.6-14.7-14.7-14.7H33.8
				c-4.1,0-7.8,1.6-10.4,4.3c-2.6,2.7-4.3,6.4-4.3,10.4c0,8.1,6.6,14.7,14.7,14.7H64.4z"/>
		</g>
		<g>
			<path class="st6" d="M64.4,394.9c4,0,7.8-1.7,10.4-4.3c2.7-2.7,4.3-6.4,4.3-10.4c0-8.1-6.6-14.7-14.7-14.7H33.8
				c-4.1,0-7.8,1.7-10.4,4.3c-2.6,2.7-4.3,6.4-4.3,10.4c0,8.1,6.6,14.7,14.7,14.7H64.4z"/>
		</g>
	</g>
	<path class="st7" d="M389.8,379.1c0,0.1,0,0.1,0.1,0.2l31.1,63.7c1.5,3,4.5,4.9,7.9,4.9c3.4,0,6.4-1.9,7.9-4.9l31.1-63.7
		c0-0.1,0-0.1,0.1-0.2c0.3-0.6,0.5-1.3,0.7-1.9c0,0,0,0,0,0c0.1-0.6,0.2-1.1,0.2-1.7V103.8V64.7c0-20.1-16.4-36.5-36.5-36.5h-6.8
		c-20.1,0-36.5,16.4-36.5,36.5v39.1v271.6c0,0.6,0.1,1.2,0.2,1.7c0,0,0,0,0,0C389.3,377.8,389.6,378.4,389.8,379.1z M428.9,419.1
		l-17.1-34.9H446L428.9,419.1z M406.6,64.7c0-10.5,8.5-19,19-19h6.8c10.5,0,19,8.5,19,19v30.4h-44.7V64.7z M406.6,112.6h44.7v254
		h-44.7V112.6z"/>
	<path class="st7" d="M274.9,187.9c13.8,0,24.9-11.2,24.9-24.9v-52.6c0-13.8-11.2-24.9-24.9-24.9h-98c-13.8,0-24.9,11.2-24.9,24.9
		v52.6c0,13.8,11.2,24.9,24.9,24.9H274.9z M167.9,162.9v-52.6c0-5,4.1-9.1,9.1-9.1h98c5,0,9.1,4.1,9.1,9.1v52.6c0,5-4.1,9.1-9.1,9.1
		h-98C171.9,172,167.9,167.9,167.9,162.9z"/>
	<path class="st7" d="M343.6,274.8v-6.3c0-4.4-3.6-7.9-7.9-7.9s-7.9,3.6-7.9,7.9v6.3c0,4.4,3.6,7.9,7.9,7.9S343.6,279.2,343.6,274.8
		z"/>
	<path class="st7" d="M33.8,357.4c-6,0-11.7,2.3-16.1,6.7c-4.3,4.3-6.6,10-6.6,16c0,12.5,10.2,22.7,22.7,22.7h7.3v11.3
		c0,22.9,18.6,41.5,41.5,41.5h26.9c0.1,0,0.1,0,0.2,0c0.1,0,0.1,0,0.2,0h192.2c22.9,0,41.5-18.6,41.5-41.5v-94.3
		c0-4.4-3.6-7.9-7.9-7.9s-7.9,3.6-7.9,7.9v94.3c0,14.1-11.5,25.6-25.6,25.6H117.7V40.3h184.5c14.1,0,25.6,11.5,25.6,25.6v137.8
		c0,4.4,3.6,7.9,7.9,7.9s7.9-3.6,7.9-7.9V65.9c0-22.9-18.6-41.5-41.5-41.5H109.9c-0.1,0-0.1,0-0.2,0c-0.1,0-0.1,0-0.2,0H82.6
		c-22.9,0-41.5,18.6-41.5,41.5v11.3h-7.3c-6,0-11.7,2.3-16.1,6.7c-4.3,4.3-6.6,10-6.6,16c0,12.5,10.2,22.7,22.7,22.7h7.3v44.7h-7.3
		c-6,0-11.7,2.4-16.1,6.7c-4.2,4.3-6.6,10-6.6,16c0,12.5,10.2,22.7,22.7,22.7h7.3v54.8h-7.3c-6.1,0-11.8,2.4-16.1,6.7
		c-4.2,4.3-6.6,10.1-6.6,16c0,12.5,10.2,22.7,22.7,22.7h7.3v44.7H33.8z M57,65.9c0-14.1,11.5-25.6,25.6-25.6h19.1v399.3H82.6
		c-14.1,0-25.6-11.5-25.6-25.6v-11.3h7.3c5.9,0,11.7-2.4,16.1-6.6c4.3-4.3,6.6-10,6.6-16c0-12.5-10.2-22.7-22.7-22.7H57v-44.7h7.3
		c5.9,0,11.8-2.4,16-6.7c4.3-4.3,6.6-10,6.6-16c0-12.5-10.2-22.7-22.7-22.7H57v-54.8h7.3c6.1,0,11.8-2.4,16.1-6.6
		c4.3-4.3,6.6-10,6.6-16c0-12.5-10.2-22.7-22.7-22.7H57v-44.7h7.3c5.9,0,11.7-2.4,16.1-6.6c4.3-4.3,6.6-10,6.6-16
		c0-12.5-10.2-22.7-22.7-22.7H57V65.9z M33.8,106.7c-3.8,0-6.8-3.1-6.8-6.8c0-1.8,0.7-3.5,1.9-4.8c1.3-1.3,3.1-2,4.9-2h30.5
		c3.8,0,6.8,3.1,6.8,6.8c0,1.8-0.7,3.5-1.9,4.8c-1.3,1.3-3.1,2-4.9,2H33.8z M33.8,196.7c-3.8,0-6.8-3.1-6.8-6.8c0-1.8,0.7-3.5,2-4.8
		c1.3-1.3,3-2,4.8-2h30.5c3.7,0,6.8,3.1,6.8,6.8c0,1.8-0.7,3.5-2,4.8c-1.3,1.3-3,2-4.8,2H33.8z M33.8,296.9c-3.7,0-6.8-3.1-6.8-6.8
		c0-1.8,0.7-3.6,2-4.8c1.3-1.3,3-2,4.8-2h30.5c3.8,0,6.8,3.1,6.8,6.8c0,1.8-0.7,3.5-2,4.8c-1.3,1.3-3.1,2-4.8,2H33.8z M64.4,373.3
		c3.8,0,6.8,3.1,6.8,6.8c0,1.8-0.7,3.5-1.9,4.8c-1.3,1.3-3.1,2-4.9,2H33.8c-3.8,0-6.8-3.1-6.8-6.8c0-1.8,0.7-3.5,1.9-4.8
		c1.3-1.3,3.1-2,4.9-2H64.4z"/>
</g>
</svg>
