<?xml version="1.0" encoding="utf-8"?>
<!-- Generator: Adobe Illustrator 26.1.0, SVG Export Plug-In . SVG Version: 6.00 Build 0)  -->
<svg version="1.1" id="Layer_1" xmlns="http://www.w3.org/2000/svg" xmlns:xlink="http://www.w3.org/1999/xlink" x="0px" y="0px"
	 viewBox="0 0 512 512" style="enable-background:new 0 0 512 512;" xml:space="preserve">
<style type="text/css">
	.st0{fill:#62E8A2;}
	.st1{fill:#FFCC29;}
	.st2{fill:#FED7C6;}
	.st3{fill:#000053;}
</style>
<g>
	<g>
		<rect x="187.4" y="461.7" class="st0" width="183" height="42.7"/>
	</g>
	<g>
		<circle class="st1" cx="210.2" cy="137.3" r="60.9"/>
	</g>
	<g>
		<path class="st2" d="M187.4,461.7l-38.5-57.8c-4.7-7-7.2-15.3-7.2-23.8v-61.4c0-8.4,4.9-16,12.5-19.5l33.2-15.2V137.3
			c0-12.6,10.2-22.9,22.9-22.9l0,0c12.6,0,22.9,10.2,22.9,22.9v125.3c0-12.6,10.2-22.9,22.9-22.9c12.6,0,22.9,10.2,22.9,22.9v4.3
			c0-12.6,10.2-22.9,22.9-22.9c12.6,0,22.9,10.2,22.9,22.9v4.3c0-12.6,10.2-22.9,22.9-22.9c12.6,0,22.9,10.2,22.9,22.9v190.6H187.4z
			"/>
	</g>
	<g>
		<path class="st3" d="M347.5,240.8c-8.1,0-15.6,3.2-21,8.5c-5.5-7.7-14.5-12.8-24.7-12.8c-8.1,0-15.6,3.2-21,8.5
			c-5.5-7.7-14.5-12.8-24.7-12.8c-5.6,0-10.9,1.5-15.4,4.2v-37.8c23.3-11.5,38-35,38-61.3c0-37.7-30.7-68.4-68.4-68.4
			c-34.9,0-64.1,26.1-68,60.7c-0.5,4.1,2.5,7.8,6.6,8.3c4.1,0.5,7.8-2.5,8.3-6.6c3-27,25.8-47.4,53.1-47.4c29.4,0,53.4,24,53.4,53.4
			c0,17.9-8.8,34.1-23,43.9v-43.9c0-16.8-13.6-30.4-30.4-30.4c-16.8,0-30.4,13.6-30.4,30.4v43.9c-6.5-4.5-11.9-10.3-15.9-17.2
			c-2.1-3.6-6.7-4.8-10.3-2.7c-3.6,2.1-4.8,6.7-2.7,10.3c6.7,11.7,16.9,21.1,28.9,27.1v80.7L151,292.4c-10.3,4.7-16.9,15-16.9,26.3
			v61.4c0,10,2.9,19.7,8.5,28l37.3,55.9v40.5c0,4.1,3.4,7.5,7.5,7.5c4.1,0,7.5-3.4,7.5-7.5v-35.2h168v35.2c0,4.1,3.4,7.5,7.5,7.5
			c4.1,0,7.5-3.4,7.5-7.5V428c0-4.1-3.4-7.5-7.5-7.5c-4.1,0-7.5,3.4-7.5,7.5v26.3H191.4l-36.3-54.5c-3.9-5.8-5.9-12.6-5.9-19.6
			v-61.4c0-5.4,3.2-10.4,8.1-12.7l22.6-10.3v55c0,4.1,3.4,7.5,7.5,7.5c4.1,0,7.5-3.4,7.5-7.5V137.3c0-8.5,6.9-15.4,15.4-15.4
			c8.5,0,15.4,6.9,15.4,15.4v125.3c0,4.1,3.4,7.5,7.5,7.5c4.1,0,7.5-3.4,7.5-7.5c0-8.5,6.9-15.4,15.4-15.4c8.5,0,15.4,6.9,15.4,15.4
			v4.3c0,4.1,3.4,7.5,7.5,7.5c4.1,0,7.5-3.4,7.5-7.5c0-8.5,6.9-15.4,15.4-15.4c8.5,0,15.4,6.9,15.4,15.4v4.3c0,4.1,3.4,7.5,7.5,7.5
			c4.1,0,7.5-3.4,7.5-7.5c0-8.5,6.9-15.4,15.4-15.4c8.5,0,15.4,6.9,15.4,15.4v56.5c0,4.1,3.4,7.5,7.5,7.5c4.1,0,7.5-3.4,7.5-7.5
			v-56.5C377.9,254.4,364.3,240.8,347.5,240.8z"/>
		<path class="st3" d="M370.4,361.5c-4.1,0-7.5,3.4-7.5,7.5v19.3c0,4.1,3.4,7.5,7.5,7.5c4.1,0,7.5-3.4,7.5-7.5V369
			C377.9,364.9,374.5,361.5,370.4,361.5z"/>
		<path class="st3" d="M210.2,50.4c4.1,0,7.5-3.4,7.5-7.5V9.5c0-4.1-3.4-7.5-7.5-7.5c-4.1,0-7.5,3.4-7.5,7.5v33.4
			C202.7,47.1,206.1,50.4,210.2,50.4z"/>
		<path class="st3" d="M156.6,59.3c1.4,2.4,3.9,3.8,6.5,3.8c1.3,0,2.6-0.3,3.7-1c3.6-2.1,4.8-6.7,2.7-10.3l-16.7-28.9
			c-2.1-3.6-6.7-4.8-10.3-2.7c-3.6,2.1-4.8,6.7-2.7,10.3L156.6,59.3z"/>
		<path class="st3" d="M253.7,62.1c1.2,0.7,2.5,1,3.7,1c2.6,0,5.1-1.3,6.5-3.8l16.7-28.9c2.1-3.6,0.8-8.2-2.7-10.3
			c-3.6-2.1-8.2-0.8-10.3,2.7l-16.7,28.9C248.8,55.4,250.1,60,253.7,62.1z"/>
	</g>
</g>
</svg>
