<?xml version="1.0" encoding="utf-8"?>
<!-- Generator: Adobe Illustrator 26.1.0, SVG Export Plug-In . SVG Version: 6.00 Build 0)  -->
<svg version="1.1" id="Layer_1" xmlns="http://www.w3.org/2000/svg" xmlns:xlink="http://www.w3.org/1999/xlink" x="0px" y="0px"
	 viewBox="0 0 512 512" style="enable-background:new 0 0 512 512;" xml:space="preserve">
<style type="text/css">
	.st0{fill:#FF1F3E;}
	.st1{fill:#17669F;}
	.st2{fill:#FFB354;}
	.st3{fill:#FFE997;}
	.st4{fill:#000053;}
</style>
<g>
	<g>
		<polygon class="st0" points="448.3,493.8 63.9,493.8 134.7,180 377.5,180 		"/>
		<rect x="16.8" y="369.9" class="st1" width="94.2" height="34.9"/>
		<rect x="37.8" y="81.9" class="st2" width="52.2" height="288"/>
		<circle class="st3" cx="63.9" cy="62.3" r="47.1"/>
		<rect x="401.2" y="369.9" class="st1" width="94.2" height="34.9"/>
		<rect x="422.2" y="81.9" class="st2" width="52.2" height="288"/>
		<circle class="st3" cx="448.3" cy="62.3" r="47.1"/>
	</g>
	<g>
		<path class="st4" d="M448.3,443.5c-1.4-6-7.3-9.8-13.4-8.4c-6,1.4-9.8,7.3-8.4,13.4l7.7,34.2H77.8l15-66.7h18.1
			c6.2,0,11.2-5,11.2-11.2v-34.9c0-6.2-5-11.2-11.2-11.2h-9.8V123.9c41.9,19.2,97.1,30,154.9,30c46,0,90.4-6.7,128.2-19.4
			c5.9-2,9-8.3,7-14.2c-2-5.9-8.3-9-14.2-7c-35.5,12-77.4,18.3-121,18.3c-56.6,0-110.1-10.8-149.4-29.8
			c9.6-10.4,15.5-24.2,15.5-39.5c0-19.4-9.6-37.5-25.7-48.3c-5.1-3.5-12.1-2.1-15.5,3c-3.5,5.1-2.1,12.1,3,15.5
			c9.9,6.7,15.8,17.8,15.8,29.8c0,19.8-16.1,35.9-35.9,35.9S27.9,82.1,27.9,62.3c0-4.8,0.9-9.6,2.8-14c2.4-5.7-0.2-12.2-5.9-14.6
			c-5.7-2.4-12.2,0.2-14.6,5.9C7,46.8,5.5,54.4,5.5,62.3c0,32.1,26.2,58.3,58.3,58.3c5.2,0,10.1-0.7,14.9-2v240.2H48.9V147.3
			c0-6.2-5-11.2-11.2-11.2s-11.2,5-11.2,11.2v211.4h-9.9c-6.2,0-11.2,5-11.2,11.2v34.9c0,6.2,5,11.2,11.2,11.2h53.2l-17,75.4
			c-0.7,3.3,0,6.8,2.2,9.4c2.1,2.7,5.3,4.2,8.7,4.2h384.4c3.4,0,6.6-1.5,8.7-4.2c2.1-2.7,2.9-6.1,2.2-9.4L448.3,443.5z M27.9,381.1
			h71.9v12.5H27.9V381.1z"/>
		<path class="st4" d="M45.8,29.9c1.4,0,2.9-0.3,4.3-0.9c1.4-0.6,2.8-1.1,4.3-1.5c6-1.6,9.5-7.8,7.9-13.7c-1.6-6-7.7-9.4-13.7-7.9
			c-2.4,0.6-4.7,1.5-7,2.4c-5.7,2.4-8.4,8.9-6,14.6C37.2,27.3,41.4,29.9,45.8,29.9z"/>
		<path class="st4" d="M495.3,358.7h-62V118.6c4.8,1.3,9.7,2,14.9,2c5.2,0,10.1-0.7,14.9-2V274c0,6.2,5,11.2,11.2,11.2
			s11.2-5,11.2-11.2V107.1c12.8-10.7,21-26.8,21-44.8c0-32.1-26.2-58.3-58.3-58.3c-32.1,0-58.3,26.2-58.3,58.3
			c0,18,8.2,34.1,21,44.8v170.8l-22.7-100.4c-1.1-5.1-5.7-8.7-10.9-8.7H134.6c-5.2,0-9.8,3.6-10.9,8.7l-13.1,57.8
			c-1.4,6,2.4,12,8.4,13.4c6,1.3,12-2.4,13.4-8.4l11.1-49.1h224.9l37.8,167.6h-5.2c-6.2,0-11.2,5-11.2,11.2v34.9
			c0,6.2,5,11.2,11.2,11.2h94.2c6.2,0,11.2-5,11.2-11.2v-34.9C506.5,363.7,501.5,358.7,495.3,358.7z M448.2,26.4
			c19.8,0,35.9,16.1,35.9,35.9S468,98.2,448.2,98.2s-35.9-16.1-35.9-35.9S428.4,26.4,448.2,26.4z M484.1,393.6h-71.9v-12.5h71.9
			V393.6z"/>
		<path class="st4" d="M474.3,307.2c-6.2,0-11.2,5-11.2,11.2v9.6c0,6.2,5,11.2,11.2,11.2s11.2-5,11.2-11.2v-9.6
			C485.5,312.2,480.5,307.2,474.3,307.2z"/>
	</g>
</g>
</svg>
