<?xml version="1.0" encoding="utf-8"?>
<!-- Generator: Adobe Illustrator 26.1.0, SVG Export Plug-In . SVG Version: 6.00 Build 0)  -->
<svg version="1.1" id="Capa_1" xmlns="http://www.w3.org/2000/svg" xmlns:xlink="http://www.w3.org/1999/xlink" x="0px" y="0px"
	 viewBox="0 0 512 512" style="enable-background:new 0 0 512 512;" xml:space="preserve">
<style type="text/css">
	.st0{fill:#D4D4FA;}
	.st1{fill:#3E4166;}
</style>
<g id="Alien">
	<g>
		<path class="st0" d="M424.9,491.4h-47.5c-4.8,0-9-3.1-10.5-7.6l-26.7-80.1c-9.1-27.2-34.5-45.5-63.1-45.5h55.5
			c28.6,0,54,18.3,63.1,45.5L424.9,491.4z"/>
	</g>
	<g>
		<path class="st0" d="M378,169.6C378,237,323.4,336,256,336c-11.5,0-22.7-2.9-33.3-8.1c51.3-24.9,88.8-102.4,88.8-158.3
			s-37.5-103-88.8-117.4c10.5-3.1,21.7-4.7,33.3-4.7C323.4,47.5,378,102.1,378,169.6z"/>
	</g>
	<g>
		<path class="st1" d="M256,352.7c-80.5,0-138.7-109.4-138.7-183.1c0-76.5,62.2-138.7,138.7-138.7s138.7,62.2,138.7,138.7
			C394.6,243.3,336.4,352.7,256,352.7z M256,64.2c-58.1,0-105.4,47.3-105.4,105.4c0,57.8,48.2,149.8,105.4,149.8
			s105.4-92,105.4-149.8C361.4,111.5,314.1,64.2,256,64.2z"/>
	</g>
	<g>
		<path class="st1" d="M422.4,508c-7,0-13.5-4.4-15.8-11.4L377.4,409c-6.8-20.4-25.8-34.1-47.4-34.1H181.9
			c-21.5,0-40.6,13.7-47.4,34.1l-21.9,65.7h188.2c9.2,0,16.6,7.4,16.6,16.6c0,9.2-7.4,16.6-16.6,16.6H89.5c-5.3,0-10.4-2.6-13.5-6.9
			c-3.1-4.3-4-9.9-2.3-15l29.2-87.6c11.3-34,43.1-56.9,78.9-56.9H330c35.9,0,67.6,22.9,78.9,56.9l29.2,87.6
			c2.9,8.7-1.8,18.1-10.5,21C425.9,507.7,424.1,508,422.4,508z"/>
	</g>
	<g>
		<path class="st1" d="M350.9,508c-1,0-2.1-0.1-3.2-0.3c-1.1-0.2-2.1-0.6-3.1-1c-1-0.3-2-0.9-2.9-1.4c-0.9-0.7-1.8-1.3-2.6-2.1
			c-0.8-0.8-1.4-1.7-2.1-2.6c-0.6-0.9-1.1-1.9-1.4-2.9c-0.4-1-0.8-2-1-3.1c-0.2-1-0.3-2.1-0.3-3.2c0-1.1,0.1-2.2,0.3-3.2
			c0.2-1.1,0.6-2.1,1-3.1c0.3-1,0.9-2,1.4-2.9c0.7-1,1.3-1.8,2.1-2.6c0.8-0.8,1.7-1.4,2.6-2.1c0.9-0.6,1.9-1.1,2.9-1.6
			c1-0.3,2-0.7,3.1-0.9c2.1-0.4,4.3-0.4,6.5,0c1,0.2,2.1,0.6,3.1,0.9c1,0.4,1.9,1,2.9,1.6c0.9,0.7,1.7,1.3,2.4,2.1
			c0.8,0.8,1.4,1.5,2.1,2.6c0.6,0.9,1.1,1.9,1.5,2.9c0.3,1,0.7,2,0.9,3.1c0.2,1,0.3,2.1,0.3,3.2c0,1.1-0.1,2.2-0.3,3.2
			c-0.2,1.1-0.6,2.1-0.9,3.1c-0.4,1-1,2-1.5,2.9c-0.7,0.9-1.3,1.8-2.1,2.6c-0.8,0.8-1.5,1.4-2.4,2.1c-1,0.6-1.9,1.1-2.9,1.4
			c-1,0.4-2.1,0.8-3.1,1C353.1,507.9,352,508,350.9,508z"/>
	</g>
	<g>
		<path class="st1" d="M222.7,197.3c-4.3,0-8.5-1.6-11.8-4.9l-11.1-11.1c-6.5-6.5-6.5-17,0-23.5c6.5-6.5,17-6.5,23.5,0l11.1,11.1
			c6.5,6.5,6.5,17,0,23.5C231.2,195.7,226.9,197.3,222.7,197.3z"/>
	</g>
	<g>
		<path class="st1" d="M289.2,197.3c-4.3,0-8.5-1.6-11.8-4.9c-6.5-6.5-6.5-17,0-23.5l11.1-11.1c6.5-6.5,17-6.5,23.5,0
			c6.5,6.5,6.5,17,0,23.5L301,192.5C297.8,195.7,293.5,197.3,289.2,197.3z"/>
	</g>
	<g>
		<g>
			<path class="st1" d="M243.1,47.4c-4.3,0-8.5-1.6-11.8-4.9l-11.1-11.1c-6.5-6.5-6.5-17,0-23.5c6.5-6.5,17-6.5,23.5,0L254.9,19
				c6.5,6.5,6.5,17,0,23.5C251.6,45.8,247.4,47.4,243.1,47.4z"/>
		</g>
		<g>
			<path class="st1" d="M268.8,47.4c-4.3,0-8.5-1.6-11.8-4.9c-6.5-6.5-6.5-17,0-23.5l11.1-11.1c6.5-6.5,17-6.5,23.5,0
				c6.5,6.5,6.5,17,0,23.5l-11.1,11.1C277.3,45.8,273.1,47.4,268.8,47.4z"/>
		</g>
	</g>
</g>
</svg>
