<?xml version="1.0" encoding="utf-8"?>
<!-- Generator: Adobe Illustrator 26.1.0, SVG Export Plug-In . SVG Version: 6.00 Build 0)  -->
<svg version="1.1" id="Capa_1" xmlns="http://www.w3.org/2000/svg" xmlns:xlink="http://www.w3.org/1999/xlink" x="0px" y="0px"
	 viewBox="0 0 512 512" style="enable-background:new 0 0 512 512;" xml:space="preserve">
<style type="text/css">
	.st0{fill:#FD3A69;}
	.st1{fill:#9D0191;}
	.st2{fill:#FECD1A;}
	.st3{fill:#000053;}
</style>
<g>
	<g>
		<g>
			<path class="st0" d="M422.2,187.7l-114.7,17.9c-4.2-27-27.5-47.6-55.6-47.6c-11.1,0-21.4,3.2-30.1,8.7l-7-44.6l-1.7-11
				c-1.9-12.2,6.5-23.6,18.6-25.5L402.1,59L422.2,187.7z"/>
		</g>
		<g>
			<path class="st1" d="M221.8,166.7L221.8,166.7c-8.4,5.3-15.2,12.7-19.8,21.5L69.8,208.8l-9.7-62.4l154.8-24.2L221.8,166.7z"/>
		</g>
		<g>
			<path class="st2" d="M70.5,230.3l-42.4,6.6c-1.4,0.2-2.8-0.8-3-2.2L9.5,135.4c-0.2-1.4,0.8-2.8,2.2-3l42.4-6.6
				c1.4-0.2,2.8,0.8,3,2.2l15.5,99.3C72.9,228.7,71.9,230.1,70.5,230.3z"/>
		</g>
		<g>
			<path class="st2" d="M431.3,215.9l68.5-10.7c2.5-0.4,4.3-2.8,3.9-5.3L475.9,22.5c-0.4-2.5-2.8-4.3-5.3-3.9l-68.5,10.7
				c-2.5,0.4-4.3,2.8-3.9,5.3L426,212C426.4,214.5,428.8,216.3,431.3,215.9z"/>
		</g>
		<g>
			<path class="st2" d="M308.2,214.3c0,1.8-0.1,3.6-0.2,5.4c-2,20.8-15.4,38.4-33.8,46.3c-6.8,3-14.3,4.6-22.3,4.6
				c-7.9,0-15.5-1.6-22.3-4.6c-18.5-7.9-31.8-25.5-33.7-46.4c-0.1-1.7-0.2-3.5-0.2-5.3c0-9.5,2.3-18.3,6.4-26.1
				c4.6-8.7,11.4-16.1,19.8-21.4v-0.1c8.7-5.5,19-8.7,30.1-8.7c28.1,0,51.5,20.7,55.6,47.6C308,208.5,308.2,211.4,308.2,214.3z"/>
		</g>
		<g>
			<path class="st3" d="M269.2,214.3c0,0.5,0,1.1-0.1,1.6c-0.6,6.4-4.7,11.8-10.4,14.2c-2.1,0.9-4.4,1.4-6.8,1.4
				c-2.4,0-4.8-0.5-6.9-1.4c-5.7-2.4-9.8-7.8-10.4-14.2c0-0.5-0.1-1.1-0.1-1.6c0-2.9,0.7-5.6,2-8c1.4-2.7,3.5-5,6.1-6.6v0
				c2.7-1.7,5.8-2.7,9.2-2.7c8.6,0,15.8,6.3,17.1,14.6C269.1,212.5,269.2,213.4,269.2,214.3z"/>
		</g>
		<g>
			<path class="st0" d="M401.5,469.1c-12.4,4.9-26.5-1.3-31.3-13.7L274.2,266c18.4-7.9,31.8-25.5,33.8-46.3l107.3,218.2
				C420.1,450.3,413.9,464.3,401.5,469.1z"/>
		</g>
		<g>
			<path class="st0" d="M229.6,266l-55.2,194.4c-4.9,12.4-18.9,18.6-31.3,13.7c-12.4-4.8-18.6-18.9-13.7-31.2l66.5-223.3
				C197.8,240.5,211.1,258.1,229.6,266z"/>
		</g>
	</g>
	<g>
		<path class="st3" d="M300.5,84.4c0.5,0,1,0,1.5-0.1l3.9-0.6c5.2-0.8,8.7-5.7,7.9-10.9c-0.8-5.2-5.6-8.7-10.9-7.9l-3.9,0.6
			c-5.2,0.8-8.7,5.7-7.9,10.9C291.8,81,295.9,84.4,300.5,84.4z"/>
		<path class="st3" d="M509.9,178L488.5,41.4c-1.4-9.2-6.4-17.2-13.8-22.7c-7.5-5.5-16.7-7.7-25.8-6.3L421,16.8
			c-9.2,1.4-17.2,6.3-22.7,13.8c-4.4,6-6.6,13.1-6.6,20.3l-34.6,5.4c-5.2,0.8-8.7,5.7-7.9,10.9c0.8,5.2,5.7,8.7,10.9,7.9l34.1-5.3
			l13.1,83.5l4.1,26.4l-96.6,15.1c-8.4-27.3-33.4-46.4-62.9-46.4c-7.8,0-15.5,1.4-22.7,4l-5-31.8c0,0,0-0.1,0-0.1l-1.7-10.9
			c-0.5-3.4,0.3-6.8,2.3-9.5c2-2.8,5-4.6,8.4-5.1l8.9-1.4c5.2-0.8,8.7-5.7,7.9-10.9c-0.8-5.2-5.7-8.7-10.9-7.9l-8.9,1.4
			c-8.4,1.3-15.8,5.8-20.8,12.7c-5,6.9-7.1,15.3-5.8,23.7l0.3,1.6L67.7,135.6C64.5,124,53.1,116.3,41,118.2l-19.2,3
			c-6.3,1-11.9,4.4-15.6,9.5c-3.8,5.2-5.3,11.5-4.3,17.8l11.9,76c1,6.3,4.4,11.9,9.5,15.6c4.1,3,9,4.6,14.1,4.6
			c1.2,0,2.5-0.1,3.8-0.3l19.2-3c6.3-1,11.9-4.4,15.6-9.5c3.2-4.4,4.7-9.7,4.5-15.1L187.7,200c-1,4.7-1.6,9.4-1.6,14.3
			c0,1.2,0.1,2.5,0.1,3.7l-65.8,221.4c-3.3,8.4-3.1,17.5,0.5,25.7c3.6,8.2,10.2,14.6,18.6,17.8c4,1.6,8.2,2.4,12.3,2.4
			c4.5,0,9.1-0.9,13.4-2.8c8.3-3.6,14.6-10.2,17.9-18.6l52-186c5.4,1.4,11,2.2,16.8,2.2c5.7,0,11.3-0.8,16.7-2.2l92.8,181
			c3.3,8.4,9.6,15,17.8,18.6c4.3,1.9,8.9,2.8,13.5,2.8c4.2,0,8.3-0.8,12.3-2.3c8.4-3.3,14.9-9.6,18.6-17.8
			c3.6-8.2,3.8-17.4,0.5-25.7L317.6,218.1c0.1-1.3,0.1-2.5,0.1-3.8c0-0.2,0-0.4,0-0.7l97.1-15.2c4.6,14.2,18,24,33,24
			c1.8,0,3.6-0.1,5.4-0.4l27.8-4.3c9.2-1.4,17.2-6.4,22.7-13.8C509.1,196.4,511.3,187.2,509.9,178z M206.9,133l4.6,29.5
			c-6,4.7-11.2,10.4-15.3,16.9L77.7,198l-0.5-3.1l-6.3-40.5L206.9,133z M60.6,220.7c-0.8,1.1-1.9,1.8-3.2,2l-19.2,3
			c-2.6,0.4-5.2-1.4-5.6-4.1l-11.9-76c-0.2-1.3,0.1-2.6,0.9-3.7c0.8-1.1,1.9-1.8,3.2-2l19.2-3c0.3,0,0.5-0.1,0.8-0.1
			c2.4,0,4.5,1.7,4.9,4.2l6.8,43.6l4,25.7c0,0.1,0,0.1,0,0.2l1,6.6C61.7,218.4,61.4,219.7,60.6,220.7z M165.5,457
			c-1.4,3.7-4.2,6.6-7.8,8.1c-3.6,1.5-7.5,1.6-11.2,0.2c-3.6-1.4-6.5-4.2-8.1-7.8c-1.6-3.6-1.7-7.5-0.2-11.2l57-198.9
			c5.5,9.3,13.1,17.3,22.5,23L165.5,457z M233.3,257.3c-15.7-6.7-26.4-21.5-28-38.5c-0.1-1.5-0.2-2.9-0.2-4.5
			c0-7.6,1.8-14.9,5.3-21.7c3.9-7.3,9.5-13.5,16.4-17.8c0.2-0.2,0.5-0.3,0.7-0.5c7.3-4.4,15.7-6.8,24.3-6.8
			c22.9,0,42.7,17,46.2,39.5c0.4,2.3,0.5,4.8,0.5,7.2c0,1.5-0.1,3-0.2,4.5c-1.6,17-12.4,31.7-28.1,38.5
			C258.7,262.4,245,262.4,233.3,257.3z M406.1,452.5c-1.6,3.6-4.4,6.3-8.1,7.8c-3.7,1.4-7.6,1.4-11.2-0.2c-3.6-1.6-6.3-4.4-7.7-8.1
			l-93-181.5c9.4-5.7,17-13.7,22.5-23l97.7,193.8C407.8,445,407.7,448.9,406.1,452.5z M488.3,192.7c-2.5,3.4-6.1,5.6-10.3,6.3
			l-27.8,4.3c-8.6,1.3-16.6-4.5-18-13.1l-0.6-3.9c0,0,0,0,0,0L411.5,57.5c0-0.1,0-0.1-0.1-0.2l-0.6-3.8c-0.6-4.1,0.4-8.3,2.8-11.7
			c2.5-3.4,6.1-5.6,10.3-6.3l27.8-4.3c0.8-0.1,1.6-0.2,2.5-0.2c3.3,0,6.5,1,9.2,3c3.4,2.5,5.6,6.1,6.3,10.3L491.1,181
			C491.7,185.1,490.7,189.3,488.3,192.7z"/>
	</g>
</g>
</svg>
