<?xml version="1.0" encoding="utf-8"?>
<!-- Generator: Adobe Illustrator 26.1.0, SVG Export Plug-In . SVG Version: 6.00 Build 0)  -->
<svg version="1.1" id="Capa_1" xmlns="http://www.w3.org/2000/svg" xmlns:xlink="http://www.w3.org/1999/xlink" x="0px" y="0px"
	 viewBox="0 0 512 512" style="enable-background:new 0 0 512 512;" xml:space="preserve">
<style type="text/css">
	.st0{fill:#000053;}
</style>
<g>
	<g id="Robocop_00000086684744950662706360000006193678990057577121_">
		<g>
			<path class="st0" d="M154.9,115.7c-0.3,0-0.7,0-1,0c-28-0.5-50.8-25.4-50.8-55.4v-20C103.1,22.5,117,8,134.2,8h41.4
				c17.1,0,31.1,14.5,31.1,32.3v21.5c0,14.6-5.5,28.2-15.5,38.4C181.4,110.2,168.5,115.7,154.9,115.7z M134.2,20.9
				c-10.3,0-18.6,8.7-18.6,19.4v20c0,23,17.3,42.1,38.6,42.5c10.6,0.2,20.7-4,28.3-11.7c7.6-7.8,11.8-18.1,11.8-29.2V40.3
				c0-10.7-8.4-19.4-18.6-19.4H134.2z"/>
		</g>
		<g>
			<path class="st0" d="M217,193.2c-2.6,0-5-1.7-5.9-4.4l-10.9-34c-2.5-7.9-9.6-13.3-17.7-13.3h-55.3c-8,0-15.1,5.3-17.7,13.2
				l-8.2,25.5h70.2c3.4,0,6.2,2.9,6.2,6.5s-2.8,6.5-6.2,6.5H92.8c-2,0-3.9-1-5-2.7c-1.2-1.7-1.5-3.8-0.9-5.8l10.9-34
				c4.2-13.2,16.1-22.1,29.5-22.1h55.3c13.4,0,25.2,8.9,29.5,22.1l10.9,34c1.1,3.4-0.7,7-3.9,8.2C218.3,193.1,217.6,193.2,217,193.2
				z"/>
		</g>
		<g>
			<path class="st0" d="M190.3,193.2c-1.6,0-3.2-0.7-4.4-1.9c-1.2-1.2-1.8-2.9-1.8-4.6c0-0.4,0-0.9,0.1-1.2c0.1-0.4,0.2-0.8,0.4-1.2
				c0.1-0.4,0.3-0.8,0.5-1.1c0.3-0.3,0.5-0.7,0.8-1c2.3-2.4,6.5-2.4,8.8,0c1.2,1.2,1.8,2.9,1.8,4.6c0,1.7-0.7,3.4-1.8,4.6
				C193.5,192.5,192,193.2,190.3,193.2z"/>
		</g>
		<g>
			<path class="st0" d="M171.4,51.1h-33.1c-3.4,0-6.2-2.9-6.2-6.5s2.8-6.5,6.2-6.5h33.1c3.4,0,6.2,2.9,6.2,6.5
				S174.9,51.1,171.4,51.1z"/>
		</g>
		<g>
			<path class="st0" d="M192.1,76.9h-74.5c-3.4,0-6.2-2.9-6.2-6.5s2.8-6.5,6.2-6.5h74.5c3.4,0,6.2,2.9,6.2,6.5
				S195.6,76.9,192.1,76.9z"/>
		</g>
		<g>
			<path class="st0" d="M179.7,107H130c-3.4,0-6.2-2.9-6.2-6.5s2.8-6.5,6.2-6.5h49.7c3.4,0,6.2,2.9,6.2,6.5S183.1,107,179.7,107z"/>
		</g>
	</g>
	<g id="Batman_00000157269658939880785380000011821985729639339159_">
		<g>
			<path class="st0" d="M363.1,115.7c-28.5,0-51.8-24.1-51.8-53.8V14.5c0-2.4,1.3-4.6,3.3-5.7c2-1.1,4.5-1,6.4,0.3l22.2,15.4
				c12.8-4.7,27-4.7,39.9,0l22.2-15.4c1.9-1.3,4.4-1.4,6.4-0.3c2,1.1,3.3,3.3,3.3,5.7v47.4C414.9,91.5,391.7,115.7,363.1,115.7z
				 M323.8,26.5v35.3c0,22.6,17.6,40.9,39.3,40.9c21.7,0,39.3-18.4,39.3-40.9V26.5l-15.2,10.5c-1.7,1.2-3.9,1.4-5.8,0.6
				c-11.7-5.1-25-5.1-36.6,0c-1.9,0.8-4.1,0.6-5.8-0.6L323.8,26.5z"/>
		</g>
		<g>
			<path class="st0" d="M425.2,193.2c-2.6,0-5-1.7-5.9-4.4l-10.9-34c-2.5-7.9-9.6-13.2-17.7-13.2h-55.3c-8,0-15.1,5.3-17.7,13.3
				l-8.2,25.5h70.2c3.4,0,6.2,2.9,6.2,6.5s-2.8,6.5-6.2,6.5H301c-2,0-3.9-1-5-2.7c-1.2-1.7-1.5-3.8-0.9-5.8l10.9-34
				c4.2-13.2,16.1-22.1,29.5-22.1h55.3c13.4,0,25.2,8.9,29.5,22.1l10.9,34c1.1,3.4-0.7,7-3.9,8.2
				C426.5,193.1,425.9,193.2,425.2,193.2z"/>
		</g>
		<g>
			<path class="st0" d="M398.6,193.2c-1.6,0-3.2-0.7-4.4-1.9c-1.2-1.2-1.8-2.8-1.8-4.6c0-1.7,0.7-3.4,1.8-4.6c2.3-2.4,6.5-2.4,8.8,0
				c1.2,1.2,1.8,2.9,1.8,4.6c0,1.7-0.7,3.4-1.8,4.6C401.8,192.5,400.2,193.2,398.6,193.2z"/>
		</g>
		<g>
			<path class="st0" d="M363.1,89.8c-0.6,0-1.2-0.1-1.8-0.3l-41.4-12.9c-3.3-1-5.1-4.6-4.2-8c1-3.4,4.4-5.4,7.7-4.3l39.6,12.4
				l39.6-12.4c3.3-1,6.7,0.9,7.7,4.3c1,3.4-0.9,7-4.2,8l-41.4,12.9C364.3,89.7,363.7,89.8,363.1,89.8z"/>
		</g>
		<g>
			<path class="st0" d="M346.6,64c-1.7,0-3.2-0.7-4.4-1.9c-1.2-1.2-1.8-2.9-1.8-4.6c0-0.4,0-0.9,0.1-1.2c0.1-0.4,0.2-0.8,0.3-1.2
				c0.2-0.4,0.4-0.8,0.6-1.1c0.2-0.4,0.5-0.7,0.8-1c1.4-1.5,3.6-2.2,5.6-1.8c0.4,0.1,0.8,0.2,1.2,0.3c0.4,0.2,0.7,0.4,1.1,0.6
				c0.3,0.3,0.7,0.5,1,0.8c0.3,0.3,0.5,0.6,0.8,1c0.2,0.3,0.4,0.7,0.5,1.1c0.2,0.4,0.3,0.8,0.4,1.2c0.1,0.4,0.1,0.8,0.1,1.2
				c0,1.7-0.7,3.4-1.8,4.6c-0.3,0.3-0.6,0.6-1,0.8c-0.3,0.2-0.7,0.4-1.1,0.6c-0.4,0.2-0.7,0.3-1.2,0.4C347.4,63.9,347,64,346.6,64z"
				/>
		</g>
		<g>
			<path class="st0" d="M379.7,64c-0.4,0-0.8,0-1.2-0.1c-0.4-0.1-0.8-0.2-1.2-0.4c-0.4-0.1-0.7-0.3-1.1-0.6c-0.4-0.3-0.7-0.5-1-0.8
				c-1.2-1.2-1.8-2.8-1.8-4.6c0-0.4,0-0.9,0.1-1.2c0.1-0.4,0.2-0.8,0.3-1.2c0.2-0.4,0.4-0.8,0.6-1.1c0.2-0.4,0.5-0.7,0.8-1
				c0.3-0.3,0.6-0.6,1-0.8c0.3-0.2,0.7-0.4,1.1-0.6c0.4-0.1,0.7-0.3,1.2-0.3c2-0.4,4.1,0.3,5.6,1.8c0.3,0.3,0.5,0.6,0.8,1
				c0.2,0.3,0.4,0.7,0.5,1.1c0.2,0.4,0.3,0.8,0.4,1.2c0.1,0.4,0.1,0.8,0.1,1.2c0,1.7-0.7,3.4-1.8,4.6C382.9,63.3,381.3,64,379.7,64z
				"/>
		</g>
		<g>
			<path class="st0" d="M338.3,193.2c-3.4,0-6.2-2.9-6.2-6.5c0-17.8,13.9-32.3,31.1-32.3c6.2,0,12.2,1.9,17.4,5.5c2.8,2,3.6,6,1.7,9
				c-1.9,3-5.8,3.7-8.6,1.7c-3.1-2.2-6.7-3.3-10.4-3.3c-10.3,0-18.6,8.7-18.6,19.4C344.5,190.3,341.7,193.2,338.3,193.2z"/>
		</g>
	</g>
	<g id="Robot_2_00000066513323196289220760000013971433577248149638_">
		<g>
			<path class="st0" d="M193.1,337.3h-91.1c-3.4,0-6.2-2.9-6.2-6.5v-45.8c0-30,22.8-54.9,50.8-55.4c13.9-0.3,27.2,5.2,37.2,15.4
				c10,10.2,15.5,23.8,15.5,38.4v47.4C199.3,334.4,196.6,337.3,193.1,337.3z M108.3,324.4h78.7v-40.9c0-11.1-4.2-21.4-11.8-29.2
				c-7.6-7.8-17.5-11.8-28.3-11.7c-21.3,0.4-38.6,19.5-38.6,42.5V324.4z"/>
		</g>
		<g>
			<path class="st0" d="M209.7,414.8c-2.6,0-5-1.7-5.9-4.4l-10.9-34c-2.5-7.9-9.6-13.3-17.7-13.3H120c-8,0-15.1,5.3-17.7,13.2
				l-8.2,25.5h70.2c3.4,0,6.2,2.9,6.2,6.5c0,3.6-2.8,6.5-6.2,6.5H85.5c-2,0-3.9-1-5-2.7c-1.2-1.7-1.5-3.8-0.9-5.8l10.9-34
				c4.2-13.2,16.1-22.1,29.5-22.1h55.3c13.4,0,25.2,8.9,29.5,22.1l10.9,34c1.1,3.4-0.7,7-3.9,8.2C211,414.7,210.3,414.8,209.7,414.8
				z"/>
		</g>
		<g>
			<path class="st0" d="M183,414.8c-1.6,0-3.2-0.7-4.4-1.9c-1.2-1.2-1.8-2.9-1.8-4.6c0-0.4,0-0.9,0.1-1.2c0.1-0.4,0.2-0.8,0.4-1.2
				c0.1-0.4,0.3-0.8,0.5-1.1c0.3-0.3,0.5-0.7,0.8-1c1.4-1.5,3.6-2.2,5.6-1.8c0.4,0.1,0.8,0.2,1.2,0.4c0.4,0.1,0.7,0.3,1.1,0.6
				c0.3,0.3,0.6,0.5,0.9,0.8c1.2,1.2,1.8,2.9,1.8,4.6c0,1.7-0.7,3.4-1.8,4.6c-0.3,0.3-0.6,0.6-0.9,0.8c-0.4,0.2-0.7,0.4-1.1,0.6
				c-0.4,0.1-0.8,0.3-1.2,0.3C183.9,414.8,183.4,414.8,183,414.8z"/>
		</g>
		<g>
			<path class="st0" d="M131,290c-5.7,0-10.4-4.8-10.4-10.8s4.6-10.8,10.4-10.8c5.7,0,10.4,4.8,10.4,10.8S136.7,290,131,290z"/>
		</g>
		<g>
			<path class="st0" d="M164.2,290c-5.7,0-10.4-4.8-10.4-10.8s4.6-10.8,10.4-10.8c5.7,0,10.4,4.8,10.4,10.8S169.9,290,164.2,290z"/>
		</g>
		<g>
			<path class="st0" d="M133.1,318v9.3c0,3.6-2.8,6.5-6.2,6.5c-3.4,0-6.2-2.9-6.2-6.5V318c0-10.7,8.4-19.4,18.6-19.4h16.6
				c10.3,0,18.6,8.7,18.6,19.4v9.3c0,3.6-2.8,6.5-6.2,6.5s-6.2-2.9-6.2-6.5V318"/>
		</g>
	</g>
	<g id="Cyborg_00000106134060681222250330000008557489774058455743_">
		<g>
			<path class="st0" d="M426.5,414.8c-2.6,0-5-1.7-5.9-4.4l-10.9-34c-2.5-7.9-9.6-13.3-17.7-13.3h-55.3c-8,0-15.1,5.3-17.7,13.3
				l-8.2,25.5h70.2c3.4,0,6.2,2.9,6.2,6.5c0,3.6-2.8,6.5-6.2,6.5h-78.9c-2,0-3.9-1-5-2.7c-1.2-1.7-1.5-3.8-0.9-5.8l10.9-34
				c4.2-13.2,16.1-22.1,29.5-22.1H392c13.4,0,25.2,8.9,29.5,22.1l10.9,34c1.1,3.4-0.7,7-3.9,8.2
				C427.8,414.7,427.2,414.8,426.5,414.8z"/>
		</g>
		<g>
			<path class="st0" d="M399.8,414.8c-1.7,0-3.2-0.7-4.4-1.9c-1.2-1.2-1.8-2.8-1.8-4.6c0-1.7,0.7-3.4,1.8-4.6c0.3-0.3,0.6-0.6,1-0.8
				c0.3-0.2,0.7-0.4,1.1-0.6c0.4-0.1,0.7-0.3,1.2-0.3c2-0.4,4.2,0.3,5.6,1.8c1.2,1.2,1.8,2.8,1.8,4.6c0,1.7-0.6,3.4-1.8,4.6
				c-0.6,0.6-1.2,1.1-2,1.4C401.5,414.7,400.7,414.8,399.8,414.8z"/>
		</g>
		<g>
			<path class="st0" d="M405.8,311.5H323c-10.3,0-18.6-8.7-18.6-19.4v-17.2c0-10.7,8.4-19.4,18.6-19.4h82.8
				c10.3,0,18.6,8.7,18.6,19.4v17.2C424.4,302.8,416.1,311.5,405.8,311.5z M323,268.4c-3.4,0-6.2,2.9-6.2,6.5v17.2
				c0,3.6,2.8,6.5,6.2,6.5h82.8c3.4,0,6.2-2.9,6.2-6.5v-17.2c0-3.6-2.8-6.5-6.2-6.5H323z"/>
		</g>
		<g>
			<path class="st0" d="M405,268.4c-2.3,0-4.4-1.3-5.5-3.5c-6.8-13.8-20.2-22.3-35-22.3c-14.9,0-28.3,8.6-35,22.3
				c-1.6,3.2-5.3,4.4-8.4,2.8c-3.1-1.6-4.3-5.5-2.7-8.7c8.9-18.1,26.6-29.4,46.1-29.4s37.2,11.2,46.1,29.4c1.6,3.2,0.4,7.1-2.7,8.7
				C406.9,268.2,405.9,268.4,405,268.4z"/>
		</g>
		<g>
			<path class="st0" d="M364.4,337.3c-19.5,0-37.2-11.3-46.1-29.4c-1.6-3.2-0.4-7.1,2.7-8.7c3-1.6,6.8-0.4,8.4,2.8
				c6.8,13.8,20.2,22.3,35,22.3c14.9,0,28.3-8.6,35-22.3c1.6-3.2,5.3-4.4,8.4-2.8c3.1,1.6,4.3,5.5,2.7,8.7
				C401.6,326.1,383.9,337.3,364.4,337.3z"/>
		</g>
	</g>
</g>
</svg>
