<?xml version="1.0" encoding="utf-8"?>
<!-- Generator: Adobe Illustrator 26.1.0, SVG Export Plug-In . SVG Version: 6.00 Build 0)  -->
<svg version="1.1" id="Layer_1" xmlns="http://www.w3.org/2000/svg" xmlns:xlink="http://www.w3.org/1999/xlink" x="0px" y="0px"
	 viewBox="0 0 70 70" style="enable-background:new 0 0 70 70;" xml:space="preserve">
<style type="text/css">
	.st0{fill:#007EF5;}
	.st1{fill:#FFDD47;}
	.st2{fill:#FF684A;}
	.st3{fill:#0B1A70;}
</style>
<desc>Made with illustrio</desc>
<g>
	<g>
		<g>
			<g>
				<g>
					<path class="st0" d="M6.3,21C6.2,21,6.2,21,6.3,21c-0.4,0-0.7-0.2-0.9-0.4c-1.7-1.7-2.6-4-2.6-6.4c0-2.4,0.9-4.7,2.7-6.5
						l2.4-2.4c1.7-1.7,4-2.7,6.5-2.7c2.4,0,4.7,0.9,6.4,2.6C20.9,5.6,21,5.9,21,6.3c0,0.5-0.3,0.9-0.7,1.1c-5.5,2.9-10,7.4-13,13
						C7.2,20.8,6.7,21,6.3,21z M14.2,5.3c-1.8,0-3.4,0.7-4.7,1.9L7.1,9.6c-1.2,1.2-1.9,2.9-1.9,4.7c0,1.2,0.3,2.3,0.9,3.3
						C8.9,12.8,12.8,9,17.5,6.1C16.5,5.6,15.4,5.3,14.2,5.3z"/>
				</g>
			</g>
		</g>
		<g>
			<g>
				<g>
					<path class="st0" d="M63.7,21c-0.5,0-0.9-0.3-1.1-0.7c-2.9-5.5-7.4-10-13-13C49.2,7.2,49,6.8,49,6.3c0-0.3,0.2-0.7,0.4-0.9
						c1.7-1.7,4-2.6,6.4-2.6c2.4,0,4.7,0.9,6.5,2.7l2.4,2.4c1.7,1.7,2.7,4,2.7,6.5c0,2.4-0.9,4.7-2.6,6.4C64.4,20.9,64.1,21,63.7,21
						C63.8,21,63.7,21,63.7,21z M52.5,6.1c4.7,2.8,8.5,6.7,11.4,11.4c0.6-1,0.9-2.1,0.9-3.3c0-1.8-0.7-3.4-1.9-4.7l-2.4-2.4
						c-1.2-1.2-2.9-1.9-4.7-1.9C54.6,5.3,53.5,5.6,52.5,6.1z"/>
				</g>
			</g>
		</g>
		<g>
			<g>
				<g>
					<path class="st0" d="M14.2,67.3c-2.4,0-4.7-0.9-6.5-2.7l-2.4-2.4c-1.7-1.7-2.7-4-2.7-6.5c0-2.4,0.9-4.7,2.6-6.4
						C5.6,49.2,5.9,49,6.2,49c0,0,0,0,0,0c0.5,0,0.9,0.3,1.1,0.7c2.9,5.5,7.4,10,13,13c0.4,0.2,0.7,0.7,0.7,1.1
						c0,0.3-0.2,0.7-0.4,0.9C18.9,66.4,16.6,67.3,14.2,67.3z M6.1,52.6c-0.6,1-0.9,2.1-0.9,3.3c0,1.8,0.7,3.4,1.9,4.7l2.4,2.4
						c1.2,1.2,2.9,1.9,4.7,1.9c1.2,0,2.3-0.3,3.3-0.9C12.8,61.1,8.9,57.2,6.1,52.6z"/>
				</g>
			</g>
		</g>
		<g>
			<g>
				<g>
					<path class="st0" d="M55.8,67.3c-2.4,0-4.7-0.9-6.4-2.6c-0.2-0.2-0.4-0.6-0.4-0.9c0-0.5,0.3-0.9,0.7-1.1c5.5-2.9,10-7.4,13-13
						c0.2-0.4,0.7-0.7,1.1-0.7c0.3,0,0.7,0.2,0.9,0.4c1.7,1.7,2.6,4,2.6,6.4c0,2.4-0.9,4.7-2.7,6.5l-2.4,2.4
						C60.6,66.4,58.3,67.3,55.8,67.3z M52.5,63.9c1,0.6,2.1,0.9,3.3,0.9c1.8,0,3.4-0.7,4.7-1.9l2.4-2.4c1.2-1.2,1.9-2.9,1.9-4.7
						c0-1.2-0.3-2.3-0.9-3.3C61.1,57.2,57.2,61.1,52.5,63.9z M63.7,50.3L63.7,50.3L63.7,50.3z"/>
				</g>
			</g>
		</g>
		<g>
			<g>
				<path class="st1" d="M35,2.5v16.3c-9,0-16.3,7.3-16.3,16.3H2.5C2.5,17.1,17,2.5,35,2.5z"/>
			</g>
		</g>
		<g>
			<g>
				<path class="st2" d="M67.5,35H51.3c0-9-7.3-16.3-16.3-16.3V2.5C53,2.5,67.5,17.1,67.5,35z"/>
			</g>
		</g>
		<g>
			<g>
				<path class="st2" d="M35,51.3v16.3C17,67.6,2.5,53,2.5,35h16.3C18.7,44,26,51.3,35,51.3z"/>
			</g>
		</g>
		<g>
			<g>
				<path class="st1" d="M67.5,35C67.5,53,53,67.6,35,67.6V51.3c9,0,16.3-7.3,16.3-16.3H67.5z"/>
			</g>
		</g>
	</g>
	<g>
		<path class="st3" d="M68.8,35c0-5.4-1.3-10.5-3.5-15.1c2.9-3.6,2.7-8.9-0.6-12.2l-2.4-2.4c-3.3-3.3-8.6-3.5-12.2-0.6
			C45.5,2.5,40.4,1.2,35,1.2c-5.3,0-10.5,1.3-15.1,3.5c-1.6-1.3-3.6-2-5.8-2c-2.4,0-4.7,0.9-6.5,2.7L5.4,7.8c-1.7,1.7-2.7,4-2.7,6.5
			c0,2.1,0.7,4.1,2,5.8c-0.6,1.2-1.1,2.4-1.6,3.7c-0.2,0.7,0.1,1.4,0.8,1.6c0.7,0.2,1.4-0.1,1.6-0.8c0.5-1.4,1.1-2.8,1.8-4.1
			c0,0,0,0,0-0.1c5.2-9.7,15.2-16.1,26.4-16.6v13.8c-8.7,0.6-15.6,7.6-16.2,16.2H3.7c0-0.8,0.1-1.7,0.2-2.5c0.1-0.7-0.4-1.3-1.1-1.4
			c-0.7-0.1-1.3,0.4-1.4,1.1c-0.2,1.4-0.2,2.7-0.2,4.1c0,5.4,1.3,10.5,3.5,15.1c-1.3,1.6-2,3.6-2,5.8c0,2.4,0.9,4.7,2.7,6.5l2.4,2.4
			c1.7,1.7,4,2.7,6.5,2.7c2.1,0,4.1-0.7,5.8-2c4.5,2.3,9.6,3.5,15.1,3.5c5.4,0,10.5-1.3,15.1-3.5c1.7,1.4,3.7,2.1,5.8,2.1
			c2.3,0,4.7-0.9,6.5-2.7l2.4-2.4c3.3-3.3,3.5-8.6,0.6-12.2C67.5,45.6,68.8,40.4,68.8,35z M6.1,17.5c-0.6-1-0.9-2.1-0.9-3.3
			c0-1.8,0.7-3.4,1.9-4.7l2.4-2.4c1.2-1.2,2.9-1.9,4.7-1.9c1.2,0,2.3,0.3,3.3,0.9C12.9,8.9,8.9,12.8,6.1,17.5z M36.3,17.5V3.8
			c16.2,0.6,29.3,13.7,30,30H52.5C51.9,25.1,44.9,18.2,36.3,17.5z M60.5,7.2l2.4,2.4c2.2,2.2,2.5,5.4,1,8C61.1,12.9,57.2,9,52.5,6.1
			C55.1,4.7,58.3,5,60.5,7.2z M17.5,36.3c0.6,8.7,7.6,15.6,16.2,16.2v13.8c-16.2-0.6-29.3-13.7-30-30H17.5z M14.2,64.8
			c-1.8,0-3.4-0.7-4.7-1.9l-2.4-2.4c-1.2-1.2-1.9-2.9-1.9-4.7c0-1.2,0.3-2.3,0.9-3.3c2.8,4.6,6.7,8.5,11.4,11.4
			C16.5,64.5,15.4,64.8,14.2,64.8z M36.3,52.5c1.3-0.1,2.6-0.3,3.8-0.7c0.7-0.2,1-0.9,0.8-1.6c-0.2-0.7-0.9-1-1.6-0.8
			C37.9,49.8,36.5,50,35,50c-8.3,0-15-6.7-15-15s6.7-15,15-15s15,6.7,15,15c0,1.7-0.3,3.4-0.9,5c-0.2,0.7,0.1,1.4,0.8,1.6
			c0.7,0.2,1.4-0.1,1.6-0.8c0.5-1.5,0.9-3,1-4.6h13.8c-0.6,16.2-13.7,29.3-30,30V52.5z M62.9,60.5l-2.4,2.4c-2.2,2.2-5.4,2.5-8,1
			c4.6-2.8,8.5-6.7,11.4-11.4C65.3,55.1,65,58.4,62.9,60.5z"/>
		<path class="st3" d="M46,45.3c-0.2,0.2-0.4,0.4-0.6,0.6c-0.5,0.5-0.5,1.3,0,1.8c0.2,0.3,0.6,0.4,0.9,0.4c0.3,0,0.6-0.1,0.9-0.4
			c0.2-0.2,0.4-0.4,0.7-0.7c0.5-0.5,0.4-1.3-0.1-1.8C47.3,44.7,46.5,44.7,46,45.3z"/>
	</g>
</g>
</svg>
