<?xml version="1.0" encoding="utf-8"?>
<!-- Generator: Adobe Illustrator 26.1.0, SVG Export Plug-In . SVG Version: 6.00 Build 0)  -->
<svg version="1.1" id="Layer_1" xmlns="http://www.w3.org/2000/svg" xmlns:xlink="http://www.w3.org/1999/xlink" x="0px" y="0px"
	 viewBox="0 0 480 480" style="enable-background:new 0 0 480 480;" xml:space="preserve">
<style type="text/css">
	.st0{fill:#298AFF;}
	.st1{fill:#FC68C0;}
	.st2{fill:#3EDBFF;}
	.st3{fill:#8A21ED;}
	.st4{fill:#000053;}
	.st5{fill:#490599;}
</style>
<g>
	<g>
		<g>
			<path class="st0" d="M168.6,157.3v153.4H87c-17.9,0-32.4-15-32.4-33.5v-86.4c0-18.5,14.5-33.5,32.4-33.5H168.6z"/>
		</g>
	</g>
	<g>
		<g>
			<path class="st1" d="M307.2,101.8v264.4c-2.2-1.8-4.3-3.7-6.3-5.8c-29.3-31.5-70-49.7-112.9-49.7h-19.4V157.3H188
				c42.9,0,83.6-18.2,112.9-49.7C302.9,105.5,305,103.6,307.2,101.8z"/>
		</g>
	</g>
	<g>
		<g>
			<path class="st2" d="M54.5,278.3L54.5,278.3v-88.5l0,0c-23.7,0-42.8,19.8-42.8,44.3l0,0C11.7,258.5,30.9,278.3,54.5,278.3z"/>
		</g>
	</g>
	<g>
		<g>
			<path class="st3" d="M359,95V373c0,14.8-11.6,26.8-25.9,26.8c-14.3,0-25.9-12-25.9-26.8V95c0-14.8,11.6-26.8,25.9-26.8
				c7.2,0,13.6,3,18.3,7.8C356.1,80.9,359,87.6,359,95z"/>
		</g>
	</g>
	<g>
		<g>
			<path class="st2" d="M133.3,423.5c-14.2,2.4-27.6-7.5-29.9-22.2l-14.4-90.6h52.8l13,82C157.1,407.3,147.5,421.2,133.3,423.5z"/>
		</g>
	</g>
	<path class="st4" d="M333.1,59.2c-19.1,0-34.6,16.1-34.6,35.9v2.5c-1.3,1.2-2.6,2.5-3.8,3.8c-27.7,29.8-66.6,46.9-106.6,46.9h-19.3
		c0,0-0.1,0-0.1,0H87c-19.6,0-36,14.2-40.2,33.1C22,185.2,2.9,207.3,2.9,234s19.1,48.8,43.9,52.7c3.8,17.1,17.5,30.3,34.6,32.7
		l13.3,83.4c1.5,9.5,6.5,17.8,14.1,23.5c6,4.4,13,6.8,20.2,6.8c1.9,0,3.8-0.2,5.8-0.5c9.2-1.5,17.2-6.7,22.6-14.5
		c5.4-7.8,7.6-17.3,6.1-26.8l-11.3-71.4h16.2c0.1,0,0.2,0,0.2,0H188c40,0,78.8,17.1,106.6,46.9c1.2,1.3,2.5,2.6,3.9,3.8v2.5
		c0,19.8,15.5,35.9,34.6,35.9c19.1,0,34.7-16.1,34.7-35.9V250.7c0-5-3.9-9.1-8.8-9.1c-4.9,0-8.8,4.1-8.8,9.1V373
		c0,9.8-7.7,17.7-17.1,17.7c-9.4,0-17.1-7.9-17.1-17.7v-6.7V101.8V95c0-9.8,7.7-17.7,17.1-17.7c4.6,0,8.9,1.8,12.1,5.2
		c3.2,3.3,5,7.8,5,12.5v49.8c0,5,3.9,9.1,8.8,9.1c4.9,0,8.8-4.1,8.8-9.1V95c0-9.6-3.6-18.6-10.1-25.4
		C351.1,62.9,342.3,59.2,333.1,59.2z M45.7,268c-14.5-4-25.3-17.7-25.3-34s10.7-30,25.3-34V268z M63.3,277.2v-86.4
		c0-13.5,10.6-24.4,23.7-24.4h72.8v135.3h-18H88.9h-2C73.9,301.6,63.3,290.7,63.3,277.2z M146.1,394.1c0.7,4.7-0.3,9.4-3,13.3
		c-2.7,3.9-6.7,6.4-11.2,7.2c0,0,0,0,0,0c-4.6,0.8-9.1-0.3-12.9-3.1c-3.7-2.8-6.2-6.9-7-11.6l-12.7-80.1h35L146.1,394.1z M188,301.7
		h-10.6V166.4H188c40.6,0,80.2-15.8,110.4-43.7v222.6C268.2,317.4,228.6,301.7,188,301.7z"/>
	<path class="st4" d="M359,186.8c-4.9,0-8.8,4.1-8.8,9.1v7.1c0,5,3.9,9.1,8.8,9.1c4.9,0,8.8-4.1,8.8-9.1v-7.1
		C367.8,190.9,363.8,186.8,359,186.8z"/>
	<g>
		<g>
			<g>
				<g>
					<path class="st5" d="M469.2,242.3h-43.9c-4.9,0-8.8-4.1-8.8-9.1c0-5,3.9-9.1,8.8-9.1h43.9c4.9,0,8.8,4.1,8.8,9.1
						C478,238.3,474.1,242.3,469.2,242.3z"/>
				</g>
			</g>
		</g>
		<g>
			<g>
				<g>
					<path class="st5" d="M412.8,121.9c-3.6,0-7-2.3-8.3-6c-1.7-4.7,0.7-9.9,5.3-11.6l43.9-16.5c4.6-1.7,9.6,0.7,11.3,5.4
						c1.7,4.7-0.7,9.9-5.3,11.6l-43.9,16.5C414.8,121.7,413.8,121.9,412.8,121.9z"/>
				</g>
			</g>
		</g>
		<g>
			<g>
				<g>
					<path class="st5" d="M456.7,379.2c-1,0-2-0.2-3-0.5l-43.9-16.5c-4.6-1.7-6.9-6.9-5.3-11.6c1.7-4.7,6.7-7.2,11.3-5.4l43.9,16.5
						c4.6,1.7,6.9,6.9,5.3,11.6C463.7,376.9,460.3,379.2,456.7,379.2z"/>
				</g>
			</g>
		</g>
		<path class="st4" d="M469.2,224.2h-43.9c-4.9,0-8.8,4.1-8.8,9.1c0,5,3.9,9.1,8.8,9.1h43.9c4.9,0,8.8-4.1,8.8-9.1
			C478,228.2,474.1,224.2,469.2,224.2z"/>
		<path class="st4" d="M412.8,121.9c1,0,2-0.2,3-0.5l43.9-16.5c4.6-1.7,6.9-6.9,5.3-11.6c-1.7-4.7-6.7-7.2-11.3-5.4l-43.9,16.5
			c-4.6,1.7-6.9,6.9-5.3,11.6C405.9,119.6,409.2,121.9,412.8,121.9z"/>
		<path class="st4" d="M459.7,361.6l-43.9-16.5c-4.6-1.7-9.6,0.7-11.3,5.4c-1.7,4.7,0.7,9.9,5.3,11.6l43.9,16.5c1,0.4,2,0.5,3,0.5
			c3.6,0,7-2.3,8.3-6C466.6,368.5,464.3,363.3,459.7,361.6z"/>
	</g>
</g>
</svg>
