<?xml version="1.0" encoding="utf-8"?>
<!-- Generator: Adobe Illustrator 26.1.0, SVG Export Plug-In . SVG Version: 6.00 Build 0)  -->
<svg version="1.1" id="Capa_1" xmlns="http://www.w3.org/2000/svg" xmlns:xlink="http://www.w3.org/1999/xlink" x="0px" y="0px"
	 viewBox="0 0 512 512" style="enable-background:new 0 0 512 512;" xml:space="preserve">
<style type="text/css">
	.st0{fill:#D4D4FA;}
	.st1{fill:#3E4166;}
</style>
<g id="Alien_00000065032912713482099070000015827487032854352281_">
	<g>
		<path class="st0" d="M434.7,491.4h-50.3c-5.1,0-9.5-3.2-11.1-8l-28.2-84.7c-9.6-28.8-36.5-48.2-66.8-48.2H337
			c30.3,0,57.2,19.4,66.8,48.2L434.7,491.4z"/>
	</g>
	<g>
		<path class="st0" d="M385.1,150.8c0,71.4-57.8,176.2-129.2,176.2c-12.2,0-24.1-3.1-35.2-8.6c54.3-26.3,94-108.4,94-167.6
			s-39.7-109-94-124.3c11.2-3.3,23-4.9,35.2-4.9C327.4,21.6,385.1,79.4,385.1,150.8z"/>
	</g>
	<g>
		<path class="st1" d="M256,344.6c-85.2,0-146.8-115.7-146.8-193.8C109.2,69.9,175,4,256,4s146.8,65.9,146.8,146.8
			C402.8,228.8,341.1,344.6,256,344.6z M256,39.2c-61.5,0-111.6,50-111.6,111.6c0,61.2,51.1,158.5,111.6,158.5
			S367.5,212,367.5,150.8C367.5,89.3,317.5,39.2,256,39.2z"/>
	</g>
	<g>
		<path class="st1" d="M432.1,509c-7.4,0-14.2-4.7-16.7-12.1l-30.9-92.7c-7.2-21.6-27.4-36.1-50.1-36.1H177.6
			c-22.8,0-42.9,14.5-50.1,36.1l-23.2,69.6h199.2c9.7,0,17.6,7.9,17.6,17.6c0,9.7-7.9,17.6-17.6,17.6H79.8c-5.7,0-11-2.7-14.3-7.3
			c-3.3-4.6-4.2-10.5-2.4-15.9L94,393.1c12-36,45.6-60.2,83.6-60.2h156.8c38,0,71.6,24.2,83.6,60.2l30.9,92.8
			c3.1,9.2-1.9,19.2-11.1,22.3C435.8,508.7,434,509,432.1,509z"/>
	</g>
	<g>
		<path class="st1" d="M356.5,509c-1.1,0-2.2-0.1-3.4-0.4c-1.2-0.2-2.2-0.6-3.3-1.1c-1.1-0.4-2.1-0.9-3.1-1.5
			c-0.9-0.7-1.9-1.4-2.7-2.2c-0.8-0.8-1.5-1.8-2.2-2.7c-0.6-0.9-1.2-2-1.5-3.1c-0.5-1.1-0.8-2.1-1.1-3.3c-0.2-1.1-0.3-2.2-0.3-3.4
			c0-1.2,0.1-2.4,0.3-3.4c0.2-1.2,0.6-2.2,1.1-3.3c0.4-1.1,0.9-2.1,1.5-3.1c0.7-1.1,1.4-1.9,2.2-2.7c0.8-0.8,1.8-1.5,2.7-2.2
			c0.9-0.6,2-1.2,3.1-1.6c1.1-0.4,2.1-0.7,3.3-0.9c2.2-0.5,4.6-0.5,6.9,0c1.1,0.2,2.2,0.6,3.3,0.9c1.1,0.5,2,1.1,3.1,1.6
			c0.9,0.7,1.8,1.4,2.6,2.2c0.8,0.8,1.5,1.6,2.2,2.7c0.6,0.9,1.2,2,1.6,3.1c0.4,1.1,0.7,2.1,0.9,3.3c0.2,1.1,0.4,2.2,0.4,3.4
			c0,1.2-0.1,2.3-0.4,3.4c-0.2,1.2-0.6,2.2-0.9,3.3c-0.5,1.1-1.1,2.1-1.6,3.1c-0.7,0.9-1.4,1.9-2.2,2.7c-0.8,0.8-1.6,1.5-2.6,2.2
			c-1.1,0.6-2,1.2-3.1,1.5c-1.1,0.5-2.2,0.8-3.3,1.1C358.8,508.9,357.7,509,356.5,509z"/>
	</g>
	<g>
		<path class="st1" d="M220.7,180.2c-4.5,0-9-1.7-12.5-5.2l-11.7-11.7c-6.9-6.9-6.9-18,0-24.9c6.9-6.9,18-6.9,24.9,0l11.7,11.7
			c6.9,6.9,6.9,18,0,24.9C229.7,178.4,225.2,180.2,220.7,180.2z"/>
	</g>
	<g>
		<path class="st1" d="M291.2,180.2c-4.5,0-9-1.7-12.5-5.2c-6.9-6.9-6.9-18,0-24.9l11.7-11.7c6.9-6.9,18-6.9,24.9,0
			c6.9,6.9,6.9,18,0,24.9L303.6,175C300.2,178.4,295.7,180.2,291.2,180.2z"/>
	</g>
</g>
</svg>
