<?xml version="1.0" encoding="utf-8"?>
<!-- Generator: Adobe Illustrator 26.1.0, SVG Export Plug-In . SVG Version: 6.00 Build 0)  -->
<svg version="1.1" id="Capa_1" xmlns="http://www.w3.org/2000/svg" xmlns:xlink="http://www.w3.org/1999/xlink" x="0px" y="0px"
	 viewBox="0 0 60 60" style="enable-background:new 0 0 60 60;" xml:space="preserve">
<style type="text/css">
	.st0{fill:#FFD00D;}
	.st1{fill:#6AA8FF;}
	.st2{fill:#000053;}
	.st3{fill:#0C2468;}
	.st4{fill:#D8F434;}
	.st5{fill:#1B998B;}
	.st6{fill:#FF8A5B;}
	.st7{fill:#FF6326;}
</style>
<g>
	<g>
		<path class="st0" d="M39.1,33.4h-2.8V8.6c0-0.8,0.6-1.4,1.4-1.4l0,0c0.8,0,1.4,0.6,1.4,1.4V33.4z"/>
		<path class="st1" d="M48.8,9.2L48.8,9.2c-2.6,1.1-5.4,1.3-8.1,0.5l-1.6-0.5v14.3l1.6,0.5c2.7,0.8,5.5,0.6,8.1-0.5l0,0
			c2.6-1.1,5.4-1.3,8.1-0.5l1.6,0.5V9.2l-1.6-0.5C54.2,7.9,51.4,8.1,48.8,9.2z"/>
	</g>
	<g>
		<path class="st2" d="M58.7,8.7l-1.6-0.5c-2.8-0.8-5.7-0.7-8.4,0.5c-2.5,1.1-5.2,1.2-7.8,0.5l-1.3-0.4V8.6c0-1.1-0.9-1.9-1.9-1.9
			c-1.1,0-1.9,0.9-1.9,1.9v24.8c0,0.3,0.2,0.5,0.5,0.5h2.8c0.3,0,0.5-0.2,0.5-0.5v-9.3l1,0.3c1.2,0.3,2.4,0.5,3.5,0.5
			c1.7,0,3.3-0.3,4.9-1c2.5-1.1,5.2-1.2,7.8-0.5l1.6,0.5c0.2,0,0.3,0,0.4-0.1c0.1-0.1,0.2-0.2,0.2-0.4v-3.2c0-0.3-0.2-0.5-0.5-0.5
			c-0.3,0-0.5,0.2-0.5,0.5v2.5l-1-0.3c-2.8-0.8-5.7-0.7-8.4,0.5c-2.5,1.1-5.2,1.2-7.8,0.5l-1.3-0.4V9.9l1,0.3
			c2.8,0.8,5.7,0.7,8.4-0.5c2.5-1.1,5.2-1.2,7.8-0.5L58,9.6v4c0,0.3,0.2,0.5,0.5,0.5c0.3,0,0.5-0.2,0.5-0.5V9.2
			C59,9,58.9,8.8,58.7,8.7z M38.6,9.2v14.3v9.4h-1.8V8.6c0-0.5,0.4-0.9,0.9-0.9c0.5,0,0.9,0.4,0.9,0.9V9.2z"/>
		<path class="st3" d="M58.5,15.7c-0.3,0-0.5,0.2-0.5,0.5v1.4c0,0.3,0.2,0.5,0.5,0.5c0.3,0,0.5-0.2,0.5-0.5v-1.4
			C59,15.9,58.8,15.7,58.5,15.7z"/>
	</g>
</g>
<g>
	<g>
		<g>
			<polygon class="st4" points="24.9,25.6 7.7,58.2 42,58.2 			"/>
		</g>
		<g>
			<g>
				<path class="st5" d="M42.5,58.9c0,0-0.1,0-0.1,0c-0.4-0.1-0.7-0.4-0.6-0.8l0.9-5.1c0.1-0.4,0.4-0.7,0.8-0.6
					c0.4,0.1,0.7,0.4,0.6,0.8l-0.9,5.1C43.1,58.7,42.8,58.9,42.5,58.9z"/>
			</g>
		</g>
		<g>
			<g>
				<path class="st5" d="M7.1,58.9c-0.3,0-0.6-0.2-0.7-0.6l-0.9-5.1c-0.1-0.4,0.2-0.8,0.6-0.8C6.5,52.4,6.9,52.6,7,53l0.9,5.1
					c0.1,0.4-0.2,0.8-0.6,0.8C7.2,58.9,7.1,58.9,7.1,58.9z"/>
			</g>
		</g>
		<g>
			<polygon class="st6" points="32.2,45.8 24.9,41.9 32.2,58.2 			"/>
		</g>
		<g>
			<polygon class="st6" points="17.6,45.8 24.9,41.9 17.6,58.2 			"/>
		</g>
		<g>
			<polygon class="st7" points="24.9,41.9 17.6,58.2 32.2,58.2 			"/>
		</g>
		<g>
			<g>
				<path class="st5" d="M43.3,58.9H6.4c-0.4,0-0.7-0.3-0.7-0.7s0.3-0.7,0.7-0.7h36.9c0.4,0,0.7,0.3,0.7,0.7S43.7,58.9,43.3,58.9z"
					/>
			</g>
		</g>
		<g>
			<g>
				<path class="st5" d="M24.9,26.3c-0.3,0-0.5-0.1-0.6-0.4l-2.3-4.2c-0.2-0.3-0.1-0.8,0.3-1c0.3-0.2,0.8-0.1,1,0.3l1.7,3.1l1.7-3.1
					c0.2-0.3,0.6-0.5,1-0.3c0.3,0.2,0.5,0.6,0.3,1l-2.3,4.2C25.4,26.2,25.1,26.3,24.9,26.3z"/>
			</g>
		</g>
	</g>
	<g>
		<path class="st2" d="M18.1,38.5c0.1,0.1,0.2,0.1,0.3,0.1c0.3,0,0.5-0.1,0.6-0.4l0.3-0.6c0.2-0.4,0-0.8-0.3-1c-0.4-0.2-0.8,0-1,0.3
			l-0.3,0.6C17.6,37.9,17.7,38.4,18.1,38.5z"/>
		<path class="st2" d="M43.3,57.5L43.3,57.5l0.7-4.2c0.1-0.4-0.2-0.8-0.6-0.8c-0.4-0.1-0.8,0.2-0.8,0.6L42,56.7L25.7,25.6l2.1-3.9
			c0.2-0.3,0.1-0.8-0.3-1c-0.3-0.2-0.8-0.1-1,0.3l-1.7,3.1L23.2,21c-0.2-0.3-0.6-0.5-1-0.3c-0.3,0.2-0.5,0.6-0.3,1l2.1,3.9l-4.2,8
			c-0.2,0.4,0,0.8,0.3,1c0.4,0.2,0.8,0,1-0.3l3.8-7.1l15.9,30.4h-7.9v-5.1c0-0.4-0.3-0.7-0.7-0.7s-0.7,0.3-0.7,0.7v2.4l-5.1-11.3
			l5.1,2.7v2.4c0,0.4,0.3,0.7,0.7,0.7s0.7-0.3,0.7-0.7v-2.8c0-0.3-0.1-0.5-0.4-0.6l-7.3-3.9c0,0,0,0,0,0c0,0,0,0-0.1,0
			c0,0-0.1,0-0.1,0c0,0,0,0-0.1,0c0,0,0,0-0.1,0c0,0,0,0,0,0c0,0,0,0,0,0c0,0,0,0-0.1,0c0,0,0,0-0.1,0c0,0-0.1,0-0.1,0
			c0,0,0,0-0.1,0c0,0,0,0,0,0l-7.3,3.9c-0.2,0.1-0.4,0.4-0.4,0.6v11.7H8.9l8.4-15.9c0.2-0.4,0-0.8-0.3-1c-0.4-0.2-0.8,0-1,0.3
			l-8.4,16L7,53c-0.1-0.4-0.4-0.7-0.8-0.6c-0.4,0.1-0.7,0.4-0.6,0.8l0.7,4.2c-0.3,0.1-0.5,0.4-0.5,0.7c0,0.4,0.3,0.7,0.7,0.7h0.7
			c0,0,0,0,0,0c0,0,0,0,0,0h0.6h9.8h14.6H42h0.5c0,0,0,0,0,0c0,0,0,0,0,0h0.9c0.4,0,0.7-0.3,0.7-0.7S43.7,57.5,43.3,57.5z
			 M22.7,48.4l2.1-4.8l2.1,4.8l4.1,9.1H18.7L22.7,48.4z M18.3,46.3l5.1-2.7l-5.1,11.3V46.3z"/>
	</g>
</g>
<g>
	<circle class="st0" cx="10.3" cy="7.3" r="4.7"/>
	<path class="st2" d="M3.8,8h1.1C5,8.9,5.4,9.8,6,10.6l-0.8,0.8c-0.3,0.3-0.3,0.7,0,1c0.1,0.1,0.3,0.2,0.5,0.2
		c0.2,0,0.4-0.1,0.5-0.2L7,11.5c0.7,0.6,1.6,1,2.6,1.1v1.1c0,0.4,0.3,0.7,0.7,0.7c0.4,0,0.7-0.3,0.7-0.7v-1.1c1-0.1,1.9-0.5,2.6-1.1
		l0.8,0.8c0.1,0.1,0.3,0.2,0.5,0.2s0.4-0.1,0.5-0.2c0.3-0.3,0.3-0.7,0-1l-0.8-0.8c0.6-0.7,1-1.6,1.1-2.6h1.1c0.4,0,0.7-0.3,0.7-0.7
		s-0.3-0.7-0.7-0.7h-1.1c-0.1-1-0.5-1.9-1.1-2.6l0.8-0.8c0.3-0.3,0.3-0.7,0-1c-0.3-0.3-0.7-0.3-1,0L13.5,3c-0.7-0.6-1.6-1-2.6-1.1
		V0.8c0-0.4-0.3-0.7-0.7-0.7c-0.4,0-0.7,0.3-0.7,0.7v1.1C8.6,2.1,7.7,2.4,7,3L6.2,2.2C5.9,2,5.5,2,5.2,2.2c-0.3,0.3-0.3,0.7,0,1L6,4
		C5.4,4.7,5,5.6,4.9,6.6H3.8c-0.4,0-0.7,0.3-0.7,0.7S3.4,8,3.8,8z M10.3,3.3c2.2,0,4,1.8,4,4s-1.8,4-4,4s-4-1.8-4-4S8,3.3,10.3,3.3z
		"/>
</g>
</svg>
