<?xml version="1.0" encoding="utf-8"?>
<!-- Generator: Adobe Illustrator 26.1.0, SVG Export Plug-In . SVG Version: 6.00 Build 0)  -->
<svg version="1.1" id="Layer_1" xmlns="http://www.w3.org/2000/svg" xmlns:xlink="http://www.w3.org/1999/xlink" x="0px" y="0px"
	 viewBox="0 0 496 496" style="enable-background:new 0 0 496 496;" xml:space="preserve">
<style type="text/css">
	.st0{fill:#FFCA3A;}
	.st1{fill:#FF595E;}
	.st2{fill:#1EA0E2;}
	.st3{fill:#8AC926;}
	.st4{fill:#FFFAE3;}
	.st5{fill:#001363;}
</style>
<g>
	<g>
		<g>
			<polygon class="st0" points="481.9,120.7 327.1,193.8 326.4,194.1 326.4,194.1 248,231.1 14.1,120.7 92.5,83.6 173.1,45.6 
				248,10.2 			"/>
		</g>
		<g>
			<polygon class="st1" points="403.5,157.7 326.4,194.1 326.4,194.1 92.5,83.6 173.1,45.6 			"/>
		</g>
		<g>
			<polygon class="st2" points="481.9,120.7 481.9,367.6 248,478 248,231.1 			"/>
		</g>
		<g>
			<polygon class="st3" points="14.1,120.7 14.1,367.6 248,478 248,231.1 			"/>
		</g>
		<g>
			<polygon class="st1" points="326.4,194.1 326.4,279.5 370.1,240.5 403.5,243.1 403.5,157.7 			"/>
		</g>
		<g>
			<g>
				<path class="st4" d="M198.8,388.6l-81.1-38.3c-4.5-2.1-10-0.2-12.1,4.3c-2.1,4.5-0.2,10,4.3,12.1l81.1,38.3
					c1.3,0.6,2.6,0.9,3.9,0.9c3.4,0,6.7-1.9,8.2-5.2C205.3,396.2,203.4,390.8,198.8,388.6z"/>
			</g>
			<g>
				<path class="st4" d="M109.9,321.3l81.1,38.3c1.3,0.6,2.6,0.9,3.9,0.9c3.4,0,6.7-1.9,8.2-5.2c2.1-4.5,0.2-10-4.3-12.1l-81.1-38.3
					c-4.5-2.1-10-0.2-12.1,4.3C103.4,313.7,105.4,319.1,109.9,321.3z"/>
			</g>
		</g>
	</g>
	<g>
		<path class="st5" d="M491,120.6C491,120.5,491,120.5,491,120.6c0-0.9-0.1-1.7-0.3-2.4c-0.1-0.3-0.2-0.5-0.3-0.8
			c-0.2-0.5-0.4-1-0.6-1.4c-0.2-0.3-0.4-0.5-0.6-0.8c-0.3-0.4-0.6-0.7-0.9-1.1c-0.3-0.3-0.5-0.5-0.8-0.7c-0.2-0.2-0.4-0.4-0.6-0.5
			c-0.2-0.1-0.4-0.2-0.5-0.3c-0.2-0.1-0.3-0.2-0.5-0.3L251.9,1.9c-2.5-1.2-5.3-1.2-7.8,0l-74.7,35.3c-0.1,0-0.1,0-0.2,0.1l-80.6,38
			c0,0-0.1,0.1-0.1,0.1l-78.3,37c-0.1,0.1-0.2,0.1-0.3,0.2c-0.6,0.3-1.1,0.6-1.5,1c-0.2,0.1-0.3,0.2-0.5,0.4c-0.5,0.5-1,1.1-1.4,1.7
			c-0.1,0.1-0.1,0.2-0.2,0.4c-0.3,0.5-0.6,1.1-0.8,1.7c-0.1,0.2-0.1,0.4-0.2,0.6C5.1,119,5,119.7,5,120.5c0,0,0,0,0,0c0,0,0,0,0,0
			c0,0,0,0,0,0v246.9c0,3.5,2,6.7,5.2,8.2l233.9,110.5c0.3,0.1,0.6,0.2,0.9,0.3c0.2,0.1,0.4,0.2,0.7,0.2c0.8,0.2,1.5,0.3,2.3,0.3
			c0.8,0,1.5-0.1,2.3-0.3c0.2-0.1,0.4-0.2,0.7-0.2c0.3-0.1,0.6-0.2,0.9-0.3l233.9-110.5c3.2-1.5,5.2-4.7,5.2-8.2V304
			c0-5-4.1-9.1-9.1-9.1c-5,0-9.1,4.1-9.1,9.1v57.7L257.1,463.5V236.8l60.2-28.4v71c0,3.6,2.1,6.8,5.4,8.3c1.2,0.5,2.5,0.8,3.7,0.8
			c2.2,0,4.4-0.8,6.1-2.3l40.8-36.4l29.5,2.3c2.5,0.2,5-0.7,6.9-2.4c1.9-1.7,2.9-4.1,2.9-6.7v-79.6l18.8-8.9l41.5-19.6V176
			c0,5,4.1,9.1,9.1,9.1c5,0,9.1-4.1,9.1-9.1V120.6C491,120.6,491,120.6,491,120.6C491,120.6,491,120.6,491,120.6z M173.1,55.5
			l209.8,99.1l-56.7,29.2L113.8,83.5L173.1,55.5z M248,20.2l212.6,100.4L407,145.9L194.4,45.5L248,20.2z M23.2,134.9l44.4,21
			c4.5,2.1,10,0.2,12.1-4.3c2.1-4.5,0.2-10-4.3-12.1l-39.9-18.9l57.2-27L305.1,194l-57.1,27l-109.1-51.5c-4.5-2.1-10-0.2-12.1,4.3
			c-2.1,4.5-0.2,10,4.3,12.1l107.7,50.9v226.8L23.2,361.7V134.9z M394.4,233.1l-23.5-1.8c-2.4-0.2-4.9,0.6-6.8,2.3l-28.6,25.5v-59.3
			l58.8-27.8V233.1z"/>
		<path class="st5" d="M481.9,222c-5,0-9.1,4.1-9.1,9.1V243c0,5,4.1,9.1,9.1,9.1c5,0,9.1-4.1,9.1-9.1v-11.9
			C491,226.1,486.9,222,481.9,222z"/>
		<path class="st5" d="M198.8,388.5l-81.1-38.3c-4.5-2.1-10-0.2-12.1,4.3c-2.1,4.5-0.2,10,4.3,12.1l81.1,38.3
			c1.3,0.6,2.6,0.9,3.9,0.9c3.4,0,6.7-1.9,8.2-5.2C205.3,396.1,203.4,390.7,198.8,388.5z"/>
		<path class="st5" d="M198.8,343l-81.1-38.3c-4.5-2.1-10-0.2-12.1,4.3c-2.1,4.5-0.2,10,4.3,12.1l81.1,38.3c1.3,0.6,2.6,0.9,3.9,0.9
			c3.4,0,6.7-1.9,8.2-5.2C205.3,350.6,203.4,345.2,198.8,343z"/>
	</g>
</g>
</svg>
