<?xml version="1.0" encoding="utf-8"?>
<!-- Generator: Adobe Illustrator 26.1.0, SVG Export Plug-In . SVG Version: 6.00 Build 0)  -->
<svg version="1.1" id="Layer_1" xmlns="http://www.w3.org/2000/svg" xmlns:xlink="http://www.w3.org/1999/xlink" x="0px" y="0px"
	 viewBox="0 0 485 485" style="enable-background:new 0 0 485 485;" xml:space="preserve">
<style type="text/css">
	.st0{fill:#3EDBFF;}
	.st1{fill:#000053;}
	.st2{fill:#62E8A2;}
	.st3{fill:#EDF5FF;}
	.st4{fill:none;stroke:#1C2870;stroke-width:10;stroke-miterlimit:10;}
</style>
<g>
	<g>
		<g>
			<path class="st0" d="M90.2,66.9h183.3c14.1,0,25.6-11.4,25.6-25.6c0-14.1-11.4-25.6-25.6-25.6H90.2c-36.6,0-66.4,29.8-66.4,66.4
				v318.6c0,36.6,29.8,66.4,66.4,66.4h183.3c14.1,0,25.6-11.4,25.6-25.6c0-14.1-11.4-25.6-25.6-25.6H90.2c-8.3,0-15.3-7-15.3-15.3
				V82.2C74.9,73.9,81.9,66.9,90.2,66.9z"/>
		</g>
	</g>
</g>
<path class="st1" d="M90.2,75.7h183.3c18.9,0,34.3-15.4,34.3-34.3c0-18.9-15.4-34.3-34.3-34.3H90.2C48.8,7,15,40.7,15,82.2v143.9
	c0,4.8,3.9,8.8,8.8,8.8c4.8,0,8.8-3.9,8.8-8.8V82.2c0-31.8,25.9-57.7,57.7-57.7h183.3c9.3,0,16.8,7.5,16.8,16.8
	c0,9.3-7.5,16.8-16.8,16.8H90.2c-13.1,0-24.1,11-24.1,24.1v318.6c0,13.1,11,24.1,24.1,24.1h183.3c9.3,0,16.8,7.5,16.8,16.8
	c0,9.2-7.5,16.8-16.8,16.8H90.2c-31.8,0-57.7-25.9-57.7-57.7v-39.9c0-4.8-3.9-8.8-8.8-8.8c-4.8,0-8.8,3.9-8.8,8.8v39.9
	c0,41.5,33.7,75.2,75.2,75.2h183.3c18.9,0,34.3-15.4,34.3-34.3c0-18.9-15.4-34.3-34.3-34.3H90.2c-3.5,0-6.6-3.1-6.6-6.6V82.2
	C83.7,78.7,86.7,75.7,90.2,75.7z"/>
<path class="st1" d="M23.8,275.7c-4.8,0-8.8,3.9-8.8,8.8v11.7c0,4.8,3.9,8.8,8.8,8.8c4.8,0,8.8-3.9,8.8-8.8v-11.7
	C32.6,279.6,28.6,275.7,23.8,275.7z"/>
<g>
	
		<ellipse transform="matrix(0.7071 -0.7071 0.7071 0.7071 -79.019 294.2312)" class="st2" cx="315.7" cy="242.5" rx="145.1" ry="145.1"/>
	<g>
		<path class="st1" d="M315.7,396.6c-85,0-154.1-69.1-154.1-154.1c0-85,69.1-154.1,154.1-154.1c85,0,154.1,69.1,154.1,154.1
			C469.7,327.5,400.6,396.6,315.7,396.6z M315.7,106.3c-75.1,0-136.2,61.1-136.2,136.2s61.1,136.2,136.2,136.2
			s136.2-61.1,136.2-136.2S390.8,106.3,315.7,106.3z"/>
	</g>
	<g>
		<path class="st3" d="M263.1,152.7L263.1,152.7c-5.6,0-10.2,4.5-10.3,10.1l-0.8,152.8c0,3.1,1.2,5.9,3.2,8c2,2.1,4.8,3.3,7.9,3.4
			c6.2,0.1,11.3-4.9,11.4-11.2l0.7-140.7l67.9,0.6l-0.8,129.7l-16.7-17c-4.3-4.4-11.5-4.8-16-0.5c-4.6,4.3-4.7,11.6-0.3,16.1
			l36,36.6c4.4,4.4,11.5,4.5,15.9,0.1l36.4-35.7c4.4-4.3,4.8-11.5,0.5-16c-4.3-4.6-11.6-4.7-16.1-0.3l-17.2,16.9l0.8-129.8l0.1,0
			l0.1-12.3c0-5.6-4.5-10.2-10.1-10.3l-90.7-0.8C264.4,152.5,263.8,152.6,263.1,152.7z"/>
		<path class="st4" d="M263.1,152.7L263.1,152.7c-5.6,0-10.2,4.5-10.3,10.1l-0.8,152.8c0,3.1,1.2,5.9,3.2,8c2,2.1,4.8,3.3,7.9,3.4
			c6.2,0.1,11.3-4.9,11.4-11.2l0.7-140.7l67.9,0.6l-0.8,129.7l-16.7-17c-4.3-4.4-11.5-4.8-16-0.5c-4.6,4.3-4.7,11.6-0.3,16.1
			l36,36.6c4.4,4.4,11.5,4.5,15.9,0.1l36.4-35.7c4.4-4.3,4.8-11.5,0.5-16c-4.3-4.6-11.6-4.7-16.1-0.3l-17.2,16.9l0.8-129.8l0.1,0
			l0.1-12.3c0-5.6-4.5-10.2-10.1-10.3l-90.7-0.8C264.4,152.5,263.8,152.6,263.1,152.7z"/>
	</g>
</g>
</svg>
