<?xml version="1.0" encoding="utf-8"?>
<!-- Generator: Adobe Illustrator 26.1.0, SVG Export Plug-In . SVG Version: 6.00 Build 0)  -->
<svg version="1.1" id="Layer_1" xmlns="http://www.w3.org/2000/svg" xmlns:xlink="http://www.w3.org/1999/xlink" x="0px" y="0px"
	 viewBox="0 0 512 511" style="enable-background:new 0 0 512 511;" xml:space="preserve">
<style type="text/css">
	.st0{fill:#EDEDF9;}
	.st1{fill:#102A3F;}
	.st2{fill:#F5502F;}
	.st3{fill:#FFC954;}
	.st4{fill:#FADE76;}
	.st5{fill:#FF99BB;}
	.st6{fill:none;stroke:#102A3F;stroke-width:16;stroke-miterlimit:10;}
	.st7{fill:#FFA3BF;}
	.st8{fill:#BDF9FF;}
	.st9{fill:#F9D42F;}
</style>
<g>
	<path class="st0" d="M416.6,498.4H49.4c-3.3,0-6-2.7-6-6V19.2c0-3.3,2.7-6,6-6h367.3c3.3,0,6,2.7,6,6v473.2
		C422.6,495.7,419.9,498.4,416.6,498.4z"/>
	<path class="st1" d="M422.6,155.7c-4.1,0-7.4,3.3-7.4,7.4v309.9c0,9.9-8,17.9-17.9,17.9H68.7c-9.9,0-17.9-8-17.9-17.9v-52.2
		c0-4.1-3.3-7.4-7.4-7.4s-7.4,3.3-7.4,7.4v52.2c0,18,14.7,32.7,32.7,32.7h328.6c18,0,32.7-14.7,32.7-32.7V163.1
		C430,159,426.7,155.7,422.6,155.7z"/>
	<path class="st1" d="M422.6,107.3c-4.1,0-7.4,3.3-7.4,7.4v20.2c0,4.1,3.3,7.4,7.4,7.4s7.4-3.3,7.4-7.4v-20.2
		C430,110.6,426.7,107.3,422.6,107.3z"/>
	<path class="st1" d="M397.3,5.8H68.7C50.6,5.8,36,20.4,36,38.5V381c0,4.1,3.3,7.4,7.4,7.4s7.4-3.3,7.4-7.4V38.5
		c0-9.9,8-17.9,17.9-17.9h328.6c9.9,0,17.9,8,17.9,17.9v53.5c0,4.1,3.3,7.4,7.4,7.4s7.4-3.3,7.4-7.4V38.5
		C430,20.4,415.3,5.8,397.3,5.8z"/>
	<path class="st1" d="M125.8,91.8h287.8c5.5,0,10-4.5,10-10c0-5.5-4.5-10-10-10H125.8c-5.5,0-10,4.5-10,10
		C115.8,87.3,120.3,91.8,125.8,91.8z"/>
	<path class="st1" d="M75,85.6c0.2,0.6,0.6,1.2,0.9,1.7c0.4,0.5,0.8,1.1,1.2,1.5c0.5,0.5,1,0.9,1.5,1.2c0.5,0.4,1.1,0.7,1.7,0.9
		c0.6,0.2,1.2,0.4,1.9,0.6s1.3,0.2,1.9,0.2c0.6,0,1.3-0.1,2-0.2c0.6-0.1,1.3-0.3,1.9-0.6c0.6-0.2,1.2-0.6,1.7-0.9
		c0.6-0.4,1.1-0.8,1.5-1.2c0.5-0.5,0.9-1,1.2-1.5c0.4-0.6,0.7-1.1,0.9-1.7c0.2-0.6,0.4-1.2,0.6-1.9c0.1-0.6,0.2-1.3,0.2-2
		c0-0.6-0.1-1.3-0.2-1.9c-0.1-0.6-0.3-1.3-0.6-1.9c-0.2-0.6-0.6-1.2-0.9-1.7c-0.4-0.6-0.8-1.1-1.2-1.5c-0.5-0.5-1-0.9-1.5-1.2
		c-0.5-0.4-1.1-0.7-1.7-0.9c-0.6-0.2-1.2-0.4-1.9-0.6c-1.3-0.3-2.6-0.3-3.9,0c-0.6,0.1-1.3,0.3-1.9,0.6c-0.6,0.2-1.2,0.6-1.7,0.9
		c-0.5,0.4-1.1,0.8-1.5,1.2c-0.5,0.5-0.9,1-1.2,1.5c-0.4,0.5-0.7,1.1-0.9,1.7c-0.2,0.6-0.4,1.2-0.6,1.9c-0.1,0.6-0.2,1.3-0.2,1.9
		c0,0.7,0.1,1.3,0.2,2C74.6,84.4,74.8,85,75,85.6z"/>
	<path class="st1" d="M381.4,123.2h-20c-5.5,0-10,4.5-10,10c0,5.5,4.5,10,10,10h20c5.5,0,10-4.5,10-10
		C391.4,127.7,386.9,123.2,381.4,123.2z"/>
	<path class="st1" d="M91.6,143.2H222c5.5,0,10-4.5,10-10c0-5.5-4.5-10-10-10H91.6c-5.5,0-10,4.5-10,10
		C81.6,138.7,86.1,143.2,91.6,143.2z"/>
	<path class="st1" d="M381.4,163.1H91.6c-5.5,0-10,4.5-10,10c0,5.5,4.5,10,10,10h289.8c5.5,0,10-4.5,10-10
		C391.4,167.6,386.9,163.1,381.4,163.1z"/>
	<path class="st1" d="M313.5,139c0.4,0.6,0.8,1.1,1.2,1.5c0.5,0.5,1,0.9,1.5,1.2c0.5,0.4,1.1,0.7,1.7,0.9c0.6,0.2,1.2,0.4,1.9,0.6
		c0.6,0.1,1.3,0.2,1.9,0.2c2.6,0,5.2-1.1,7.1-2.9c0.5-0.5,0.9-1,1.2-1.5c0.4-0.5,0.7-1.1,0.9-1.7c0.2-0.6,0.4-1.2,0.6-1.9
		c0.1-0.6,0.2-1.3,0.2-2c0-0.7-0.1-1.3-0.2-1.9c-0.1-0.6-0.3-1.3-0.6-1.9c-0.2-0.6-0.6-1.2-0.9-1.7c-0.4-0.5-0.8-1.1-1.2-1.5
		c-2.3-2.3-5.8-3.4-9-2.7c-0.6,0.1-1.3,0.3-1.9,0.6c-0.6,0.2-1.2,0.6-1.7,0.9c-0.5,0.4-1.1,0.8-1.5,1.2c-0.5,0.5-0.9,1-1.2,1.5
		c-0.4,0.5-0.7,1.1-0.9,1.7c-0.2,0.6-0.4,1.2-0.6,1.9c-0.1,0.6-0.2,1.3-0.2,1.9c0,0.6,0.1,1.3,0.2,2c0.1,0.6,0.3,1.3,0.6,1.9
		C312.8,137.9,313.1,138.5,313.5,139z"/>
	<path class="st2" d="M320.1,364.4c-2.2,6.3,3.8,12.3,10.1,10.1l45.1-16.1c1.7-0.6,3.3-1.3,4.8-2.2c1.6-1,3.1-2.1,4.4-3.5l4.1-4.1
		V475H199.7V215.3h188.9v48.3l-46.7,46.7c-1.3,1.3-2.5,2.8-3.4,4.3c-0.9,1.5-1.7,3.1-2.2,4.7L320.1,364.4z"/>
	<g>
		<path class="st3" d="M493.3,243.9L384.5,352.8c-1.3,1.3-2.8,2.5-4.4,3.5l-20.7-20.7h0l-20.9-20.9c1-1.6,2.1-3,3.4-4.3l88-88
			l20.9-20.9L493.3,243.9z"/>
		<path class="st4" d="M380.1,356.2c-1.5,0.9-3.1,1.7-4.8,2.2l-45.1,16.1c-6.3,2.2-12.3-3.8-10.1-10.1l16.1-45.1
			c0.6-1.7,1.3-3.2,2.2-4.7l20.9,20.9h0L380.1,356.2z"/>
		<path class="st5" d="M493.3,243.9l-42.5-42.5c11.6-11.6,30.4-11.6,42,0l0.6,0.6C504.9,213.5,504.9,232.3,493.3,243.9z"/>
	</g>
	<g>
		<path class="st6" d="M493.3,243.9L384.5,352.8c-1.3,1.3-2.8,2.5-4.4,3.5l-20.7-20.7h0l-20.9-20.9c1-1.6,2.1-3,3.4-4.3l88-88
			l20.9-20.9L493.3,243.9z"/>
		<path class="st6" d="M380.1,356.2c-1.5,0.9-3.1,1.7-4.8,2.2l-45.1,16.1c-6.3,2.2-12.3-3.8-10.1-10.1l16.1-45.1
			c0.6-1.7,1.3-3.2,2.2-4.7l20.9,20.9h0L380.1,356.2z"/>
		<path class="st6" d="M493.3,243.9l-42.5-42.5c11.6-11.6,30.4-11.6,42,0l0.6,0.6C504.9,213.5,504.9,232.3,493.3,243.9z"/>
	</g>
	<path class="st7" d="M81,214.3h97V301H81V214.3z"/>
	<path class="st8" d="M81,314.3h97V401H81V314.3z"/>
	<path class="st9" d="M81,410h97v67H81V410z"/>
</g>
</svg>
