<?xml version="1.0" encoding="utf-8"?>
<!-- Generator: Adobe Illustrator 26.1.0, SVG Export Plug-In . SVG Version: 6.00 Build 0)  -->
<svg version="1.1" id="Layer_1" xmlns="http://www.w3.org/2000/svg" xmlns:xlink="http://www.w3.org/1999/xlink" x="0px" y="0px"
	 viewBox="0 0 496 496" style="enable-background:new 0 0 496 496;" xml:space="preserve">
<style type="text/css">
	.st0{fill:#FD3A69;}
	.st1{fill:#FFFFFF;}
	.st2{fill:#9D0191;}
	.st3{fill:#141063;}
</style>
<g>
	<g>
		<g>
			<path class="st0" d="M387,479H115c-5.2,0-40.2-27.8-40.2-33l3.4-417.1c0-5.2,40-9.5,45.2-9.5L379,16c5.2,0,42.2,37.8,42.2,43v391
				C421.2,455.2,392.2,479,387,479z"/>
		</g>
		<g>
			<path class="st1" d="M377.7,87v133.9c0,13.6-13.5,24.7-30.1,24.7H148.4c-16.7,0-30.1-11.1-30.1-24.7V87
				c0-13.6,13.5-24.7,30.1-24.7h199.1C364.2,62.2,377.7,73.3,377.7,87z"/>
		</g>
		<g>
			<path class="st2" d="M281.5,245.5h-67.1c0-18.5,15-33.5,33.5-33.5S281.5,227,281.5,245.5z"/>
		</g>
		<g>
			<g>
				<path class="st2" d="M238,222.5c-3.9,0-7.5-2.5-8.6-6.5L214,164c-1.4-4.8,1.3-9.8,6.1-11.2c4.8-1.4,9.8,1.3,11.2,6.1l15.4,52.1
					c1.4,4.8-1.3,9.8-6.1,11.2C239.7,222.4,238.8,222.5,238,222.5z"/>
			</g>
		</g>
		<g>
			<path class="st3" d="M289.5,325.2C278.4,314.1,263.7,308,248,308c-15.7,0-30.4,6.1-41.5,17.2c-11.1,11.1-17.2,25.8-17.2,41.5
				c0,15.7,6.1,30.4,17.2,41.5c11.4,11.4,26.5,17.2,41.5,17.2c15,0,30.1-5.7,41.5-17.2c11.1-11.1,17.2-25.8,17.2-41.5
				C306.7,351,300.6,336.3,289.5,325.2z M219.2,337.9c7.9-7.9,18.4-11.9,28.8-11.9c7.6,0,15.1,2.1,21.7,6.3l-56.1,56.1
				C203.7,372.7,205.5,351.6,219.2,337.9z M276.8,395.5c-13.7,13.7-34.8,15.5-50.5,5.6l56.1-56.1
				C292.3,360.8,290.5,381.8,276.8,395.5z"/>
		</g>
		<g>
			<g>
				<path class="st3" d="M248,275.1c-5,0-9,4-9,9v4.9c0,5,4,9,9,9c5,0,9-4,9-9v-4.9C257,279.1,253,275.1,248,275.1z"/>
			</g>
			<g>
				<path class="st3" d="M248,435.5c-5,0-9,4-9,9v4.9c0,5,4,9,9,9c5,0,9-4,9-9v-4.9C257,439.5,253,435.5,248,435.5z"/>
			</g>
			<g>
				<path class="st3" d="M300.1,301.9l-3.5,3.5c-3.5,3.5-3.5,9.2,0,12.7c1.8,1.8,4.1,2.6,6.4,2.6c2.3,0,4.6-0.9,6.4-2.6l3.5-3.5
					c3.5-3.5,3.5-9.2,0-12.7C309.3,298.4,303.6,298.4,300.1,301.9z"/>
			</g>
			<g>
				<path class="st3" d="M186.7,415.3l-3.5,3.5c-3.5,3.5-3.5,9.2,0,12.7c1.8,1.8,4.1,2.6,6.4,2.6c2.3,0,4.6-0.9,6.4-2.6l3.5-3.5
					c3.5-3.5,3.5-9.2,0-12.7C195.9,411.8,190.2,411.8,186.7,415.3z"/>
			</g>
			<g>
				<path class="st3" d="M330.6,357.7h-4.9c-5,0-9,4-9,9c0,5,4,9,9,9h4.9c5,0,9-4,9-9C339.6,361.8,335.6,357.7,330.6,357.7z"/>
			</g>
			<g>
				<path class="st3" d="M170.3,357.7h-4.9c-5,0-9,4-9,9c0,5,4,9,9,9h4.9c5,0,9-4,9-9C179.3,361.8,175.2,357.7,170.3,357.7z"/>
			</g>
			<g>
				<path class="st3" d="M309.3,415.3c-3.5-3.5-9.2-3.5-12.7,0c-3.5,3.5-3.5,9.2,0,12.7l3.5,3.5c1.8,1.8,4.1,2.6,6.4,2.6
					c2.3,0,4.6-0.9,6.4-2.6c3.5-3.5,3.5-9.2,0-12.7L309.3,415.3z"/>
			</g>
			<g>
				<path class="st3" d="M195.9,301.9c-3.5-3.5-9.2-3.5-12.7,0c-3.5,3.5-3.5,9.2,0,12.7l3.5,3.5c1.8,1.8,4.1,2.6,6.4,2.6
					c2.3,0,4.6-0.9,6.4-2.6c3.5-3.5,3.5-9.2,0-12.7L195.9,301.9z"/>
			</g>
		</g>
	</g>
	<g>
		<path class="st3" d="M372.4,7H123.6C91.7,7,65.8,33,65.8,64.9v365.3c0,31.9,26,57.9,57.9,57.9h248.7c31.9,0,57.9-26,57.9-57.9v-43
			c0-5-4-9-9-9c-5,0-9,4-9,9v43c0,22-17.9,39.9-39.9,39.9H123.6c-22,0-39.9-17.9-39.9-39.9V64.9c0-22,17.9-39.9,39.9-39.9h248.7
			c22,0,39.9,17.9,39.9,39.9v206.7c0,5,4,9,9,9c5,0,9-4,9-9V64.9C430.2,33,404.3,7,372.4,7z"/>
		<path class="st3" d="M421.2,319.7c-5,0-9,4-9,9v1.9c0,5,4,9,9,9c5,0,9-4,9-9v-1.9C430.2,323.7,426.2,319.7,421.2,319.7z"/>
		<path class="st3" d="M386.7,220.9V87c0-18.6-17.6-33.7-39.2-33.7H148.4c-21.6,0-39.2,15.1-39.2,33.7v133.9
			c0,18.6,17.6,33.7,39.2,33.7h66h67.1h66C369.1,254.5,386.7,239.4,386.7,220.9z M127.3,220.9V87c0-8.5,9.7-15.7,21.1-15.7h199.1
			c11.5,0,21.1,7.2,21.1,15.7v133.9c0,8.5-9.7,15.7-21.1,15.7h-58c-4.1-19.1-21.2-33.5-41.6-33.5c-1.2,0-2.5,0.1-3.7,0.2l-13.1-44.3
			c-1.4-4.8-6.4-7.5-11.2-6.1c-4.8,1.4-7.5,6.4-6.1,11.2l13.1,44.5c-10.4,5.9-18.1,16-20.7,28h-58
			C137,236.5,127.3,229.4,127.3,220.9z M225.2,236.5c3.6-9.1,12.5-15.5,22.8-15.5c10.4,0,19.2,6.4,22.8,15.5H225.2z"/>
	</g>
</g>
<g>
	<g>
		<path class="st3" d="M321.4,147.9c-2.3,0-4.6-0.9-6.4-2.6c-37-37-97.1-37-134.1,0c-3.5,3.5-9.2,3.5-12.7,0
			c-3.5-3.5-3.5-9.2,0-12.7c44-44,115.5-44,159.5,0c3.5,3.5,3.5,9.2,0,12.7C326,147,323.7,147.9,321.4,147.9z"/>
	</g>
</g>
</svg>
