<?xml version="1.0" encoding="utf-8"?>
<!-- Generator: Adobe Illustrator 26.1.0, SVG Export Plug-In . SVG Version: 6.00 Build 0)  -->
<svg version="1.1" id="Layer_1" xmlns="http://www.w3.org/2000/svg" xmlns:xlink="http://www.w3.org/1999/xlink" x="0px" y="0px"
	 viewBox="0 0 512 512" style="enable-background:new 0 0 512 512;" xml:space="preserve">
<style type="text/css">
	.st0{fill:#ADCFFF;}
	.st1{fill:#FFED6C;}
	.st2{fill:#E1DFF4;}
	.st3{fill:#FFE997;}
	.st4{fill:#000053;}
</style>
<g>
	<g>
		<path class="st0" d="M496.8,257c0,0-107.8,130.4-240.8,130.4S15.3,257,15.3,257S123.1,126.6,256,126.6S496.8,257,496.8,257z"/>
		<ellipse transform="matrix(0.9253 -0.3793 0.3793 0.9253 -78.346 116.3209)" class="st1" cx="256" cy="257" rx="94" ry="94"/>
		<g>
			<path class="st2" d="M205.3,268.2c-6.2,0-11.2-5-11.2-11.2c0-34.2,27.8-62,62-62c6.2,0,11.2,5,11.2,11.2c0,6.2-5,11.2-11.2,11.2
				c-21.8,0-39.5,17.7-39.5,39.5C216.6,263.2,211.5,268.2,205.3,268.2z"/>
		</g>
		<g>
			<path class="st3" d="M256,71.2c-6.2,0-11.2-5-11.2-11.2V16.2c0-6.2,5-11.2,11.2-11.2c6.2,0,11.2,5,11.2,11.2v43.7
				C267.3,66.1,262.3,71.2,256,71.2z"/>
		</g>
		<g>
			<path class="st3" d="M395.4,128.9c-2.9,0-5.8-1.1-8-3.3c-4.4-4.4-4.4-11.5,0-15.9l30.9-30.9c4.4-4.4,11.5-4.4,15.9,0
				c4.4,4.4,4.4,11.5,0,15.9l-30.9,30.9C401.2,127.8,398.3,128.9,395.4,128.9z"/>
		</g>
		<g>
			<path class="st3" d="M426.3,438.5c-2.9,0-5.8-1.1-8-3.3l-30.9-30.9c-4.4-4.4-4.4-11.5,0-15.9c4.4-4.4,11.5-4.4,15.9,0l30.9,30.9
				c4.4,4.4,4.4,11.5,0,15.9C432,437.4,429.2,438.5,426.3,438.5z"/>
		</g>
		<g>
			<path class="st3" d="M256,509c-6.2,0-11.2-5-11.2-11.2v-43.7c0-6.2,5-11.2,11.2-11.2c6.2,0,11.2,5,11.2,11.2v43.7
				C267.3,504,262.3,509,256,509z"/>
		</g>
		<g>
			<path class="st3" d="M85.8,438.5c-2.9,0-5.8-1.1-8-3.3c-4.4-4.4-4.4-11.5,0-15.9l30.9-30.9c4.4-4.4,11.5-4.4,15.9,0
				c4.4,4.4,4.4,11.5,0,15.9l-30.9,30.9C91.6,437.4,88.7,438.5,85.8,438.5z"/>
		</g>
		<g>
			<path class="st3" d="M116.7,128.9c-2.9,0-5.8-1.1-8-3.3L77.9,94.7c-4.4-4.4-4.4-11.5,0-15.9c4.4-4.4,11.5-4.4,15.9,0l30.9,30.9
				c4.4,4.4,4.4,11.5,0,15.9C122.4,127.8,119.6,128.9,116.7,128.9z"/>
		</g>
	</g>
	<g>
		<path class="st4" d="M453.8,284.8c-37.4,34.1-112.9,91.4-197.8,91.4c-108.3,0-201.1-92.4-225.7-119.2
			c15.9-17.3,60.2-62.1,118.9-91.6c5.6-2.8,7.8-9.5,5-15.1c-2.8-5.5-9.5-7.8-15.1-5C61.2,184.3,8.7,247.2,6.5,249.8
			c-3.4,4.2-3.4,10.2,0,14.3c1.1,1.4,28.3,34,72.4,67c59,44.1,120.2,67.4,177,67.4c87.9,0,164.3-52.9,212.9-97.2
			c4.6-4.2,4.9-11.3,0.7-15.9C465.5,281,458.3,280.6,453.8,284.8z"/>
		<path class="st4" d="M505.4,249.8c-4.5-5.5-112.7-134.5-249.4-134.5c-5.6,0-11.4,0.2-17.1,0.7c-6.2,0.5-10.8,5.9-10.3,12.1
			c0.5,6.2,5.8,10.8,12.1,10.3c5.1-0.4,10.3-0.6,15.3-0.6c126,0,231,125.1,232.1,126.3c2.2,2.7,5.4,4.1,8.7,4.1
			c2.5,0,5.1-0.8,7.2-2.6C508.7,261.7,509.3,254.6,505.4,249.8z"/>
		<path class="st4" d="M188.6,148.5c1.1,0,2.2-0.2,3.3-0.5c1.4-0.4,2.9-0.9,4.3-1.3c6-1.7,9.4-8,7.7-13.9c-1.7-6-8-9.4-13.9-7.7
			c-1.6,0.5-3.1,0.9-4.7,1.4c-5.9,1.8-9.3,8.1-7.4,14.1C179.3,145.4,183.8,148.5,188.6,148.5z"/>
		<path class="st4" d="M317.6,312.2c-1.1,1.2-2.2,2.4-3.3,3.5c-4.4,4.4-4.4,11.5,0,15.9c2.2,2.2,5.1,3.3,8,3.3
			c2.9,0,5.7-1.1,7.9-3.3c1.4-1.4,2.8-2.9,4.2-4.4c4.2-4.6,3.8-11.7-0.9-15.9C328.9,307.2,321.7,307.6,317.6,312.2z"/>
		<path class="st4" d="M341.8,296.9c6,2,12.3-1.3,14.2-7.2c3.4-10.5,5.2-21.5,5.2-32.7c0-58-47.2-105.2-105.2-105.2
			c-58,0-105.2,47.2-105.2,105.2S198,362.2,256,362.2c12.4,0,24.5-2.1,36-6.3c5.8-2.1,8.8-8.6,6.7-14.4c-2.1-5.8-8.6-8.8-14.4-6.7
			c-9,3.3-18.6,5-28.3,5c-45.6,0-82.7-37.1-82.7-82.7s37.1-82.7,82.7-82.7c45.6,0,82.7,37.1,82.7,82.7c0,8.8-1.4,17.5-4.1,25.7
			C332.7,288.6,335.9,295,341.8,296.9z"/>
		<path class="st4" d="M194,257c0,6.2,5,11.2,11.2,11.2s11.2-5,11.2-11.2c0-21.8,17.7-39.5,39.5-39.5c6.2,0,11.2-5,11.2-11.2
			c0-6.2-5-11.2-11.2-11.2C221.8,195,194,222.8,194,257z"/>
		<path class="st4" d="M256,71.2c6.2,0,11.2-5,11.2-11.2V16.2c0-6.2-5-11.2-11.2-11.2c-6.2,0-11.2,5-11.2,11.2v43.7
			C244.7,66.1,249.7,71.2,256,71.2z"/>
		<path class="st4" d="M395.3,128.9c2.9,0,5.8-1.1,8-3.3l30.9-30.9c4.4-4.4,4.4-11.5,0-15.9c-4.4-4.4-11.5-4.4-15.9,0l-30.9,30.9
			c-4.4,4.4-4.4,11.5,0,15.9C389.6,127.8,392.4,128.9,395.3,128.9z"/>
		<path class="st4" d="M403.3,388.4c-4.4-4.4-11.5-4.4-15.9,0c-4.4,4.4-4.4,11.5,0,15.9l30.9,30.9c2.2,2.2,5.1,3.3,8,3.3
			c2.9,0,5.8-1.1,8-3.3c4.4-4.4,4.4-11.5,0-15.9L403.3,388.4z"/>
		<path class="st4" d="M256,442.8c-6.2,0-11.2,5-11.2,11.2v43.7c0,6.2,5,11.2,11.2,11.2c6.2,0,11.2-5,11.2-11.2v-43.7
			C267.2,447.9,262.2,442.8,256,442.8z"/>
		<path class="st4" d="M108.7,388.4l-30.9,30.9c-4.4,4.4-4.4,11.5,0,15.9c2.2,2.2,5.1,3.3,8,3.3c2.9,0,5.8-1.1,8-3.3l30.9-30.9
			c4.4-4.4,4.4-11.5,0-15.9S113,384,108.7,388.4z"/>
		<path class="st4" d="M108.7,125.6c2.2,2.2,5.1,3.3,8,3.3c2.9,0,5.8-1.1,8-3.3c4.4-4.4,4.4-11.5,0-15.9L93.7,78.8
			c-4.4-4.4-11.5-4.4-15.9,0c-4.4,4.4-4.4,11.5,0,15.9L108.7,125.6z"/>
	</g>
</g>
</svg>
